<svg width="492" height="308" viewBox="0 0 492 308" fill="none" xmlns="http://www.w3.org/2000/svg">
<path d="M401.656 307.931C405.378 307.931 408.395 304.95 408.395 301.274C408.395 297.598 405.378 294.618 401.656 294.618C397.935 294.618 394.918 297.598 394.918 301.274C394.918 304.95 397.935 307.931 401.656 307.931Z" fill="white"/>
<path d="M382.647 276.072C389.811 276.072 395.618 270.335 395.618 263.258C395.618 256.181 389.811 250.444 382.647 250.444C375.483 250.444 369.676 256.181 369.676 263.258C369.676 270.335 375.483 276.072 382.647 276.072Z" fill="#6F4E9D"/>
<path d="M6.79825 209.667C10.5197 209.667 13.5364 206.687 13.5364 203.01C13.5364 199.334 10.5197 196.354 6.79825 196.354C3.07686 196.354 0.0600586 199.334 0.0600586 203.01C0.0600586 206.687 3.07686 209.667 6.79825 209.667Z" fill="#DF4C97"/>
<path d="M46.2396 141.455C46.2396 148.251 40.6606 153.771 33.7657 153.771C26.8708 153.771 21.2917 148.251 21.2917 141.455C21.2917 134.658 26.8708 129.138 33.7657 129.138C40.6606 129.138 46.2396 134.658 46.2396 141.455Z" fill="#EFEFEF" stroke="#EFEFEF" stroke-width="0.994111"/>
<path d="M458.26 31.0113L489.766 49.1269C489.766 49.1269 492.343 50.2124 490.266 51.5967C488.188 52.9811 476.99 59.5043 476.99 59.5043C476.283 59.9386 475.462 60.1518 474.632 60.1163C473.802 60.0808 473.002 59.7983 472.335 59.3051C469.658 57.5822 440.929 41.1596 440.929 41.1596C440.929 41.1596 438.741 39.9745 440.729 38.6897C442.717 37.405 454.794 30.7224 454.794 30.7224C454.794 30.7224 455.583 29.6269 458.26 31.0113Z" fill="#2E938D"/>
<path d="M457.492 29.0095L488.998 47.1352C488.998 47.1352 491.575 48.2207 489.487 49.605C487.399 50.9894 476.212 57.5126 476.212 57.5126C475.505 57.9483 474.683 58.1622 473.853 58.1267C473.023 58.0912 472.223 57.8079 471.557 57.3134C468.879 55.6303 440.15 39.2376 440.15 39.2376C440.15 39.2376 437.973 38.0524 439.951 36.7677C441.929 35.483 454.025 28.8004 454.025 28.8004C454.025 28.8004 454.815 27.6252 457.492 29.0095Z" fill="#4FBEB8"/>
<path d="M440.14 57.4525L471.656 75.5284C471.656 75.5284 474.233 76.6139 472.156 77.9983C470.078 79.3826 458.88 85.8959 458.88 85.8959C458.174 86.3342 457.352 86.5497 456.522 86.5142C455.691 86.4786 454.89 86.1937 454.225 85.6967C451.548 84.0236 422.819 67.6208 422.819 67.6208C422.819 67.6208 420.641 66.4357 422.619 65.151C424.597 63.8662 436.684 57.1836 436.684 57.1836C436.684 57.1836 437.473 56.0981 440.14 57.4525Z" fill="#BC3B88"/>
<path d="M439.371 55.4511L470.877 73.5269C470.877 73.5269 473.454 74.6124 471.376 75.9868C469.299 77.3611 458.101 83.8943 458.101 83.8943C457.393 84.3321 456.57 84.5473 455.737 84.5118C454.905 84.4763 454.103 84.1917 453.436 83.6951C450.769 82.012 422.03 65.6194 422.03 65.6194C422.03 65.6194 419.852 64.4342 421.84 63.1495C423.828 61.8648 435.905 55.1822 435.905 55.1822C435.905 55.1822 436.694 54.1066 439.371 55.4511Z" fill="#DF4C97"/>
<path d="M421.141 84.7612L452.677 102.837C452.677 102.837 455.254 103.932 453.176 105.307C451.098 106.681 439.901 113.214 439.901 113.214C439.193 113.652 438.369 113.867 437.537 113.832C436.705 113.796 435.903 113.512 435.236 113.015C432.568 111.332 403.83 94.9394 403.83 94.9394C403.83 94.9394 401.652 93.7542 403.64 92.4695C405.628 91.1848 417.705 84.5023 417.705 84.5023C417.705 84.5023 418.464 83.3869 421.141 84.7612Z" fill="#45286D"/>
<path d="M420.371 82.7595L451.877 100.835C451.877 100.835 454.454 101.921 452.367 103.305C450.279 104.689 439.091 111.213 439.091 111.213C438.385 111.651 437.563 111.867 436.733 111.831C435.902 111.795 435.101 111.511 434.436 111.014C431.759 109.33 403.03 92.9477 403.03 92.9477C403.03 92.9477 400.852 91.7625 402.83 90.4778C404.808 89.1931 416.905 82.5105 416.905 82.5105C416.905 82.5105 417.714 81.3851 420.371 82.7595Z" fill="#6F4E9D"/>
<path d="M443.426 71.6746C443.426 71.6746 441.568 73.776 443.956 74.8317C446.343 75.8874 446.952 74.4433 448.84 73.6465C450.728 72.8498 453.465 70.6588 452.007 69.3043C450.548 67.9499 443.426 71.6746 443.426 71.6746Z" fill="#A7D9D6"/>
<path d="M438.692 46.7368C438.692 46.7368 450.679 52.533 450.839 58.4985C450.999 64.464 447.143 72.2023 447.143 72.2023C447.143 72.2023 446.793 73.2579 443.447 71.6744C443.447 71.6744 447.842 60.2613 443.797 57.6221C441.155 55.9797 438.227 54.8479 435.166 54.2858L436.165 48.5693L438.692 46.7368Z" fill="#16332F"/>
<path d="M441.268 2.87744C441.268 2.87744 443.506 6.30337 443.906 8.54416C443.906 8.54416 446.023 11.0439 444.835 11.7012L443.646 12.3585C443.646 12.3585 444.035 16.0533 441.528 16.7106L440.339 19.2104L435.345 18.0252L436.793 13.4142L434.945 6.96067L441.268 2.87744Z" fill="#EEBEA3"/>
<path d="M442.807 34.7961C442.807 34.7961 445.444 41.4687 448.621 43.1418C448.621 43.1418 449.15 44.4564 451.528 42.5244C453.905 40.5923 457.871 30.5734 457.871 30.5734C457.871 30.5734 459.799 29.0796 459.359 27.765C458.92 26.4504 458.31 24.598 457.781 24.7772L457.072 25.4744C457.072 25.4744 456.632 24.598 456.013 25.3051C455.628 25.7345 455.293 26.2055 455.014 26.7093C454.845 27.2546 454.806 27.8313 454.897 28.3944C454.989 28.9576 455.21 29.492 455.543 29.956L449.999 37.6842L447.792 33.0333L442.807 34.7961Z" fill="#EEBEA3"/>
<path d="M424.397 23.9106C424.397 23.9106 420.351 25.2253 420.961 27.4163C421.57 29.6073 428.363 36.8177 428.363 36.8177L429.511 33.9196L426.515 27.4163L424.397 23.9106Z" fill="#EEBEA3"/>
<path d="M427.574 42.8726C427.574 42.8726 425.276 53.1503 432.938 54.7239C432.938 54.7239 436.065 59.9923 433.827 69.2144C432.287 74.9264 428.779 79.9155 423.918 83.3065C423.918 83.3065 426.695 82.2509 428.273 86.2943C428.273 86.2943 438.052 75.887 440.829 67.9894C443.606 60.0919 442.408 47.0753 442.408 47.0753L427.574 42.8726Z" fill="#1E4742"/>
<path d="M422.459 22.1477C422.459 22.1477 428.363 15.9133 431.53 16.0029C434.696 16.0925 440.69 16.4411 443.956 19.5185C447.223 22.5959 450.949 31.7185 450.949 31.7185C450.949 31.7185 448.831 35.5826 444.695 36.2001C444.812 37.5258 445.121 38.8276 445.614 40.0642C445.913 43.4526 446.46 46.8146 447.253 50.123C447.446 50.9314 447.253 50.4746 446.432 51.2925C446.07 51.6536 445.614 51.9853 444.835 51.9853C444.835 51.9853 432.938 52.3339 424.307 48.908C425.792 46.1599 426.721 43.1487 427.045 40.0443C427.304 35.5627 427.834 28.7207 427.834 28.7207H426.425C426.425 28.7207 421.71 27.685 422.459 22.1477Z" fill="#A7D9D6"/>
<path d="M423.918 83.3067C423.918 83.3067 423.079 82.9979 423.209 84.9798C423.338 86.9617 424.537 87.609 424.667 90.3777C424.797 93.1463 424.797 93.3654 427.174 94.4609C429.552 95.5564 431.17 95.5166 430.341 93.5347C429.512 91.5528 428.273 86.3342 428.273 86.3342C428.273 86.3342 426.605 81.9024 423.918 83.3067Z" fill="#A7D9D6"/>
<path d="M430.126 95C430.126 95 431.892 94.0166 430.403 90.7178C429.688 89.0833 428.885 87.5073 428 86C428 86 429.469 92.5353 430.126 95Z" fill="#A7D9D6"/>
<path d="M431.09 4.5003C431.09 4.5003 428.093 8.0159 430.211 10.4758C432.329 12.9357 432.858 13.2843 433.208 14.1607C433.33 14.4921 433.521 14.7944 433.767 15.048C434.014 15.3016 434.31 15.5009 434.639 15.6332C434.967 15.7655 435.32 15.8277 435.674 15.816C436.028 15.8042 436.375 15.7187 436.694 15.565C438.632 14.6886 440.74 14.5093 441.089 11.3522C441.317 9.50651 440.882 7.63999 439.861 6.08381C439.861 6.08381 442.498 5.2074 443.557 3.62389C444.616 2.04038 442.328 -0.588856 438.452 0.118247C434.576 0.82535 431.09 4.5003 431.09 4.5003Z" fill="#16332F"/>
</svg>
