<svg width="162" height="148" viewBox="0 0 162 148" fill="none" xmlns="http://www.w3.org/2000/svg">
<path d="M2.64316 95.3276L75.4061 52.7947C76.9804 51.6849 78.8185 51.0048 80.7378 50.8218C80.8498 50.8218 80.9693 50.8218 81.0888 50.8218C81.2083 50.8218 81.3278 50.8218 81.4323 50.8218C83.3517 51.0048 85.1897 51.6849 86.7641 52.7947L159.527 95.3276C160.707 96.5166 161.369 98.1218 161.369 99.7946C161.369 101.467 160.707 103.073 159.527 104.262L87.6004 145.588C85.8904 146.601 83.0602 148.112 81.0963 147.993C79.1249 148.112 76.3022 146.601 74.5847 145.588L2.65063 104.284C1.46266 103.095 0.795013 101.486 0.793625 99.8073C0.792221 98.1291 1.45717 96.5186 2.64316 95.3276Z" fill="#9B82BE"/>
<path d="M119.643 90.3621L58.074 54.6263C56.5805 53.8148 55.311 52.7427 55.311 51.224V3.20394C55.311 1.71495 54.9078 -1.08436 58.074 0.441862L119.643 35.9767C121.264 36.9222 122.406 38.2102 122.406 39.7587V87.6001C122.406 89.1188 122.548 92.0447 119.643 90.3621Z" fill="#4FBEB8"/>
<path opacity="0.3" d="M100.352 109.778L38.7825 74.0423C37.289 73.2308 36.0195 72.1513 36.0195 70.6325V22.62C36.0195 21.131 35.6163 18.3392 38.7825 19.8579L100.352 55.3927C101.98 56.3382 103.122 57.6634 103.122 59.1747V107.023C103.122 108.535 103.256 111.461 100.352 109.778Z" fill="#6F4E9D"/>
<path d="M110.144 51.7156C110.446 51.9116 110.793 52.027 111.152 52.0506C111.282 52.0563 111.41 52.0284 111.525 51.9697C111.641 51.911 111.738 51.8234 111.81 51.7156C111.983 51.4293 112.064 51.0965 112.041 50.7626C112.043 50.3446 111.964 49.9301 111.81 49.5417C111.656 49.1459 111.434 48.7804 111.152 48.4622C110.866 48.132 110.525 47.8526 110.144 47.6358C109.837 47.4403 109.485 47.3251 109.121 47.3008C108.993 47.2943 108.865 47.321 108.749 47.3784C108.634 47.4358 108.536 47.5219 108.464 47.6283C108.293 47.9157 108.212 48.2477 108.233 48.5813C108.235 48.9989 108.313 49.4126 108.464 49.8022C108.789 50.6123 109.382 51.2874 110.144 51.7156ZM110.144 51.1423C109.771 50.9416 109.463 50.6396 109.256 50.2713C109.035 49.8809 108.924 49.4386 108.935 48.9908C108.935 48.5143 109.039 48.2463 109.256 48.0825C109.472 47.9187 109.748 48.0006 110.122 48.209C110.482 48.4137 110.778 48.7123 110.981 49.0726C111.195 49.4596 111.303 49.8962 111.294 50.3383C111.294 50.8222 111.19 51.1274 110.981 51.2615C110.843 51.3166 110.693 51.3347 110.546 51.3138C110.4 51.2928 110.261 51.2337 110.144 51.1423Z" fill="white"/>
<path d="M107.367 50.0775V46.0944L104.746 44.6055V45.1862L106.65 46.3029V47.3973L104.858 46.3699V46.9506L106.65 47.9706V49.7052L107.367 50.0775Z" fill="white"/>
<path d="M100.542 46.2144C100.854 46.4122 101.211 46.5299 101.58 46.5569C101.71 46.5668 101.841 46.5425 101.959 46.4863C102.077 46.4301 102.178 46.344 102.252 46.2367C102.426 45.9531 102.507 45.6226 102.483 45.2911C102.485 44.8779 102.407 44.4682 102.252 44.0849C102.093 43.6862 101.866 43.3182 101.58 42.9978C101.283 42.6624 100.932 42.3781 100.542 42.1565C100.31 42.0148 100.059 41.9093 99.7951 41.8437C99.6032 41.7832 99.3971 41.7832 99.2052 41.8437L99.4367 42.499C99.6165 42.4616 99.802 42.4616 99.9818 42.499C100.183 42.539 100.375 42.6147 100.549 42.7223C100.922 42.932 101.232 43.2381 101.445 43.6084C101.659 43.9904 101.767 44.422 101.759 44.8592C101.759 45.3283 101.655 45.6038 101.445 45.7602C101.236 45.9165 100.93 45.8421 100.549 45.6187C100.341 45.5042 100.15 45.3613 99.9818 45.1943C99.7804 45.0038 99.5978 44.7943 99.4367 44.5689L99.2052 44.9635C99.3718 45.2159 99.57 45.4461 99.7951 45.6485C100.024 45.8623 100.274 46.0519 100.542 46.2144Z" fill="white"/>
<path d="M104.515 42.7443C104.825 42.9463 105.183 43.0643 105.553 43.0867C105.684 43.0959 105.815 43.0704 105.933 43.0129C106.051 42.9554 106.151 42.8678 106.225 42.7591C106.398 42.4756 106.479 42.1451 106.456 41.8136C106.457 41.3981 106.379 40.9861 106.225 40.6001C106.062 40.2032 105.835 39.8358 105.553 39.5131C105.255 39.18 104.904 38.8982 104.515 38.6793C104.28 38.5436 104.029 38.4385 103.768 38.3666C103.576 38.3055 103.37 38.3055 103.178 38.3666L103.409 39.0217C103.589 38.9846 103.775 38.9846 103.954 39.0217C104.153 39.0685 104.345 39.1437 104.522 39.2451C104.894 39.4567 105.203 39.7623 105.418 40.131C105.631 40.5131 105.74 40.9446 105.732 41.3818C105.732 41.8508 105.627 42.1263 105.418 42.2827C105.209 42.439 104.903 42.372 104.522 42.1486C104.316 42.0343 104.125 41.8942 103.954 41.7317C103.755 41.5395 103.572 41.3302 103.409 41.1063L103.178 41.4935C103.342 41.7497 103.541 41.9826 103.768 42.1859C103.995 42.3996 104.245 42.587 104.515 42.7443Z" fill="white"/>
<path d="M102.364 41.4709V37.5027L99.6835 36.0137V36.572L101.655 37.6888V38.7981L99.7955 37.7409V38.3067L101.655 39.3639V40.5328L99.6835 39.416V39.9744L102.364 41.4709Z" fill="white"/>
<path d="M96.6887 44.002C96.9925 44.1993 97.3424 44.3147 97.7042 44.337C97.8321 44.3443 97.9597 44.3187 98.0748 44.2627C98.1899 44.2066 98.2886 44.122 98.3614 44.0169C98.5317 43.7292 98.6123 43.3975 98.5929 43.064C98.5904 42.6488 98.512 42.2375 98.3614 41.8504C98.2033 41.4593 97.9813 41.097 97.7042 40.7784C97.4127 40.4521 97.0697 40.1754 96.6887 39.9594C96.3858 39.7592 96.0357 39.6412 95.6731 39.6169C95.5452 39.6096 95.4176 39.6352 95.3026 39.6913C95.1875 39.7474 95.0888 39.832 95.016 39.9371C94.8423 40.2206 94.7614 40.5511 94.7845 40.8826C94.7825 41.2982 94.8611 41.7103 95.016 42.0961C95.1718 42.4906 95.394 42.8557 95.6731 43.1756C95.9611 43.5077 96.3047 43.7873 96.6887 44.002ZM96.6887 43.4362C96.3233 43.2373 96.0208 42.9408 95.815 42.58C95.6024 42.1923 95.4943 41.7562 95.5014 41.3144C95.5014 40.8379 95.6059 40.5699 95.815 40.4136C96.0241 40.2572 96.3153 40.3317 96.6812 40.5401C97.0411 40.7412 97.3382 41.0375 97.54 41.3963C97.7558 41.7831 97.8665 42.2194 97.8611 42.6619C97.8611 43.1384 97.749 43.4064 97.54 43.5702C97.3309 43.734 97.0546 43.6447 96.6887 43.4362Z" fill="white"/>
<path d="M98.8906 39.4985V35.5304L97.1731 34.5551C96.8721 34.3396 96.5046 34.2368 96.1351 34.2647C95.9036 34.3317 95.7841 34.5402 95.7841 34.9125C95.7932 35.2873 95.9213 35.6496 96.15 35.9473C96.4181 36.3144 96.7651 36.6171 97.1656 36.8332L96.7176 36.4908C96.6087 36.4155 96.4755 36.3837 96.3442 36.4014C96.2856 36.4169 96.2314 36.4458 96.186 36.4859C96.1406 36.526 96.1053 36.5761 96.0828 36.6322L95.59 37.615L96.3367 38.0542L96.8371 37.0268C96.8524 36.9816 96.8833 36.9433 96.9244 36.9187C96.9654 36.8942 97.0139 36.885 97.0611 36.8928C97.1888 36.9112 97.3111 36.9569 97.4195 37.0268L98.1663 37.4437V39.0891L98.8906 39.4985ZM98.1439 36.8854L97.2328 36.3717C96.9996 36.2509 96.7937 36.0836 96.628 35.8803C96.5046 35.7199 96.4365 35.524 96.4338 35.3219C96.4338 35.1135 96.501 35.0018 96.628 34.9795C96.846 34.98 97.0581 35.0505 97.2328 35.1805L98.1439 35.6942V36.8854Z" fill="white"/>
<path d="M93.9862 36.7063V33.3411L95.293 34.0856V33.4975L91.955 31.6064V32.1574L93.2544 32.9019V36.267L93.9862 36.7063Z" fill="white"/>
<path d="M93.9033 42.3648V38.4116L93.3209 38.084L91.8274 40.6152L92.1037 40.7716L90.6102 36.5131L90.0352 36.1855V40.1313L90.6849 40.4961V37.5852L90.4982 37.5182L91.7154 41.0917L92.1933 41.3672L93.4702 39.223L93.2686 39.0593V41.9776L93.9033 42.3648Z" fill="white"/>
<path d="M91.335 35.1878V31.242L90.5882 30.8325V34.7709L91.335 35.1878Z" fill="white"/>
<path d="M89.0117 39.5579V35.6194L87.2718 34.6218C86.977 34.4127 86.6161 34.3175 86.2562 34.3537C86.0247 34.4207 85.9052 34.6367 85.9052 34.9866C85.9136 35.3626 86.0388 35.7268 86.2637 36.0289C86.5307 36.3942 86.8748 36.6966 87.2718 36.9149L88.2799 37.4956V39.141L89.0117 39.5579ZM88.265 36.9447L87.339 36.4161C87.1155 36.2966 86.9196 36.1317 86.764 35.9321C86.6476 35.7742 86.5825 35.5845 86.5773 35.3886C86.5773 35.195 86.6445 35.0834 86.764 35.0536C86.9705 35.0458 87.1735 35.1089 87.339 35.2323L88.265 35.7609V36.9447Z" fill="white"/>
<path d="M85.1367 37.3688V33.4379L84.39 33.021V36.3637L82.5231 35.2991V35.8798L85.1367 37.3688Z" fill="white"/>
<path d="M63.3549 32.733L114.156 62.1167L113.782 62.7607L62.9802 33.377L63.3549 32.733Z" fill="white"/>
<path d="M81.8652 35.4627V31.5391L79.1844 30.0054V30.5638L81.1558 31.688V32.7824L79.2964 31.7178V32.2761L81.1558 33.3408V34.4948L79.1844 33.3706V33.9215L81.8652 35.4627Z" fill="white"/>
<path d="M89.6016 34.2047V30.2663L86.9805 28.7773V29.3432L88.8922 30.4301V31.5096L87.0925 30.4897V31.0629L88.8922 32.0829V33.7952L89.6016 34.2047Z" fill="white"/>
<path d="M86.2637 32.2993V28.3685L85.5169 27.959V31.8899L86.2637 32.2993Z" fill="white"/>
<path d="M82.7241 30.3257C83.0357 30.5262 83.3924 30.6464 83.7621 30.6756C83.8924 30.6856 84.0231 30.6612 84.141 30.6051C84.259 30.5489 84.36 30.4628 84.4342 30.3555C84.6059 30.0739 84.6867 29.7464 84.6657 29.4175C84.6625 29.0096 84.5841 28.6058 84.4342 28.2263C84.2719 27.8317 84.0448 27.4669 83.7621 27.1468C83.4627 26.8177 83.1123 26.5387 82.7241 26.3205C82.4914 26.1796 82.24 26.0719 81.9774 26.0003C81.7824 25.9432 81.575 25.9432 81.38 26.0003L81.6189 26.6555C81.7962 26.6183 81.9793 26.6183 82.1566 26.6555C82.3573 26.7006 82.5491 26.7785 82.7241 26.8862C83.0985 27.0901 83.4107 27.3911 83.6277 27.7573C83.8404 28.1369 83.9486 28.5658 83.9413 29.0006C83.9413 29.4621 83.8368 29.745 83.6277 29.8865C83.4186 30.0279 83.1124 29.9684 82.7241 29.7525C82.5207 29.6311 82.3305 29.4888 82.1566 29.3281C81.9614 29.1365 81.7816 28.9299 81.6189 28.7102L81.38 29.0973C81.5495 29.3475 81.7503 29.5751 81.9774 29.7748C82.2046 29.986 82.4551 30.1708 82.7241 30.3257Z" fill="white"/>
<path d="M80.3421 28.9263L81.0889 29.3432L79.2743 24.4L78.6843 24.0649L76.8772 26.946L77.6239 27.3555L79.1174 24.8317L78.9158 24.7201L80.3421 28.9263ZM80.2749 27.9734L79.9986 27.2661L77.96 26.1048L77.6912 26.4993L80.2749 27.9734Z" fill="white"/>
<path d="M77.4442 32.9018V29.5664L78.751 30.3109V29.7228L75.4055 27.8169V28.4348L76.7123 29.1793V32.5072L77.4442 32.9018Z" fill="white"/>
<path d="M49.2201 51.8607L45.2675 45.2411L50.3288 46.0422L47.9629 39.1891L53.0995 42.0067L53.3144 36.0095L57.4439 41.3854L59.941 37.0544L62.5544 42.9076L66.186 41.031L67.2291 46.1352L73.0416 49.1552L71.4083 52.6078L77.167 58.4682L73.764 60.0787L77.7058 66.9408L73.0858 66.973L74.5635 72.9072L70.4394 70.0698L70.2231 76.5616L66.3603 71.4855L63.8122 75.6196L60.7538 69.5615L55.989 71.7681L55.1848 65.7799L49.2234 65.1798L51.451 59.8949L46.2102 56.3973L49.2201 51.8607Z" fill="white"/>
<path d="M38.3834 73.2816C45.9571 74.5607 53.0626 66.388 55.2767 63.5501C53.3018 61.2506 51.7861 58.4875 50.9561 55.6733C50.126 52.8591 50.026 50.1448 50.6711 47.9357C51.3162 45.7266 52.6717 44.1413 54.5352 43.4164C56.3988 42.6915 58.6703 42.866 61.0107 43.9138C63.3511 44.9616 65.6348 46.8265 67.5208 49.23C69.4067 51.6335 70.7937 54.4467 71.4747 57.2494C72.1557 60.0522 72.0941 62.6941 71.2991 64.7808C70.5042 66.8675 69.0185 68.2869 67.0639 68.8272C67.2628 72.5961 68.3276 76.6375 70.1516 80.5456C71.9755 84.4538 74.4944 88.0912 77.4553 91.0927L70.031 85.7207L70.3313 93.832C70.3313 93.832 62.0801 83.0163 62.6981 68.688C62.0971 68.5148 61.4899 68.2854 60.8821 68.0019C60.2036 67.6749 59.5279 67.2798 58.8637 66.8216C57.629 75.286 53.4061 81.5463 47.024 84.3731L47.5862 77.5061L38.3834 73.2816Z" fill="#4FBEB8"/>
<path d="M63.35 39.3973L114.151 68.7808L113.777 69.4247L62.9753 40.0413L63.35 39.3973Z" fill="white"/>
<path d="M74.7852 31.4129V27.5043L74.0384 27.0874V30.996L74.7852 31.4129Z" fill="white"/>
<path d="M71.2845 29.4399C71.5902 29.6343 71.9387 29.7518 72.3 29.7823C72.4272 29.7905 72.5544 29.766 72.6694 29.7112C72.7845 29.6565 72.8835 29.5733 72.9572 29.4696C73.127 29.1899 73.2077 28.8654 73.1887 28.539C73.187 28.1286 73.1085 27.7221 72.9572 27.3404C72.8008 26.9506 72.5785 26.5905 72.3 26.2757C72.0066 25.9515 71.6639 25.6752 71.2845 25.4568C70.9788 25.2624 70.6303 25.1448 70.2689 25.1143C70.1405 25.1049 70.0118 25.1287 69.8954 25.1835C69.7789 25.2383 69.6787 25.3222 69.6043 25.427C69.4364 25.7045 69.3581 26.0268 69.3803 26.3502C69.3783 26.761 69.457 27.1682 69.6118 27.5488C69.7683 27.9407 69.9905 28.3033 70.2689 28.6209C70.5591 28.9486 70.9024 29.2254 71.2845 29.4399ZM71.2845 28.8815C70.9227 28.677 70.6234 28.3785 70.4183 28.0179C70.2049 27.6358 70.0967 27.2043 70.1047 26.7671C70.1047 26.2981 70.2092 26.0226 70.4183 25.8812C70.562 25.8269 70.7173 25.8108 70.8691 25.8343C71.0209 25.8577 71.164 25.9201 71.2845 26.0152C71.6443 26.2163 71.9415 26.5126 72.1432 26.8713C72.3566 27.2507 72.4649 27.6798 72.4569 28.1147C72.4569 28.5862 72.3523 28.884 72.1432 29.008C71.9192 29.1346 71.6504 29.0899 71.2845 28.8815Z" fill="white"/>
<path d="M68.5137 27.8098V23.9161L67.9686 23.6108L65.6611 25.1966L65.8179 25.3604V22.3824L65.1309 21.9878V25.8741L65.6835 26.1868L67.976 24.601L67.8267 24.4298V27.4078L68.5137 27.8098Z" fill="white"/>
<path d="M75.8618 26.3729V23.045L77.1611 23.7895V23.2237L73.8232 21.3252V21.9059L75.13 22.6504V25.9708L75.8618 26.3729Z" fill="white"/>
<path d="M73.1953 24.8609V20.9895L70.5145 19.5005V20.0589L72.4859 21.1756V22.2551L70.6339 21.2054V21.734L72.4859 22.7837V23.9377L70.5145 22.8135V23.3719L73.1953 24.8609Z" fill="white"/>
</svg>
