<svg width="542" height="337" viewBox="0 0 542 337" fill="none" xmlns="http://www.w3.org/2000/svg">
<path d="M7.37149 337C11.4426 337 14.743 333.739 14.743 329.718C14.743 325.696 11.4426 322.436 7.37149 322.436C3.30033 322.436 0 325.696 0 329.718C0 333.739 3.30033 337 7.37149 337Z" fill="#EFEFEF"/>
<path d="M42.4665 280.869C50.3034 280.869 56.6566 274.593 56.6566 266.851C56.6566 259.109 50.3034 252.833 42.4665 252.833C34.6295 252.833 28.2764 259.109 28.2764 266.851C28.2764 274.593 34.6295 280.869 42.4665 280.869Z" fill="#6F4E9D"/>
<path d="M534.375 83.0798C538.447 83.0798 541.747 79.8195 541.747 75.7977C541.747 71.7759 538.447 68.5156 534.375 68.5156C530.304 68.5156 527.004 71.7759 527.004 75.7977C527.004 79.8195 530.304 83.0798 534.375 83.0798Z" fill="#DF4C97"/>
<path d="M454.19 28.036C462.027 28.036 468.38 21.76 468.38 14.018C468.38 6.27608 462.027 0 454.19 0C446.353 0 440 6.27608 440 14.018C440 21.76 446.353 28.036 454.19 28.036Z" fill="#4FBEB8"/>
<path d="M432.719 164.928L432.736 164.94L432.754 164.951L489.598 198.184C490.411 199.019 490.866 200.137 490.866 201.302C490.866 202.466 490.411 203.584 489.599 204.419L433.429 236.656L433.424 236.659C432.762 237.048 431.898 237.528 431.017 237.899C430.122 238.275 429.273 238.51 428.621 238.471L428.591 238.469L428.561 238.471C427.91 238.51 427.061 238.275 426.165 237.899C425.284 237.528 424.421 237.048 423.758 236.659L423.754 236.656L367.527 204.373C366.728 203.54 366.281 202.432 366.281 201.279C366.281 200.125 366.728 199.016 367.528 198.183L424.37 164.951L424.388 164.94L424.405 164.928C425.56 164.118 426.906 163.62 428.312 163.482H428.812C430.218 163.62 431.564 164.118 432.719 164.928Z" fill="#EFEFEF" stroke="#EFEFEF"/>
<path d="M399.414 188.504L429.819 195.618C429.819 195.618 432.959 196.112 432.959 192.311V146.657C432.959 146.657 433.126 143.678 430.48 142.856C427.835 142.033 399.22 135.075 399.22 135.075L399.414 188.504Z" fill="#4FBEB8"/>
<path d="M398.547 188.429L368.142 195.543C368.142 195.543 365.002 196.037 365.002 192.236V146.582C365.002 146.582 364.835 143.603 367.481 142.78C370.126 141.958 398.741 135 398.741 135L398.547 188.429Z" fill="#4FBEB8"/>
<path d="M398.161 188.814L423.393 195.979C423.393 195.979 425.998 196.477 425.998 192.648V146.665C425.998 146.665 426.137 143.665 423.941 142.836C421.746 142.008 398 135 398 135L398.161 188.814Z" fill="#A7D9D6"/>
<path d="M396.839 188.814L371.607 195.979C371.607 195.979 369.002 196.477 369.002 192.648V146.665C369.002 146.665 368.863 143.665 371.059 142.836C373.254 142.008 397 135 397 135L396.839 188.814Z" fill="#A7D9D6"/>
<path d="M396 167L400 164.5L402.5 169L415.5 190.5L437 188.5H449L447.5 208L439 235L427.5 225.5V202.5L408.5 198.5L396 167Z" fill="#6F4E9D"/>
<path d="M446.313 172.699L450.825 181.445L464.874 184.316L455.73 168.877L446.313 172.699Z" fill="#CEA086"/>
<path d="M436.46 141.346V131.121H461.567V141.346H462.686V157.675H462.618C462.618 166.35 455.79 173.387 447.372 173.387C438.955 173.387 432.127 166.35 432.127 157.675V141.346H436.46Z" fill="#EEBEA3"/>
<path d="M438.827 235.063V196.681L411.387 193.608L398.064 165.116C398.064 165.116 399.782 163.963 402.799 165.971L415.796 185.241L441.784 179.463C441.784 179.463 465.361 169.564 472.437 197.703V215.563L438.827 235.063Z" fill="#9B82BE"/>
<path d="M454.781 132.195C454.781 132.195 453.79 138.325 449.03 139.76C444.27 141.196 432.366 140.58 432.17 147.942V156.318C432.17 156.318 426.811 155.226 427.341 152.777C427.871 150.32 428.666 148.418 426.282 146.921C423.897 145.423 419.009 139.699 421.522 136.017C424.034 132.336 427.606 121.028 435.408 125.792C443.21 130.566 445.458 126.611 446.646 125.114C447.834 123.617 452.465 122.798 454.85 128.249C454.85 128.249 458.815 124.022 463.575 130.02C468.334 136.017 463.31 140.104 467.01 142.693C470.71 145.283 474.949 148.145 473.359 150.734C471.77 153.323 467.676 154.143 468.728 157.956C469.779 161.77 462.113 162.183 462.113 162.183C462.113 162.183 462.908 159.321 462.506 153.729C462.113 148.136 461.447 144.869 458.934 141.187C456.422 137.506 454.713 136.141 454.781 132.195Z" fill="#16332F"/>
<path d="M462.002 160.537C460.148 160.537 458.644 158.987 458.644 157.075C458.644 155.164 460.148 153.614 462.002 153.614C463.857 153.614 465.361 155.164 465.361 157.075C465.361 158.987 463.857 160.537 462.002 160.537Z" fill="#EEBEA3"/>
<path d="M433.81 149.951C433.81 149.951 438.229 146.049 443.441 149.951V160.361C443.441 160.361 444.228 161.585 446.364 160.114V163.945C448.552 163.901 451.295 163.584 454.012 162.589C454.012 162.589 451.107 167.125 446.364 167.618V170.612C446.364 170.612 438.545 171.669 434.443 161.744C434.443 161.744 433.255 158.001 433.81 149.951Z" fill="#CEA086"/>
<path d="M390.724 157.525C390.835 156.635 391.561 156.6 391.561 156.6C391.271 154.979 392.142 154.469 392.142 154.469C392.142 154.944 392.458 155.561 392.458 155.561C392.382 152.918 395.031 152.672 395.031 152.672C394.125 153.667 394.116 154.909 394.116 154.909C395.595 151.122 397.594 152.593 397.594 152.593C394.655 154.838 396.022 158.881 397.825 158.132C399.637 157.384 397.244 155.842 397.423 154.548C397.603 153.253 398.517 154.495 400.218 156.529C401.918 158.573 401.072 161.021 400.602 162.589C400.406 163.258 400.637 164.06 400.961 164.773C399.423 164.65 397.697 164.967 396.304 166.402L395.843 164.597C391.348 162.518 390.613 158.414 390.724 157.525Z" fill="#EEBEA3"/>
<path d="M433.674 154.733C434.699 153.676 435.776 153.156 436.887 153.183C438.69 153.227 440.015 154.698 440.023 154.715L440.767 154.019C440.698 153.949 439.151 152.205 436.921 152.152C435.528 152.117 434.195 152.742 432.973 154.002L433.674 154.733Z" fill="#DF4C97"/>
<path d="M448.389 154.733C449.415 153.676 450.491 153.156 451.602 153.183C453.405 153.227 454.73 154.698 454.738 154.715L455.482 154.019C455.414 153.949 453.867 152.205 451.636 152.152C450.243 152.117 448.91 152.742 447.688 154.002L448.389 154.733Z" fill="#DF4C97"/>
<path d="M436.767 157.129C435.668 157.129 434.776 156.21 434.776 155.076C434.776 153.943 435.668 153.024 436.767 153.024C437.867 153.024 438.758 153.943 438.758 155.076C438.758 156.21 437.867 157.129 436.767 157.129Z" fill="#16332F"/>
<path d="M451.748 157.129C450.648 157.129 449.757 156.21 449.757 155.076C449.757 153.943 450.648 153.024 451.748 153.024C452.847 153.024 453.739 153.943 453.739 155.076C453.739 156.21 452.847 157.129 451.748 157.129Z" fill="#16332F"/>
<path d="M398.586 152.337L402.303 148.515L403.628 149.748L399.919 153.438L398.586 152.337Z" fill="#6F4E9D"/>
<path d="M454.944 150.232L455.448 149.343C452.884 147.793 450.739 147.881 449.389 148.224C447.911 148.603 447.039 149.36 447.005 149.395L447.654 150.179C447.774 150.074 450.645 147.643 454.944 150.232Z" fill="#CEA086"/>
</svg>
