<svg width="25" height="25" viewBox="0 0 25 25" fill="none" xmlns="http://www.w3.org/2000/svg">
<path d="M4.56485 0C2.03612 0 0 2.03612 0 4.56484V20.4351C0 22.9639 2.03612 25 4.56485 25H13.1664V15.2265H10.5821V11.7078H13.1664V8.70156C13.1664 6.33969 14.6934 4.17109 18.211 4.17109C19.6352 4.17109 20.6883 4.30782 20.6883 4.30782L20.6055 7.59376C20.6055 7.59376 19.5314 7.58361 18.3594 7.58361C17.0909 7.58361 16.8875 8.16806 16.8875 9.13831V11.7078H20.7063L20.5399 15.2266H16.8875V25H20.4352C22.9639 25 25 22.9639 25 20.4352V4.56487C25 2.03615 22.9639 2.5e-05 20.4352 2.5e-05H4.56483L4.56485 0Z" fill="white"/>
</svg>
