<svg width="396" height="386" viewBox="0 0 396 386" fill="none" xmlns="http://www.w3.org/2000/svg">
<path d="M194.793 169.992L194.811 170.004L194.831 170.016L359.907 266.51C362.459 269.106 363.889 272.596 363.889 276.232C363.889 279.868 362.459 283.357 359.908 285.953L196.715 379.659L196.71 379.662C194.768 380.807 192.216 382.225 189.6 383.322C186.969 384.426 184.341 385.176 182.228 385.048L182.197 385.046L182.165 385.048C180.061 385.176 177.437 384.426 174.808 383.322C172.195 382.225 169.642 380.807 167.7 379.662L167.695 379.659L4.50201 285.953C1.95103 283.357 0.521522 279.868 0.521522 276.232C0.521522 272.596 1.95157 269.106 4.50345 266.51L169.58 170.016L169.599 170.004L169.617 169.992C173.109 167.53 177.185 166.02 181.442 165.609H182.968C187.225 166.02 191.301 167.53 194.793 169.992Z" fill="#C3C3C3" stroke="#EFEFEF" stroke-width="1.04304"/>
<path d="M185.739 305.839C235.121 305.839 275.154 296.55 275.154 285.091C275.154 273.631 235.121 264.342 185.739 264.342C136.357 264.342 96.3242 273.631 96.3242 285.091C96.3242 296.55 136.357 305.839 185.739 305.839Z" fill="#A3A3A3"/>
<path d="M185.857 272.79C241.445 272.79 286.508 227.862 286.508 172.442C286.508 117.021 241.445 72.0942 185.857 72.0942C130.269 72.0942 85.2065 117.021 85.2065 172.442C85.2065 227.862 130.269 272.79 185.857 272.79Z" fill="#CFEFF9"/>
<path d="M335.584 86.8639L384.749 112.731C387.475 114.174 390.108 116.772 392.072 119.958C394.035 123.144 395.171 126.658 395.23 129.733L395.497 145.833C395.54 148.9 394.502 151.271 392.61 152.428C390.718 153.585 388.126 153.435 385.4 152.009L353.334 135.138L335.362 144.305L342.04 129.196L336.236 126.143C333.509 124.699 330.876 122.101 328.913 118.915C326.949 115.729 325.813 112.215 325.755 109.14L325.488 93.04C325.445 89.9732 326.482 87.6023 328.374 86.4451C330.266 85.2878 332.858 85.4384 335.584 86.8639Z" fill="#DF4C97"/>
<circle r="5" transform="matrix(-0.884988 -0.465615 0.0165799 0.999863 376.658 127.671)" fill="white"/>
<path d="M110.683 4.05583L68.1132 23.6809C65.7565 24.7794 63.5247 26.8529 61.9034 29.4504C60.2821 32.0479 59.4024 34.9591 59.4557 37.5509L59.7905 51.0539C59.8654 53.6357 60.8679 55.6793 62.5799 56.7401C64.2919 57.8009 66.5748 57.7931 68.9321 56.7184L96.656 43.9375L112.918 52.3741L106.376 39.4566L111.4 37.1405C113.758 36.0472 115.993 33.9742 117.616 31.3749C119.238 28.7756 120.116 25.8617 120.057 23.2706L119.722 9.76754C119.654 7.20065 118.667 5.16317 116.976 4.09462C115.285 3.02608 113.025 3.01213 110.683 4.05583Z" fill="#4FBEB8"/>
<circle r="7" transform="matrix(-0.908143 0.41866 0.0247811 0.999693 76.8165 37.9285)" fill="white"/>
<path d="M69.9035 238.185L40.3966 219.023C38.7629 217.97 37.1982 217.73 36.043 218.353C34.8878 218.976 34.2355 220.412 34.228 222.35V232.487C34.2355 234.434 34.8878 236.718 36.043 238.842C37.1982 240.965 38.7629 242.757 40.3966 243.826L59.613 256.306L70.6141 275.277L66.3501 260.681L69.8324 262.942C71.4673 264 73.0341 264.243 74.1901 263.619C75.3461 262.996 75.9972 261.556 76.001 259.615V249.477C75.9974 247.546 75.3561 245.28 74.2154 243.167C73.0746 241.054 71.526 239.265 69.9035 238.185Z" fill="#6F4E9D"/>
<circle r="5" transform="matrix(-0.838671 -0.544639 0 1 44.8066 235.277)" fill="white"/>
<path d="M281.153 141.753C281.153 141.753 268.018 142.496 267.595 148.849C267.171 155.202 268.476 157.838 265.086 160.44C261.697 163.042 259.104 167.199 256.85 167.537C254.596 167.875 251.223 167.165 247.478 169.784C243.733 172.403 237.733 173.518 233.92 178.013C230.107 182.507 225.311 178.756 228.683 187.356C232.056 195.957 231.683 199.691 237.682 203.425C243.682 207.159 241.072 203.425 244.461 209.406C247.851 215.387 247.461 218.378 245.953 223.227C244.444 228.077 249.715 217.246 244.461 228.094C239.208 238.941 237.343 238.231 238.835 244.534C239.885 248.459 242.442 251.815 245.953 253.877C245.953 253.877 304.066 213.596 281.153 141.753Z" fill="#4FBEB8"/>
<path d="M188.179 103.64C188.179 103.64 195.669 111.108 194.958 114.842C194.246 118.576 190.517 128.68 190.517 128.68C188.277 130.708 186.265 132.975 184.518 135.439C182.637 138.429 181.518 136.554 180.383 144.782C179.247 153.011 181.145 150.02 175.519 155.241C172.21 158.335 168.7 161.208 165.012 163.841L156.402 167.221C156.402 167.221 147.776 170.955 143.658 175.078C140.067 178.308 136.174 181.188 132.032 183.678L126.405 194.508L123.778 202.365C123.778 202.365 122.287 208.718 117.406 205.745C112.525 202.771 109.543 200.507 108.78 197.516C107.954 195.302 106.528 193.361 104.662 191.906L99.4079 188.527L85.4432 182.867C85.4432 182.867 74.9697 123.814 133.828 85.6956C133.828 85.6956 166.435 75.5578 170.553 85.6956C174.672 95.8335 172.062 99.5338 172.062 99.5338L175.807 101.021L184.806 102.524L188.179 103.64Z" fill="#4FBEB8"/>
<path d="M134.592 211.266C136.522 211.255 138.432 210.876 140.219 210.151C142.456 209.036 146.591 207.532 146.591 207.532L150.709 206.045C150.709 206.045 155.2 200.807 158.963 204.541C162.725 208.275 161.946 211.655 161.946 211.655L160.081 217.247C160.081 217.247 156.692 217.247 157.082 223.229C157.257 226.487 157.63 229.731 158.2 232.944L158.573 237.067L156.709 243.42L151.455 245.65L143.964 242.271L139.456 236.29L134.965 232.91L130.067 228.804C130.067 228.804 127.068 228.804 128.203 223.195L129.322 217.585C129.322 217.585 131.576 212.398 134.592 211.266Z" fill="#4FBEB8"/>
<path d="M188.179 173.519L190.433 176.899L196.433 172.049C196.433 172.049 199.398 168.974 195.094 169.583L190.806 170.174L188.179 173.519Z" fill="#4FBEB8"/>
<path d="M215.176 109.249C216.596 110.726 217.852 112.352 218.921 114.098H223.785L227.531 109.621C227.531 109.621 227.531 109.249 227.92 105.515L228.293 101.764C228.293 101.764 225.666 98.3847 222.294 99.5337C218.921 100.683 222.294 98.0299 218.904 100.649L215.515 103.268L215.176 109.249Z" fill="#4FBEB8"/>
<path d="M115.356 120.559C115.356 120.559 114.441 120.458 112.881 120.373V118.678C114.576 118.763 115.457 118.865 115.457 118.865L115.356 120.559Z" fill="#BC3B88"/>
<path d="M130.711 221.593L126.118 219.397L126.864 217.876L131.423 220.073L130.711 221.593ZM121.627 217.116L117.119 214.801L117.916 213.297L122.39 215.612L121.627 217.116ZM112.662 212.402C111.222 211.608 109.73 210.797 108.239 209.952L109.069 208.482C110.561 209.327 112.035 210.171 113.476 210.915L112.662 212.402ZM103.832 207.417C102.392 206.589 100.951 205.728 99.4939 204.832L100.375 203.396C101.816 204.275 103.273 205.086 104.697 205.964L103.832 207.417ZM95.1893 202.163C93.7657 201.267 92.3421 200.355 90.9355 199.408L91.8676 198.006C93.2686 198.93 94.6752 199.842 96.0875 200.743L95.1893 202.163ZM86.7155 196.553C85.3259 195.595 83.9531 194.615 82.5973 193.613L83.5972 192.261C84.9361 193.241 86.3088 194.221 87.6815 195.167L86.7155 196.553ZM78.5469 190.555C77.208 189.507 75.8861 188.443 74.5981 187.361L75.6997 186.06C76.9708 187.125 78.2588 188.189 79.5976 189.22L78.5469 190.555ZM70.7849 184.016C69.48 182.833 68.2598 181.65 67.1073 180.501L68.3106 179.319C69.4291 180.451 70.6494 181.616 71.9204 182.698L70.7849 184.016ZM63.6162 176.784C62.4637 175.449 61.3791 174.114 60.4131 172.813L61.7689 171.8C62.7179 173.067 63.7687 174.368 64.9042 175.669L63.6162 176.784ZM57.549 168.556C56.6694 167.082 55.8881 165.552 55.2102 163.977L56.7694 163.318C57.4134 164.826 58.1608 166.288 59.0065 167.694L57.549 168.556ZM53.6341 159.06C53.281 157.484 53.0992 155.875 53.0918 154.261V153.906H54.7865V154.244C54.7945 155.739 54.9592 157.228 55.278 158.688L53.6341 159.06ZM55.5153 149.091L54.6849 148.956L53.8714 148.685C54.3313 147.051 54.8974 145.448 55.5661 143.887L57.1083 144.563C56.4927 146.039 55.9664 147.551 55.5322 149.091H55.5153ZM59.464 140.237L58.0235 139.342C58.9462 137.89 59.9653 136.501 61.074 135.185L62.3621 136.3C61.3062 137.54 60.3433 138.856 59.481 140.237H59.464ZM65.8193 132.803L64.7008 131.535C65.9899 130.398 67.3545 129.348 68.7851 128.393L69.7342 129.795C68.369 130.71 67.0668 131.715 65.8363 132.803H65.8193ZM73.988 127.278L73.2084 125.74C74.7253 124.953 76.2807 124.243 77.869 123.611L78.513 125.165C76.9708 125.858 75.4116 126.551 74.005 127.278H73.988ZM83.1735 123.577L82.682 121.888C84.2751 121.414 85.936 120.975 87.6307 120.587L88.0036 122.276C86.354 122.67 84.7496 123.104 83.1905 123.577H83.1735ZM92.9014 121.364L92.6302 119.674C94.3249 119.404 96.0197 119.184 97.7144 119.015L97.8839 120.705C96.2231 120.891 94.5453 121.11 92.9183 121.364H92.9014ZM102.85 120.333V118.643C104.544 118.643 106.239 118.508 107.798 118.508L107.951 120.198H107.798C106.12 120.215 104.476 120.266 102.866 120.333H102.85Z" fill="#BC3B88"/>
<path d="M137.608 224.756L135.287 223.739L135.981 222.197L138.286 223.231L137.608 224.756Z" fill="#BC3B88"/>
<path d="M257.529 182.88C257.037 181.95 256.563 181.038 256.071 180.142L257.546 179.331C258.054 180.244 258.546 181.156 259.037 182.102L257.529 182.88ZM253.563 175.766C252.699 174.33 251.868 172.894 250.868 171.508L252.292 170.579C253.207 171.981 254.139 173.434 255.021 174.904L253.563 175.766ZM247.987 167.318C246.987 165.966 245.954 164.631 244.903 163.364L246.208 162.283C247.276 163.584 248.326 164.936 249.36 166.321L247.987 167.318ZM241.598 159.579C240.446 158.329 239.259 157.129 238.073 155.997L239.259 154.781C240.463 155.93 241.666 157.163 242.852 158.43L241.598 159.579ZM234.328 152.652C233.04 151.587 231.701 150.54 230.379 149.594L231.362 148.208C232.735 149.205 234.09 150.253 235.429 151.368L234.328 152.652ZM154.115 147.279L153.268 145.809C153.268 145.809 154.963 144.829 157.912 143.528L158.607 145.065C155.759 146.4 154.132 147.329 154.115 147.346V147.279ZM226.193 146.823C224.769 145.944 223.295 145.133 221.82 144.373L222.583 142.869C224.108 143.646 225.617 144.558 227.074 145.37L226.193 146.823ZM163.267 143.156L162.657 141.568C164.233 140.976 165.877 140.419 167.504 139.878L168.029 141.568C166.402 142.092 164.809 142.632 163.267 143.224V143.156ZM217.262 142.294C215.719 141.669 214.126 141.095 212.55 140.605L213.059 138.915C214.753 139.439 216.313 140.03 217.906 140.605L217.262 142.294ZM172.876 140.132L172.453 138.442C174.147 138.02 175.842 137.648 177.537 137.327L177.859 139.016C176.147 139.422 174.486 139.794 172.876 140.199V140.132ZM207.72 139.27C206.025 138.898 204.432 138.577 202.789 138.324L203.043 136.634C204.737 136.888 206.432 137.225 208.127 137.597L207.72 139.27ZM182.757 138.222L182.536 136.533C184.231 136.313 185.926 136.144 187.621 136.026L187.722 137.715C186.112 137.918 184.434 138.07 182.757 138.29V138.222ZM197.806 137.766C196.111 137.648 194.416 137.58 192.722 137.58V135.891C194.416 135.891 196.111 135.891 197.806 136.076V137.766Z" fill="#BC3B88"/>
<path d="M259.883 230.278L258.917 228.893C258.917 228.893 260.476 227.828 262.934 225.851L264.002 227.152C261.476 229.18 260.002 230.244 259.883 230.278ZM267.933 223.874L266.815 222.607C267.984 221.593 269.255 220.461 270.577 219.228L271.73 220.461C270.391 221.712 269.12 222.844 267.933 223.874ZM275.424 216.981L274.221 215.798C275.351 214.671 276.52 213.455 277.729 212.148L278.966 213.297C277.763 214.514 276.577 215.73 275.424 216.981ZM282.39 209.495L281.102 208.397C282.169 207.147 283.254 205.863 284.339 204.511L285.66 205.575C284.559 206.843 283.474 208.161 282.39 209.411V209.495ZM288.813 201.436L287.44 200.439C288.423 199.104 289.389 197.719 290.355 196.316L291.762 197.262C290.762 198.682 289.762 200.084 288.813 201.436ZM294.524 192.988L293.083 192.109C293.948 190.673 294.778 189.203 295.609 187.75L297.083 188.561C296.253 189.946 295.388 191.501 294.49 192.954L294.524 192.988ZM299.439 184.016L297.913 183.289C298.642 181.768 299.337 180.231 299.981 178.71L301.54 179.352C300.862 180.873 300.15 182.444 299.405 183.982L299.439 184.016ZM303.404 174.587L301.71 174.013C302.286 172.442 302.794 170.836 303.252 169.248L304.947 169.721C304.472 171.36 303.93 172.949 303.37 174.554L303.404 174.587ZM306.235 164.754L304.54 164.382C304.896 162.692 305.218 161.104 305.472 159.465L307.167 159.719C306.896 161.374 306.574 163.064 306.201 164.72L306.235 164.754ZM307.811 154.616L306.116 154.464C306.269 152.774 306.353 151.085 306.387 149.395H308.082C308.031 151.186 307.929 152.909 307.777 154.616H307.811ZM306.336 144.478C306.336 142.788 306.116 141.099 305.93 139.494L307.624 139.291C307.811 140.981 307.963 142.67 308.048 144.36L306.336 144.478ZM305.167 134.526C305.031 133.783 304.879 133.022 304.709 132.262C304.54 131.502 304.32 130.572 304.099 129.643L305.794 129.221C306.014 130.099 306.235 130.91 306.421 131.89C306.607 132.87 306.743 133.445 306.896 134.222L305.167 134.526ZM302.659 124.861C302.099 123.256 301.472 121.685 300.811 120.232L302.354 119.522C303.049 121.043 303.692 122.648 304.269 124.304L302.659 124.861ZM298.49 115.839C297.606 114.414 296.638 113.043 295.592 111.733L296.914 110.685C297.987 112.034 298.972 113.451 299.862 114.926L298.49 115.839ZM292.202 108.083C291.004 106.954 289.724 105.915 288.372 104.974L289.338 103.589C290.762 104.581 292.11 105.676 293.372 106.867L292.202 108.083ZM230.547 105.295L229.903 103.724C231.412 103.116 233.022 102.507 234.699 101.916L235.276 103.504C233.615 104.079 232.022 104.687 230.547 105.295ZM284.186 102.457C282.697 101.719 281.163 101.076 279.593 100.531L280.152 98.9423C281.791 99.4926 283.388 100.159 284.932 100.936L284.186 102.457ZM240.123 101.95L239.665 100.395C241.36 99.9054 243.055 99.4492 244.614 99.0605L245.02 100.75C243.343 101.021 241.699 101.46 240.072 101.95H240.123ZM249.834 99.5505L249.512 97.8609C251.206 97.5399 252.901 97.2695 254.596 97.0499L254.816 98.7395C253.223 98.9761 251.528 99.2295 249.834 99.5505ZM274.763 99.2295C273.135 98.8817 271.488 98.6222 269.832 98.4523L270.001 96.7626C271.709 96.945 273.406 97.2157 275.085 97.5737L274.763 99.2295ZM259.816 98.2833L259.697 96.5937C261.121 96.5937 262.527 96.4585 263.9 96.4585H264.849V98.1481H263.917C262.595 98.1481 261.222 98.1988 259.849 98.2833H259.816Z" fill="#BC3B88"/>
</svg>
