<svg width="166" height="160" viewBox="0 0 166 160" fill="none" xmlns="http://www.w3.org/2000/svg">
<circle cx="80" cy="80" r="80" fill="#BC3B88"/>
<path d="M94.5688 73.9385C94.5688 73.9385 144.975 68.6478 170.783 114.013V55.3767C170.783 55.3767 146.197 30.4183 104.405 48.3688C62.6136 66.3193 94.5688 73.9385 94.5688 73.9385Z" fill="#4FBEB8"/>
<path d="M142.997 70.6035L143.508 70.3868C142.088 67.2327 140.437 64.1881 138.567 61.2782C134.527 55.0539 130.576 51.5305 126.83 50.7969L126.724 51.3526C135.327 53.0198 142.919 70.4312 142.997 70.6035Z" fill="#2E938D"/>
<path d="M106.628 77.6229L128.508 70.9874C128.508 70.9874 129.469 61.223 121.489 59.4668C113.508 57.7107 102.927 74.2051 102.927 74.2051L106.628 77.6229Z" fill="#EEBEA3"/>
<path d="M111.285 75.6612L116.698 69.5146L122.845 71.971L111.285 75.6612Z" fill="#CEA086"/>
<path d="M83.2484 39.2705V26.1494H116.454V39.2705H117.943V60.2275H117.854C117.854 65.5764 115.73 70.7061 111.947 74.4883C108.165 78.2706 103.035 80.3954 97.6866 80.3954C92.3377 80.3954 87.2079 78.2706 83.4257 74.4883C79.6435 70.7061 77.5187 65.5764 77.5187 60.2275V39.2705H83.2484Z" fill="#EEBEA3"/>
<path d="M79.7421 50.3079C79.7421 50.3079 85.5885 45.3063 92.4797 50.3079V63.6457C92.4797 63.6457 93.5245 65.2129 96.3699 63.3345V68.2528C99.8124 68.209 103.226 67.62 106.484 66.5078C106.484 66.5078 102.639 72.332 96.3699 72.9655V76.8057C96.3699 76.8057 86.0331 78.1617 80.6035 65.4241C80.5757 65.4574 79.0085 60.6558 79.7421 50.3079Z" fill="#CEA086"/>
<path d="M78.8131 74.8249L78.7958 74.837L78.7777 74.8477L24.6892 106.569C23.927 107.358 23.5 108.413 23.5 109.511C23.5 110.609 23.9264 111.664 24.6878 112.452L78.1407 143.24L78.1465 143.243C78.7753 143.616 79.5961 144.074 80.4329 144.427C81.2841 144.786 82.0884 145.009 82.7033 144.974L82.7317 144.973L82.7601 144.974C83.375 145.009 84.1793 144.786 85.0313 144.427C85.869 144.074 86.6912 143.616 87.3233 143.243L87.3281 143.24L140.775 112.442C141.532 111.653 141.956 110.601 141.956 109.506C141.956 108.41 141.531 107.358 140.774 106.569L86.73 74.8476L86.7117 74.8369L86.6944 74.8246C85.6009 74.0513 84.3244 73.5773 82.9915 73.4492H82.5218C81.1871 73.5773 79.9087 74.0514 78.8131 74.8249Z" fill="#EFEFEF" stroke="#EFEFEF"/>
<path d="M170.572 97.4744L171 97.1187C156.384 79.574 144.241 73.0162 144.119 72.9551L143.858 73.4441C143.974 73.5108 156.034 80.0241 170.572 97.4744Z" fill="#2E938D"/>
<path d="M59.0628 118.998C59.0552 118.887 59.0552 118.776 59.0628 118.665V70.6431V66.9141C59.424 68.3979 61.119 68.9425 62.6917 69.137H65.6816V118.665V122.677C60.1909 123.011 59.2406 120.226 59.0739 119.115L59.0628 118.998Z" fill="#6F4E9D"/>
<path d="M117.038 63.9071C114.585 63.9071 112.597 61.9191 112.597 59.4667C112.597 57.0144 114.585 55.0264 117.038 55.0264C119.49 55.0264 121.478 57.0144 121.478 59.4667C121.478 61.9191 119.49 63.9071 117.038 63.9071Z" fill="#EEBEA3"/>
<path d="M79.5636 56.4544C80.9141 55.1039 82.3423 54.437 83.8095 54.4704C86.188 54.5204 87.9442 56.4155 87.9609 56.4321L88.939 55.5485C88.8556 55.454 86.8049 53.2199 83.8539 53.1477C82.0089 53.0977 80.2527 53.9035 78.63 55.5207L79.5636 56.4544Z" fill="#DF4C97"/>
<path d="M83.6599 59.522C82.2081 59.522 81.0313 58.3451 81.0313 56.8933C81.0313 55.4415 82.2081 54.2646 83.6599 54.2646C85.1117 54.2646 86.2886 55.4415 86.2886 56.8933C86.2886 58.3451 85.1117 59.522 83.6599 59.522Z" fill="#16332F"/>
<path d="M107.479 27.5226C107.479 27.5226 106.167 35.3919 99.8708 37.2314C93.5742 39.0709 77.8301 38.2817 77.5633 47.7293V58.4885C77.5633 58.4885 70.4832 57.088 71.1834 53.937C71.8836 50.7859 72.9284 48.3407 69.7829 46.4178C66.6374 44.4949 60.1575 37.1425 63.4808 32.4187C66.8042 27.6949 71.528 13.1844 81.8536 19.3031C92.1793 25.4219 95.147 20.3535 96.7197 18.4306C98.2925 16.5078 104.406 15.4574 107.568 22.4542C107.568 22.4542 112.814 17.0302 119.116 24.7272C125.418 32.4242 118.766 37.676 123.662 40.9993C128.558 44.3226 134.16 47.9961 132.059 51.3194C129.959 54.6428 124.54 55.6931 125.946 60.5892C127.352 65.4853 117.188 66.0132 117.188 66.0132C117.188 66.0132 118.238 62.3398 117.716 55.1707C117.193 48.0017 116.315 43.7947 112.992 39.0542C109.669 34.3137 107.396 32.6021 107.479 27.5226Z" fill="#16332F"/>
<path d="M135.821 64.5957C135.821 64.5957 127.485 64.8402 123.089 77.1332C118.693 89.4263 110.796 105.654 110.796 105.654L90.3896 99.2573L86.4549 106.882C86.4549 106.882 111.041 123.599 119.41 119.914C127.78 116.23 144.48 82.5406 144.48 82.5406C144.48 82.5406 151.499 66.0684 135.821 64.5957Z" fill="#EEBEA3"/>
<path d="M137.594 80.5742L117.432 113.769L119.411 119.915C119.411 119.915 122.362 123.6 142.279 87.2153L137.594 80.5742Z" fill="#CEA086"/>
<path d="M99.0314 56.4544C100.382 55.1039 101.81 54.437 103.277 54.4704C105.656 54.5204 107.412 56.4155 107.429 56.4321L108.407 55.5485C108.323 55.454 106.273 53.2199 103.322 53.1477C101.477 53.0977 99.7149 53.9035 98.0977 55.5207L99.0314 56.4544Z" fill="#DF4C97"/>
<path d="M103.471 59.522C102.02 59.522 100.843 58.3451 100.843 56.8933C100.843 55.4415 102.02 54.2646 103.471 54.2646C104.923 54.2646 106.1 55.4415 106.1 56.8933C106.1 58.3451 104.923 59.522 103.471 59.522Z" fill="#16332F"/>
<path d="M54.6163 50.7635L58.6732 50.5801L62.6079 66.3131L94.5686 73.9379L95.5522 81.0681L56.956 72.2151L54.6163 50.7635Z" fill="#16332F"/>
<path d="M65.6648 122.504L96.0694 129.618C96.0694 129.618 99.2093 130.112 99.2093 126.311V80.6569C99.2093 80.6569 99.3761 77.6781 96.7307 76.8556C94.0854 76.0331 65.4702 69.0752 65.4702 69.0752L65.6648 122.504Z" fill="#16332F"/>
<path d="M59.0454 66.9188L54.5995 50.7634C54.5995 50.7634 52.3765 47.5678 52.1431 52.2416C51.9097 56.9154 52.1431 100.919 52.1431 100.919L59.0454 119.114V66.9188Z" fill="#16332F"/>
</svg>
