<svg width="457" height="338" viewBox="0 0 457 338" fill="none" xmlns="http://www.w3.org/2000/svg">
<path d="M344.5 337.284C346.985 337.284 349 335.269 349 332.784C349 330.299 346.985 328.284 344.5 328.284C342.015 328.284 340 330.299 340 332.784C340 335.269 342.015 337.284 344.5 337.284Z" fill="#EFEFEF"/>
<path d="M409.373 267.681C409.373 271.965 405.855 275.451 401.5 275.451C397.145 275.451 393.627 271.965 393.627 267.681C393.627 263.397 397.145 259.911 401.5 259.911C405.855 259.911 409.373 263.397 409.373 267.681Z" fill="#EFEFEF" stroke="#EFEFEF" stroke-width="1.25404"/>
<path d="M7.47441 246.163C11.6024 246.163 14.9488 242.857 14.9488 238.779C14.9488 234.701 11.6024 231.395 7.47441 231.395C3.34641 231.395 0 234.701 0 238.779C0 242.857 3.34641 246.163 7.47441 246.163Z" fill="#DF4C97"/>
<path d="M61.225 170.498C61.225 178.037 55.0364 184.16 47.3882 184.16C39.74 184.16 33.5514 178.037 33.5514 170.498C33.5514 162.959 39.74 156.836 47.3882 156.836C55.0364 156.836 61.225 162.959 61.225 170.498Z" fill="#EFEFEF" stroke="#EFEFEF" stroke-width="1.10273"/>
<path d="M378.474 77.0517C382.602 77.0517 385.949 73.7459 385.949 69.6679C385.949 65.59 382.602 62.2842 378.474 62.2842C374.346 62.2842 371 65.59 371 69.6679C371 73.7459 374.346 77.0517 378.474 77.0517Z" fill="#4FBEB8"/>
<path d="M325.388 28.7116C333.335 28.7116 339.776 22.3479 339.776 14.4979C339.776 6.64788 333.335 0.28418 325.388 0.28418C317.442 0.28418 311 6.64788 311 14.4979C311 22.3479 317.442 28.7116 325.388 28.7116Z" fill="#6F4E9D"/>
</svg>
