<svg width="616" height="641" viewBox="0 0 616 641" fill="none" xmlns="http://www.w3.org/2000/svg">
<path d="M612.531 463.719L483.733 388.418C480.945 386.457 477.692 385.258 474.295 384.939C474.093 384.926 473.889 384.926 473.687 384.939C473.48 384.926 473.273 384.926 473.066 384.939C469.67 385.26 466.417 386.459 463.628 388.418L334.83 463.719C332.741 465.824 331.569 468.665 331.569 471.626C331.569 474.587 332.741 477.429 334.83 479.533L462.161 552.647C465.201 554.439 470.197 557.115 473.687 556.904C477.177 557.115 482.173 554.439 485.2 552.647L612.531 479.533C614.62 477.429 615.792 474.587 615.792 471.626C615.792 468.665 614.62 465.824 612.531 463.719Z" fill="#DF4C97"/>
<path d="M394.576 530.692L436.266 554.611C436.266 554.611 439.677 556.047 436.914 557.879C434.151 559.711 419.347 568.329 419.347 568.329C418.414 568.91 417.327 569.196 416.228 569.151C415.13 569.107 414.07 568.733 413.187 568.079C409.658 565.852 371.629 544.161 371.629 544.161C371.629 544.161 368.748 542.592 371.365 540.892C373.982 539.192 389.989 530.35 389.989 530.35C389.989 530.35 391.034 528.861 394.576 530.692Z" fill="#45286D"/>
<path d="M393.558 528.043L435.249 551.962C435.249 551.962 438.646 553.398 435.896 555.23C433.147 557.062 418.329 565.68 418.329 565.68C417.396 566.261 416.309 566.547 415.211 566.502C414.112 566.458 413.052 566.084 412.17 565.43C408.627 563.203 370.612 541.511 370.612 541.511C370.612 541.511 367.73 539.943 370.347 538.243C372.964 536.543 388.958 527.7 388.958 527.7C388.958 527.7 390.016 526.211 393.558 528.043Z" fill="#6F4E9D"/>
<path d="M370.598 565.667L412.262 589.585C412.262 589.585 415.672 591.035 412.923 592.854C410.174 594.672 395.356 603.317 395.356 603.317C394.42 603.897 393.33 604.181 392.229 604.134C391.128 604.087 390.067 603.711 389.183 603.054C385.654 600.827 347.625 579.135 347.625 579.135C347.625 579.135 344.744 577.567 347.374 575.867C350.004 574.167 365.985 565.324 365.985 565.324C365.985 565.324 367.056 563.848 370.598 565.667Z" fill="#2E938D"/>
<path d="M369.58 563.018L411.27 586.937C411.27 586.937 414.681 588.373 411.918 590.205C409.155 592.037 394.351 600.669 394.351 600.669C393.417 601.249 392.329 601.534 391.23 601.487C390.131 601.44 389.072 601.063 388.191 600.405C384.649 598.178 346.633 576.486 346.633 576.486C346.633 576.486 343.752 574.918 346.369 573.218C348.986 571.518 364.993 562.676 364.993 562.676C364.993 562.676 365.998 561.2 369.58 563.018Z" fill="#4FBEB8"/>
<path d="M345.458 601.816L387.148 625.735C387.148 625.735 390.558 627.171 387.795 629.003C385.033 630.835 370.228 639.467 370.228 639.467C369.293 640.043 368.206 640.326 367.108 640.279C366.01 640.232 364.951 639.857 364.069 639.203C360.526 636.976 322.511 615.284 322.511 615.284C322.511 615.284 319.629 613.716 322.246 612.016C324.864 610.316 340.871 601.473 340.871 601.473C340.871 601.473 341.915 599.984 345.458 601.816Z" fill="#A3A3A3"/>
<path d="M321.493 612.635L321.751 612.182L321.743 612.177C321.743 612.177 321.743 612.177 321.743 612.177L321.743 612.177L321.742 612.177L321.742 612.177L321.74 612.176L321.723 612.166C321.707 612.157 321.683 612.142 321.651 612.122C321.588 612.083 321.498 612.023 321.398 611.947C321.192 611.791 320.966 611.585 320.816 611.354C320.669 611.128 320.62 610.923 320.671 610.723C320.724 610.512 320.917 610.19 321.512 609.804C322.803 608.966 327.435 606.341 331.77 603.913C333.932 602.702 336.013 601.543 337.553 600.688C338.323 600.26 338.958 599.908 339.4 599.663L339.912 599.38L340.046 599.306L340.08 599.287L340.089 599.282L340.091 599.281L340.092 599.28C340.092 599.28 340.092 599.28 339.84 598.824L340.092 599.28L340.197 599.222L340.259 599.134C340.261 599.132 340.264 599.128 340.268 599.124C340.284 599.107 340.315 599.078 340.364 599.042C340.46 598.972 340.633 598.875 340.908 598.819C341.457 598.708 342.477 598.747 344.177 599.625L385.857 623.538L385.885 623.554L385.913 623.566L385.913 623.566L385.914 623.566L385.914 623.566L385.914 623.566L385.918 623.568L385.94 623.577C385.96 623.586 385.99 623.6 386.029 623.619C386.107 623.657 386.217 623.714 386.341 623.788C386.597 623.938 386.882 624.141 387.084 624.374C387.285 624.606 387.35 624.805 387.32 624.982C387.288 625.171 387.121 625.498 386.488 625.919C385.129 626.825 380.753 629.432 376.698 631.823C374.675 633.016 372.737 634.152 371.305 634.99C370.589 635.408 370 635.753 369.59 635.992L369.115 636.269L368.99 636.342L368.959 636.36L368.951 636.365L368.948 636.366L368.948 636.366C368.948 636.366 368.948 636.366 369.21 636.817L368.948 636.366L368.937 636.373C368.09 636.895 367.106 637.151 366.112 637.109C365.118 637.066 364.16 636.727 363.361 636.135L363.345 636.123L363.328 636.112C361.545 634.991 351.141 629.003 341.203 623.307C336.229 620.456 331.366 617.675 327.747 615.606C325.937 614.572 324.438 613.716 323.392 613.118L322.179 612.426L321.86 612.244L321.779 612.198L321.758 612.186L321.753 612.183L321.752 612.182C321.751 612.182 321.751 612.182 321.493 612.635Z" fill="#EFEFEF" stroke="#EFEFEF" stroke-width="1.04304"/>
<path d="M510.427 415.027V489.959C511.72 490.001 512.993 489.632 514.062 488.905C516.375 487.587 562.348 461.033 562.348 461.033C562.348 461.033 563.471 460.493 563.67 457.752L563.577 382.806L510.427 415.027Z" fill="#EFEFEF"/>
<path d="M510.947 490.294V415.362L497.253 396.28L476.249 384.946L457.823 383.404V460.003L468.332 466.494L510.947 490.294Z" fill="#EFEFEF"/>
<path d="M562.387 380.17L514.233 352.008C513.195 351.263 511.977 350.809 510.704 350.69H510.241C508.968 350.809 507.75 351.263 506.712 352.008L458.558 380.17C457.772 380.958 457.331 382.024 457.331 383.135C457.331 384.246 457.772 385.312 458.558 386.1L506.144 413.432C507.342 414.457 508.868 415.02 510.446 415.02C512.024 415.02 513.551 414.457 514.749 413.432L562.334 386.1C563.127 385.319 563.578 384.257 563.588 383.146C563.598 382.035 563.166 380.965 562.387 380.17Z" fill="#4FBEB8"/>
<path d="M516.15 433.938V442.241L522.046 439.065V430.419L516.15 433.938Z" fill="#16332F"/>
<path d="M522.693 430.143V438.722L528.589 435.599V426.624L522.693 430.143Z" fill="#16332F"/>
<path d="M516.15 424.871V433.174L522.046 429.681V421.353L516.15 424.871Z" fill="#16332F"/>
<path d="M522.693 421.076V429.378L528.589 425.886V417.557L522.693 421.076Z" fill="#16332F"/>
<path d="M532.911 424.937V433.24L538.793 430.064V421.405L532.911 424.937Z" fill="#16332F"/>
<path d="M539.454 421.142V429.721L545.336 426.598V417.61L539.454 421.142Z" fill="#16332F"/>
<path d="M532.911 415.87V424.173L538.793 420.68V412.352L532.911 415.87Z" fill="#16332F"/>
<path d="M539.454 412.075V420.378L545.336 416.885V408.543L539.454 412.075Z" fill="#16332F"/>
<path d="M547.954 416.713V425.016L553.849 421.853V413.195L547.954 416.713Z" fill="#16332F"/>
<path d="M554.496 412.918V421.511L560.391 418.374V409.4L554.496 412.918Z" fill="#16332F"/>
<path d="M547.954 407.647V415.949L553.849 412.457V404.128L547.954 407.647Z" fill="#16332F"/>
<path d="M554.496 403.852V412.154L560.391 408.662V400.333L554.496 403.852Z" fill="#16332F"/>
<path d="M516.15 445.376L560.193 421.839V419.691L516.124 443.175L516.15 445.376Z" fill="#16332F"/>
<path d="M516.15 462.376V470.679L522.046 467.516V458.858L516.15 462.376Z" fill="#16332F"/>
<path d="M522.693 458.582V467.174L528.589 464.037V455.063L522.693 458.582Z" fill="#16332F"/>
<path d="M516.15 453.31V461.625L522.046 458.12V449.791L516.15 453.31Z" fill="#16332F"/>
<path d="M522.693 449.514V457.83L528.589 454.324V445.996L522.693 449.514Z" fill="#16332F"/>
<path d="M532.911 453.376V461.678L538.793 458.515V449.857L532.911 453.376Z" fill="#16332F"/>
<path d="M539.454 449.58V458.172L545.336 455.036V446.062L539.454 449.58Z" fill="#16332F"/>
<path d="M532.911 444.309V452.611L538.793 449.119V440.791L532.911 444.309Z" fill="#16332F"/>
<path d="M539.454 440.514V448.817L545.336 445.324V436.996L539.454 440.514Z" fill="#16332F"/>
<path d="M547.954 445.152V453.468L553.849 450.292V441.634L547.954 445.152Z" fill="#16332F"/>
<path d="M554.496 441.357V449.949L560.391 446.813V437.838L554.496 441.357Z" fill="#16332F"/>
<path d="M547.954 436.086V444.401L553.849 440.896V432.567L547.954 436.086Z" fill="#16332F"/>
<path d="M554.496 432.291V440.606L560.391 437.101V428.772L554.496 432.291Z" fill="#16332F"/>
<path d="M516.15 473.816L560.193 450.279V448.131L516.124 471.628L516.15 473.816Z" fill="#16332F"/>
<path d="M481.836 438.485C477.5 436.956 473.984 439.262 474.116 443.044V469.796L486.541 476.847V448.012C486.541 448.012 487.4 440.435 481.836 438.485Z" fill="#16332F"/>
<path d="M503.554 463.88V472.182L497.672 468.69V460.361L503.554 463.88Z" fill="#16332F"/>
<path d="M497.01 460.084V468.386L491.128 464.894V456.565L497.01 460.084Z" fill="#16332F"/>
<path d="M503.554 454.813V463.115L497.672 459.623V451.294L503.554 454.813Z" fill="#16332F"/>
<path d="M497.01 451.017V459.32L491.128 455.827V447.499L497.01 451.017Z" fill="#16332F"/>
<path d="M471.949 447.63V455.946L466.066 452.441V444.112L471.949 447.63Z" fill="#16332F"/>
<path d="M465.405 443.835V452.15L459.523 448.645V440.316L465.405 443.835Z" fill="#16332F"/>
<path d="M471.949 438.564V446.88L466.066 443.387V435.045L471.949 438.564Z" fill="#16332F"/>
<path d="M465.405 434.769V443.084L459.523 439.579V431.25L465.405 434.769Z" fill="#16332F"/>
<path d="M480.765 462.035V473.711L484.823 476.004V464.499L480.765 462.035Z" fill="#16332F"/>
<path d="M475.808 459.148V470.824L479.866 473.117V461.613L475.808 459.148Z" fill="#16332F"/>
<path d="M503.554 433.148V441.463L497.672 438.287V429.629L503.554 433.148Z" fill="#16332F"/>
<path d="M497.01 429.352V437.944L491.128 434.808V425.833L497.01 429.352Z" fill="#16332F"/>
<path d="M503.554 424.081V432.396L497.672 428.904V420.562L503.554 424.081Z" fill="#16332F"/>
<path d="M497.01 420.285V428.601L491.128 425.108V416.767L497.01 420.285Z" fill="#16332F"/>
<path d="M486.806 424.147V432.462L480.91 429.286V420.628L486.806 424.147Z" fill="#16332F"/>
<path d="M480.263 420.351V428.944L474.381 425.807V416.833L480.263 420.351Z" fill="#16332F"/>
<path d="M486.806 415.08V423.396L480.91 419.89V411.562L486.806 415.08Z" fill="#16332F"/>
<path d="M480.263 411.284V419.6L474.381 416.094V407.766L480.263 411.284Z" fill="#16332F"/>
<path d="M471.75 415.923V424.239L465.868 421.063V412.405L471.75 415.923Z" fill="#16332F"/>
<path d="M465.207 412.128V420.72L459.325 417.584V408.609L465.207 412.128Z" fill="#16332F"/>
<path d="M471.75 406.87V415.172L465.868 411.68V403.338L471.75 406.87Z" fill="#16332F"/>
<path d="M465.207 403.074V411.377L459.325 407.884V399.542L465.207 403.074Z" fill="#16332F"/>
<path d="M503.553 444.586L459.523 421.05V418.915L503.593 442.399L503.553 444.586Z" fill="#16332F"/>
<path d="M406.094 451.934L405.219 453.323L509.608 511.002L510.483 509.613L406.094 451.934Z" fill="#F6ACCC"/>
<path d="M379.419 469.778L378.543 471.167L482.933 528.846L483.808 527.457L379.419 469.778Z" fill="#F6ACCC"/>
<path d="M433.288 311.997C433.398 311.778 433.566 311.593 433.775 311.464C433.984 311.335 434.225 311.267 434.471 311.267C434.717 311.267 434.958 311.335 435.167 311.464C435.376 311.593 435.545 311.778 435.654 311.997V387.878C435.648 388.01 435.608 388.139 435.538 388.251C435.469 388.364 435.373 388.458 435.258 388.524C435.356 388.582 435.441 388.661 435.507 388.754C435.573 388.847 435.618 388.953 435.641 389.064V439.854C435.641 440.341 435.112 440.724 434.451 440.724C433.79 440.724 433.248 440.341 433.248 439.854V389.038C433.271 388.926 433.317 388.82 433.383 388.727C433.449 388.634 433.534 388.556 433.632 388.498C433.517 388.432 433.42 388.338 433.351 388.225C433.282 388.112 433.242 387.984 433.235 387.852V311.997H433.288Z" fill="#16332F"/>
<path d="M435.224 311.997L449.315 326.046H477.906V311.813L435.224 311.997Z" fill="#4FBEB8"/>
<circle cx="441.241" cy="326.631" r="4.29742" fill="#FCBB15"/>
<path d="M435.224 340.146L449.315 326.098H477.906V340.317L435.224 340.146Z" fill="#DF4C97"/>
<path d="M571.837 475.679V491.433C572.091 491.44 572.341 491.362 572.549 491.211C573.019 490.936 582.278 485.346 582.278 485.346C582.278 485.346 582.506 485.235 582.541 484.657V468.903L571.837 475.679Z" fill="#EFEFEF"/>
<path d="M568.43 472.033L571.315 475.819V490.57L562.565 485.971L560.464 484.517V469.467L563.924 469.742L568.43 472.033Z" fill="#EFEFEF" stroke="#EFEFEF" stroke-width="1.04304"/>
<path d="M582.291 467.769L572.05 462.055C571.829 461.904 571.569 461.813 571.298 461.791C571.281 461.787 571.263 461.787 571.246 461.791C571.228 461.787 571.21 461.787 571.193 461.791C570.922 461.813 570.662 461.904 570.441 462.055L560.2 467.769C560.035 467.929 559.943 468.145 559.943 468.369C559.943 468.593 560.035 468.809 560.2 468.969L570.321 474.504C570.575 474.716 570.901 474.832 571.238 474.832C571.576 474.832 571.902 474.716 572.155 474.504L582.276 468.969C582.443 468.811 582.539 468.596 582.541 468.372C582.544 468.148 582.454 467.931 582.291 467.769Z" fill="#A7D9D6"/>
<path d="M552.805 486.345V502.106C553.059 502.111 553.309 502.034 553.518 501.884C553.981 501.617 563.246 496.027 563.246 496.027C563.246 496.027 563.475 495.909 563.51 495.338V479.576L552.805 486.345Z" fill="#EFEFEF"/>
<path d="M549.686 482.684L552.284 486.472V501.198L544.509 496.656L542.622 495.204V480.145L545.656 480.406L549.686 482.684Z" fill="#EFEFEF" stroke="#EFEFEF" stroke-width="1.04304"/>
<path d="M563.266 478.44L553.568 472.725C553.357 472.577 553.112 472.486 552.856 472.46H552.763C552.506 472.485 552.261 472.576 552.05 472.725L542.345 478.44C542.189 478.6 542.101 478.815 542.101 479.04C542.101 479.264 542.189 479.479 542.345 479.64L551.936 485.183C552.196 485.359 552.494 485.47 552.806 485.505C553.117 485.471 553.416 485.36 553.675 485.183L563.266 479.64C563.423 479.479 563.51 479.264 563.51 479.04C563.51 478.815 563.423 478.6 563.266 478.44Z" fill="#A7D9D6"/>
<path d="M249.597 146.685L249.615 146.698L249.634 146.709L392.01 229.934C394.194 232.159 395.417 235.148 395.417 238.262C395.417 241.376 394.194 244.365 392.011 246.59L251.26 327.409L251.255 327.412C249.581 328.399 247.383 329.62 245.131 330.565C242.864 331.516 240.61 332.157 238.805 332.048L238.773 332.046L238.742 332.048C236.944 332.157 234.694 331.516 232.428 330.565C230.178 329.62 227.98 328.399 226.306 327.412L226.301 327.409L85.5498 246.59C83.367 244.365 82.144 241.376 82.144 238.262C82.144 235.148 83.3675 232.159 85.5512 229.934L227.927 146.709L227.946 146.698L227.964 146.685C230.965 144.569 234.468 143.271 238.126 142.918H239.435C243.094 143.271 246.596 144.569 249.597 146.685Z" fill="#EFEFEF" stroke="#EFEFEF" stroke-width="1.04304"/>
<path d="M329.871 302.008L283.767 328.517C283.767 328.517 279.996 330.106 283.036 332.131C286.077 334.157 302.463 343.703 302.463 343.703C303.498 344.339 304.7 344.651 305.914 344.599C307.128 344.547 308.299 344.133 309.275 343.411C313.193 340.89 355.233 316.858 355.233 316.858C355.233 316.858 358.435 315.124 355.526 313.244C352.617 311.364 334.944 301.585 334.944 301.585C334.944 301.585 333.789 299.982 329.871 302.008Z" fill="#BC3B88"/>
<path d="M330.996 299.078L284.892 325.602C284.892 325.602 281.12 327.191 284.176 329.216C287.231 331.242 303.603 340.788 303.603 340.788C304.637 341.426 305.839 341.739 307.053 341.687C308.268 341.635 309.439 341.22 310.414 340.497C314.332 338.034 356.373 314.045 356.373 314.045C356.373 314.045 359.559 312.311 356.665 310.431C353.771 308.551 336.069 298.772 336.069 298.772C336.069 298.772 334.914 297.052 330.996 299.078Z" fill="#DF4C97"/>
<path d="M356.388 340.701L310.269 367.152C310.269 367.152 306.497 368.74 309.538 370.766C312.578 372.792 328.965 382.323 328.965 382.323C329.998 382.965 331.201 383.28 332.416 383.228C333.632 383.176 334.803 382.759 335.777 382.032C339.694 379.583 381.735 355.58 381.735 355.58C381.735 355.58 384.922 353.846 382.027 351.966C379.133 350.086 361.446 340.307 361.446 340.307C361.446 340.307 360.291 338.718 356.388 340.701Z" fill="#45286D"/>
<path d="M357.513 337.772L311.409 364.223C311.409 364.223 307.637 365.812 310.678 367.823C313.718 369.834 330.105 379.394 330.105 379.394C331.141 380.035 332.346 380.35 333.563 380.298C334.781 380.246 335.955 379.829 336.931 379.103C340.834 376.64 382.89 352.651 382.89 352.651C382.89 352.651 386.076 350.917 383.167 349.037C380.258 347.157 362.586 337.378 362.586 337.378C362.586 337.378 361.431 335.804 357.513 337.772Z" fill="#6F4E9D"/>
<path d="M384.191 380.663L338.043 407.114C338.043 407.114 334.271 408.717 337.312 410.728C340.352 412.739 356.739 422.299 356.739 422.299C357.774 422.94 358.979 423.255 360.197 423.203C361.415 423.151 362.588 422.735 363.565 422.008C367.468 419.545 409.523 395.557 409.523 395.557C409.523 395.557 412.71 393.823 409.801 391.943C406.892 390.063 389.219 380.284 389.219 380.284C389.219 380.284 388.108 378.651 384.191 380.663Z" fill="#2E938D"/>
<path d="M385.316 377.733L339.212 404.184C339.212 404.184 335.441 405.773 338.496 407.799C341.551 409.824 357.923 419.37 357.923 419.37C358.955 420.012 360.158 420.327 361.374 420.275C362.589 420.223 363.761 419.806 364.735 419.079C368.652 416.616 410.693 392.642 410.693 392.642C410.693 392.642 413.879 390.908 410.985 389.028C408.091 387.148 390.389 377.369 390.389 377.369C390.389 377.369 389.205 375.722 385.316 377.733Z" fill="#4FBEB8"/>
<path d="M351.578 361.512C351.578 361.512 354.297 364.587 350.804 366.132C347.31 367.677 346.418 365.564 343.656 364.398C340.893 363.232 336.888 360.026 339.022 358.044C341.156 356.062 351.578 361.512 351.578 361.512Z" fill="#A7D9D6"/>
<path d="M358.507 325.02C358.507 325.02 340.966 333.501 340.732 342.231C340.498 350.961 346.14 362.284 346.14 362.284C346.14 362.284 346.652 363.829 351.549 361.512C351.549 361.512 345.117 344.811 351.037 340.949C354.902 338.545 359.187 336.889 363.667 336.066L362.205 327.701L358.507 325.02Z" fill="#16332F"/>
<path d="M354.736 260.837C354.736 260.837 351.462 265.851 350.877 269.13C350.877 269.13 347.778 272.788 349.517 273.75L351.257 274.712C351.257 274.712 350.687 280.118 354.356 281.08L356.095 284.738L363.404 283.004L361.285 276.256L363.989 266.813L354.736 260.837Z" fill="#EEBEA3"/>
<path d="M352.485 307.546C352.485 307.546 348.626 317.31 343.977 319.759C343.977 319.759 343.202 321.683 339.723 318.855C336.244 316.028 330.441 301.367 330.441 301.367C330.441 301.367 327.62 299.181 328.263 297.257C328.906 295.333 329.798 292.623 330.573 292.885L331.611 293.905C331.611 293.905 332.254 292.623 333.16 293.657C333.723 294.286 334.213 294.975 334.622 295.712C334.868 296.51 334.927 297.354 334.792 298.178C334.658 299.002 334.334 299.784 333.847 300.463L341.96 311.772L345.19 304.966L352.485 307.546Z" fill="#EEBEA3"/>
<path d="M379.425 291.617C379.425 291.617 385.345 293.54 384.453 296.747C383.562 299.953 373.622 310.504 373.622 310.504L371.941 306.263L376.326 296.747L379.425 291.617Z" fill="#EEBEA3"/>
<path d="M374.777 319.365C374.777 319.365 378.139 334.405 366.927 336.707C366.927 336.707 362.352 344.417 365.626 357.912C367.88 366.271 373.014 373.572 380.127 378.534C380.127 378.534 376.063 376.989 373.754 382.906C373.754 382.906 359.443 367.677 355.379 356.12C351.315 344.563 353.07 325.515 353.07 325.515L374.777 319.365Z" fill="#1E4742"/>
<path d="M382.261 289.037C382.261 289.037 373.622 279.914 368.988 280.045C364.354 280.176 355.584 280.686 350.804 285.189C346.024 289.693 340.571 303.042 340.571 303.042C340.571 303.042 343.67 308.697 349.722 309.6C349.552 311.54 349.099 313.445 348.377 315.255C347.941 320.214 347.14 325.133 345.98 329.975C345.696 331.158 345.98 330.489 347.18 331.686C347.71 332.214 348.377 332.7 349.517 332.7C349.517 332.7 366.927 333.21 379.557 328.197C377.385 324.175 376.024 319.769 375.552 315.226C375.172 308.668 374.397 298.656 374.397 298.656H376.458C376.458 298.656 383.357 297.14 382.261 289.037Z" fill="#A7D9D6"/>
<path d="M380.127 378.534C380.127 378.534 381.355 378.082 381.165 380.983C380.975 383.883 379.221 384.83 379.031 388.882C378.841 392.933 378.841 393.254 375.362 394.857C371.883 396.46 369.515 396.402 370.728 393.501C371.941 390.601 373.754 382.965 373.754 382.965C373.754 382.965 376.195 376.479 380.127 378.534Z" fill="#A7D9D6"/>
<path d="M370.728 393.501C370.728 393.501 368.214 392.35 370.333 388.488C371.351 386.574 372.494 384.729 373.754 382.964C373.754 382.964 371.663 390.616 370.728 393.501Z" fill="#A7D9D6"/>
<path d="M241.829 263.795C284.423 263.795 318.952 255.783 318.952 245.899C318.952 236.015 284.423 228.002 241.829 228.002C199.235 228.002 164.705 236.015 164.705 245.899C164.705 255.783 199.235 263.795 241.829 263.795Z" fill="#C3C3C3"/>
<path d="M241.93 235.289C289.877 235.289 328.745 196.538 328.745 148.736C328.745 100.934 289.877 62.1826 241.93 62.1826C193.984 62.1826 155.116 100.934 155.116 148.736C155.116 196.538 193.984 235.289 241.93 235.289Z" fill="#CFEFF9"/>
<path d="M371.075 74.922L413.481 97.2329C415.833 98.4778 418.103 100.719 419.797 103.467C421.491 106.215 422.47 109.246 422.521 111.898L422.751 125.785C422.788 128.43 421.893 130.475 420.262 131.473C418.63 132.471 416.394 132.342 414.043 131.112L386.384 116.56L370.883 124.467L376.643 111.435L371.637 108.801C369.285 107.556 367.014 105.315 365.32 102.567C363.626 99.8195 362.647 96.7883 362.596 94.1359L362.366 80.2491C362.329 77.6039 363.224 75.5589 364.856 74.5607C366.488 73.5626 368.723 73.6925 371.075 74.922Z" fill="#DF4C97"/>
<circle r="4.49335" transform="matrix(-0.884988 -0.465614 0.0165799 0.999863 405.94 110.373)" fill="white"/>
<path d="M177.09 3.49778L140.372 20.4251C138.339 21.3725 136.414 23.161 135.016 25.4014C133.618 27.6419 132.859 30.1529 132.905 32.3884L133.193 44.0352C133.258 46.2621 134.123 48.0248 135.599 48.9398C137.076 49.8548 139.045 49.848 141.078 48.921L164.991 37.8971L179.018 45.174L173.375 34.0322L177.708 32.0345C179.743 31.0915 181.67 29.3034 183.07 27.0614C184.469 24.8194 185.226 22.3061 185.176 20.0712L184.887 8.42433C184.827 6.2103 183.977 4.4529 182.518 3.53124C181.06 2.60958 179.11 2.59756 177.09 3.49778Z" fill="#4FBEB8"/>
<circle r="5.98673" transform="matrix(-0.908143 0.41866 0.0247811 0.999693 148.094 32.6539)" fill="white"/>
<path d="M141.917 205.445L116.466 188.917C115.057 188.009 113.707 187.802 112.711 188.339C111.715 188.877 111.152 190.115 111.146 191.786V200.531C111.152 202.21 111.715 204.18 112.711 206.011C113.707 207.843 115.057 209.388 116.466 210.311L133.041 221.075L142.53 237.438L138.852 224.848L141.855 226.799C143.266 227.711 144.617 227.921 145.614 227.383C146.611 226.845 147.173 225.603 147.176 223.929V215.185C147.173 213.519 146.62 211.564 145.636 209.742C144.652 207.92 143.316 206.376 141.917 205.445Z" fill="#6F4E9D"/>
<circle r="4.49335" transform="matrix(-0.838671 -0.544639 0 1 120.189 203.024)" fill="white"/>
<path d="M324.126 122.27C324.126 122.27 312.797 122.911 312.432 128.39C312.066 133.87 313.192 136.144 310.268 138.388C307.345 140.632 305.108 144.218 303.164 144.509C301.22 144.8 298.311 144.188 295.081 146.447C291.85 148.706 286.675 149.668 283.386 153.545C280.097 157.421 275.961 154.186 278.87 161.604C281.778 169.022 281.457 172.243 286.632 175.464C291.806 178.684 289.555 175.464 292.479 180.623C295.402 185.782 295.066 188.361 293.765 192.544C292.464 196.727 297.01 187.385 292.479 196.741C287.947 206.098 286.339 205.485 287.626 210.921C288.532 214.307 290.737 217.202 293.765 218.981C293.765 218.981 343.889 184.237 324.126 122.27Z" fill="#4FBEB8"/>
<path d="M243.933 89.3919C243.933 89.3919 250.394 95.8335 249.78 99.0543C249.166 102.275 245.95 110.99 245.95 110.99C244.018 112.74 242.283 114.694 240.776 116.82C239.153 119.399 238.188 117.782 237.209 124.879C236.23 131.976 237.867 129.397 233.014 133.9C230.16 136.569 227.132 139.047 223.951 141.318L216.525 144.233C216.525 144.233 209.084 147.454 205.532 151.01C202.435 153.796 199.077 156.28 195.505 158.428L190.651 167.769L188.386 174.546C188.386 174.546 187.099 180.026 182.889 177.461C178.68 174.896 176.107 172.943 175.449 170.363C174.736 168.454 173.507 166.779 171.897 165.525L167.365 162.61L155.32 157.728C155.32 157.728 146.287 106.793 197.054 73.9146C197.054 73.9146 225.179 65.1704 228.731 73.9146C232.283 82.6589 230.032 85.8505 230.032 85.8505L233.262 87.133L241.024 88.4301L243.933 89.3919Z" fill="#4FBEB8"/>
<path d="M197.712 182.227C199.377 182.217 201.024 181.891 202.565 181.265C204.495 180.303 208.062 179.006 208.062 179.006L211.614 177.723C211.614 177.723 215.488 173.206 218.733 176.426C221.978 179.647 221.305 182.562 221.305 182.562L219.697 187.386C219.697 187.386 216.774 187.386 217.11 192.545C217.261 195.355 217.583 198.154 218.075 200.925L218.397 204.481L216.789 209.961L212.257 211.884L205.796 208.97L201.908 203.81L198.034 200.896L193.809 197.354C193.809 197.354 191.222 197.354 192.201 192.516L193.166 187.677C193.166 187.677 195.11 183.203 197.712 182.227Z" fill="#4FBEB8"/>
<path d="M243.934 149.669L245.878 152.584L251.052 148.401C251.052 148.401 253.611 145.749 249.898 146.273L246.199 146.783L243.934 149.669Z" fill="#4FBEB8"/>
<path d="M267.219 94.2305C268.444 95.5047 269.527 96.9071 270.45 98.4132H274.645L277.876 94.5511C277.876 94.5511 277.876 94.2305 278.212 91.0097L278.533 87.7743C278.533 87.7743 276.268 84.8595 273.359 85.8505C270.45 86.8416 273.359 84.5535 270.435 86.8124L267.512 89.0714L267.219 94.2305Z" fill="#4FBEB8"/>
<path d="M181.121 103.985C181.121 103.985 180.331 103.898 178.986 103.825V102.363C180.448 102.436 181.208 102.524 181.208 102.524L181.121 103.985Z" fill="#BC3B88"/>
<path d="M194.365 191.131L190.404 189.236L191.047 187.925L194.979 189.819L194.365 191.131ZM186.53 187.269L182.642 185.272L183.329 183.975L187.188 185.972L186.53 187.269ZM178.797 183.203C177.555 182.518 176.268 181.818 174.982 181.089L175.698 179.822C176.984 180.55 178.256 181.279 179.499 181.92L178.797 183.203ZM171.181 178.903C169.939 178.189 168.696 177.446 167.439 176.674L168.199 175.435C169.442 176.193 170.699 176.892 171.927 177.65L171.181 178.903ZM163.726 174.371C162.498 173.599 161.27 172.812 160.057 171.995L160.861 170.786C162.069 171.582 163.283 172.369 164.501 173.147L163.726 174.371ZM156.417 169.532C155.219 168.707 154.035 167.861 152.865 166.997L153.728 165.831C154.882 166.676 156.066 167.521 157.25 168.337L156.417 169.532ZM149.372 164.359C148.217 163.455 147.077 162.537 145.966 161.604L146.916 160.482C148.012 161.4 149.123 162.318 150.278 163.207L149.372 164.359ZM142.677 158.719C141.551 157.699 140.499 156.678 139.505 155.687L140.542 154.667C141.507 155.644 142.56 156.649 143.656 157.582L142.677 158.719ZM136.493 152.481C135.499 151.33 134.564 150.179 133.731 149.056L134.9 148.182C135.719 149.275 136.625 150.397 137.604 151.519L136.493 152.481ZM131.26 145.384C130.501 144.113 129.828 142.793 129.243 141.434L130.588 140.866C131.143 142.167 131.788 143.428 132.517 144.64L131.26 145.384ZM127.883 137.193C127.579 135.834 127.422 134.447 127.416 133.054V132.748H128.877V133.04C128.884 134.329 129.026 135.613 129.301 136.873L127.883 137.193ZM129.506 128.595L128.79 128.478L128.088 128.245C128.485 126.835 128.973 125.453 129.55 124.106L130.88 124.689C130.349 125.963 129.895 127.267 129.521 128.595H129.506ZM132.912 120.958L131.669 120.186C132.465 118.934 133.344 117.736 134.301 116.601L135.412 117.562C134.501 118.632 133.67 119.767 132.927 120.958H132.912ZM138.394 114.546L137.429 113.453C138.541 112.471 139.718 111.566 140.952 110.742L141.77 111.952C140.593 112.74 139.47 113.607 138.408 114.546H138.394ZM145.439 109.78L144.767 108.454C146.075 107.775 147.417 107.162 148.787 106.618L149.342 107.958C148.012 108.556 146.667 109.153 145.454 109.78H145.439ZM153.362 106.588L152.938 105.131C154.312 104.723 155.745 104.344 157.207 104.009L157.528 105.466C156.105 105.806 154.722 106.18 153.377 106.588H153.362ZM161.753 104.679L161.519 103.222C162.981 102.989 164.442 102.799 165.904 102.654L166.05 104.111C164.618 104.271 163.171 104.461 161.767 104.679H161.753ZM170.333 103.79V102.333C171.795 102.333 173.257 102.216 174.602 102.216L174.733 103.674H174.602C173.155 103.688 171.737 103.732 170.348 103.79H170.333Z" fill="#BC3B88"/>
<path d="M200.314 193.863L198.312 192.985L198.911 191.655L200.899 192.547L200.314 193.863Z" fill="#BC3B88"/>
<path d="M303.749 157.742C303.325 156.941 302.916 156.154 302.492 155.381L303.764 154.682C304.202 155.469 304.626 156.256 305.05 157.072L303.749 157.742ZM300.329 151.607C299.583 150.368 298.867 149.129 298.005 147.934L299.232 147.133C300.022 148.342 300.826 149.596 301.586 150.864L300.329 151.607ZM295.52 144.32C294.657 143.154 293.765 142.003 292.859 140.91L293.985 139.977C294.906 141.099 295.812 142.265 296.704 143.46L295.52 144.32ZM290.009 137.645C289.015 136.567 287.991 135.532 286.968 134.556L287.991 133.506C289.029 134.497 290.067 135.561 291.09 136.654L290.009 137.645ZM283.738 131.67C282.627 130.752 281.472 129.848 280.332 129.032L281.18 127.837C282.364 128.697 283.533 129.601 284.688 130.562L283.738 131.67ZM214.552 127.036L213.821 125.768C213.821 125.768 215.283 124.922 217.826 123.8L218.426 125.126C215.97 126.278 214.566 127.079 214.552 127.094V127.036ZM276.721 126.642C275.493 125.884 274.221 125.185 272.95 124.529L273.608 123.232C274.923 123.902 276.224 124.689 277.481 125.389L276.721 126.642ZM222.445 123.48L221.919 122.11C223.279 121.6 224.697 121.119 226.1 120.652L226.553 122.11C225.15 122.561 223.776 123.028 222.445 123.538V123.48ZM269.018 122.736C267.687 122.197 266.313 121.702 264.954 121.279L265.392 119.822C266.854 120.273 268.199 120.783 269.573 121.279L269.018 122.736ZM230.734 120.871L230.368 119.414C231.83 119.049 233.292 118.729 234.754 118.452L235.031 119.909C233.555 120.259 232.122 120.579 230.734 120.929V120.871ZM260.788 120.128C259.326 119.807 257.952 119.53 256.534 119.311L256.753 117.854C258.215 118.073 259.677 118.364 261.139 118.685L260.788 120.128ZM239.256 119.224L239.066 117.767C240.528 117.577 241.989 117.431 243.451 117.329L243.539 118.787C242.15 118.962 240.703 119.093 239.256 119.282V119.224ZM252.236 118.831C250.775 118.729 249.313 118.67 247.851 118.67V117.213C249.313 117.213 250.775 117.213 252.236 117.373V118.831Z" fill="#BC3B88"/>
<path d="M305.781 198.622L304.948 197.427C304.948 197.427 306.292 196.508 308.412 194.803L309.333 195.926C307.155 197.674 305.883 198.592 305.781 198.622ZM312.724 193.098L311.759 192.005C312.768 191.131 313.864 190.154 315.005 189.09L315.999 190.154C314.844 191.233 313.747 192.209 312.724 193.098ZM319.185 187.152L318.147 186.132C319.122 185.16 320.131 184.111 321.173 182.984L322.24 183.975C321.203 185.024 320.179 186.074 319.185 187.152ZM325.193 180.696L324.082 179.749C325.003 178.67 325.939 177.563 326.874 176.397L328.014 177.315C327.064 178.408 326.129 179.545 325.193 180.623V180.696ZM330.733 173.744L329.549 172.884C330.397 171.733 331.23 170.538 332.064 169.328L333.277 170.145C332.414 171.369 331.552 172.578 330.733 173.744ZM335.659 166.457L334.417 165.7C335.162 164.461 335.879 163.193 336.595 161.94L337.867 162.639C337.15 163.834 336.405 165.175 335.63 166.428L335.659 166.457ZM339.899 158.719L338.583 158.092C339.212 156.78 339.811 155.454 340.366 154.143L341.711 154.696C341.127 156.008 340.513 157.363 339.869 158.69L339.899 158.719ZM343.319 150.587L341.857 150.091C342.354 148.736 342.793 147.351 343.188 145.981L344.649 146.389C344.24 147.803 343.772 149.173 343.29 150.558L343.319 150.587ZM345.76 142.105L344.299 141.784C344.606 140.327 344.883 138.957 345.103 137.543L346.564 137.762C346.33 139.19 346.053 140.647 345.731 142.076L345.76 142.105ZM347.12 133.361L345.658 133.229C345.79 131.772 345.863 130.315 345.892 128.857H347.354C347.31 130.402 347.222 131.889 347.091 133.361H347.12ZM345.848 124.616C345.848 123.159 345.658 121.702 345.497 120.317L346.959 120.142C347.12 121.6 347.251 123.057 347.324 124.514L345.848 124.616ZM344.839 116.032C344.722 115.391 344.591 114.735 344.445 114.079C344.299 113.424 344.109 112.622 343.919 111.821L345.38 111.456C345.57 112.214 345.76 112.914 345.921 113.759C346.082 114.604 346.199 115.1 346.33 115.77L344.839 116.032ZM342.676 107.696C342.194 106.312 341.653 104.956 341.083 103.703L342.413 103.091C343.012 104.403 343.568 105.787 344.065 107.215L342.676 107.696ZM339.08 99.9138C338.318 98.685 337.483 97.5024 336.58 96.3724L337.721 95.4688C338.646 96.6325 339.496 97.8544 340.264 99.1268L339.08 99.9138ZM333.657 93.2245C332.623 92.2507 331.519 91.3544 330.353 90.5429L331.186 89.3479C332.414 90.2036 333.577 91.1486 334.665 92.1752L333.657 93.2245ZM280.477 90.8198L279.922 89.4645C281.223 88.9398 282.612 88.4152 284.059 87.9051L284.556 89.275C283.123 89.7705 281.749 90.2952 280.477 90.8198ZM326.743 88.3714C325.458 87.7354 324.135 87.1805 322.781 86.71L323.264 85.3401C324.677 85.8148 326.055 86.3895 327.386 87.0598L326.743 88.3714ZM288.736 87.9342L288.342 86.5934C289.804 86.1708 291.265 85.7773 292.61 85.4421L292.961 86.8995C291.514 87.1327 290.096 87.5116 288.693 87.9342H288.736ZM297.112 85.8647L296.835 84.4074C298.296 84.1305 299.758 83.8973 301.22 83.7078L301.41 85.1652C300.036 85.3692 298.574 85.5878 297.112 85.8647ZM318.615 85.5878C317.21 85.2878 315.79 85.064 314.361 84.9175L314.508 83.4601C315.981 83.6174 317.444 83.8509 318.893 84.1596L318.615 85.5878ZM305.722 84.7717L305.62 83.3143C306.848 83.3143 308.061 83.1978 309.245 83.1978H310.064V84.6551H309.26C308.12 84.6551 306.936 84.6989 305.752 84.7717H305.722Z" fill="#BC3B88"/>
<path d="M369.632 263.212C369.632 263.212 374.017 268.357 370.918 271.957C367.819 275.557 367.044 276.067 366.533 277.349C366.354 277.834 366.075 278.276 365.714 278.647C365.354 279.019 364.919 279.31 364.439 279.504C363.958 279.697 363.442 279.789 362.924 279.771C362.406 279.754 361.898 279.629 361.431 279.404C358.595 278.122 355.511 277.859 354.999 273.239C354.666 270.538 355.303 267.807 356.797 265.53C356.797 265.53 352.938 264.247 351.389 261.93C349.839 259.613 353.187 255.765 358.858 256.8C364.53 257.835 369.632 263.212 369.632 263.212Z" fill="#16332F"/>
<path d="M204.018 428.851L110.492 374.181C108.469 372.755 106.106 371.881 103.639 371.646C103.495 371.646 103.341 371.646 103.188 371.646C103.034 371.646 102.881 371.646 102.746 371.646C100.279 371.881 97.9168 372.755 95.8932 374.181L2.36782 428.851C0.850879 430.379 0 432.442 0 434.592C0 436.743 0.850879 438.806 2.36782 440.334L94.8182 493.453C97.0162 494.755 100.654 496.697 103.178 496.544C105.712 496.697 109.34 494.755 111.548 493.453L204.008 440.363C205.535 438.835 206.393 436.766 206.395 434.609C206.397 432.452 205.542 430.382 204.018 428.851Z" fill="#6F4E9D"/>
<path d="M53.6319 422.468L132.769 376.535C134.689 375.492 136.321 374.114 136.321 372.162V310.44C136.321 308.526 136.839 304.928 132.769 306.89L53.6319 352.564C51.5491 353.779 50.0805 355.435 50.0805 357.425V418.918C50.0805 420.87 49.8982 424.631 53.6319 422.468Z" fill="#4FBEB8"/>
<path opacity="0.3" d="M78.4284 447.425L157.566 401.492C159.486 400.449 161.117 399.061 161.117 397.109V335.397C161.117 333.483 161.636 329.894 157.566 331.846L78.4284 377.521C76.336 378.736 74.8675 380.44 74.8675 382.382V443.884C74.8675 445.827 74.6947 449.588 78.4284 447.425Z" fill="#6F4E9D"/>
<path d="M73.0782 361.263C72.6793 361.522 72.2195 361.674 71.744 361.703C71.5756 361.715 71.4071 361.682 71.2554 361.608C71.1037 361.534 70.9743 361.422 70.8802 361.282C70.6569 360.917 70.5529 360.493 70.5826 360.067C70.581 359.533 70.682 359.003 70.8802 358.507C71.0886 357.997 71.3805 357.524 71.744 357.11C72.1264 356.681 72.5772 356.319 73.0782 356.038C73.3796 355.864 73.7021 355.728 74.038 355.636C74.2847 355.558 74.5497 355.558 74.7963 355.636L74.4987 356.478C74.2676 356.43 74.0292 356.43 73.7981 356.478C73.5423 356.538 73.2966 356.635 73.0686 356.765C72.5909 357.037 72.1936 357.43 71.9168 357.904C71.6426 358.395 71.5035 358.95 71.5137 359.512C71.5137 360.114 71.648 360.469 71.9168 360.669C72.1855 360.87 72.5791 360.784 73.0686 360.497C73.3336 360.35 73.5787 360.17 73.7981 359.961C74.0547 359.714 74.2891 359.445 74.4987 359.158L74.7963 359.655C74.5849 359.984 74.3298 360.284 74.038 360.545C73.7464 360.82 73.4244 361.061 73.0782 361.263Z" fill="white"/>
<path d="M75.8422 359.627V354.526L79.2879 352.612V353.33L76.754 354.765V356.191L79.1439 354.832V355.56L76.754 356.919V358.421L79.2879 356.986V357.703L75.8422 359.627Z" fill="white"/>
<path d="M80.3057 357.091V351.99L82.5133 350.737C82.9002 350.46 83.3725 350.328 83.8474 350.364C84.145 350.45 84.2986 350.718 84.2986 351.196C84.2869 351.678 84.1222 352.144 83.8283 352.526C83.4837 352.998 83.0377 353.387 82.5229 353.665L83.0988 353.225C83.2387 353.128 83.4099 353.087 83.5787 353.11C83.654 353.13 83.7237 353.167 83.782 353.219C83.8403 353.27 83.8858 353.335 83.9146 353.407L84.5481 354.67L83.5883 355.234L82.9452 353.914C82.9255 353.856 82.8858 353.807 82.833 353.775C82.7802 353.743 82.7179 353.732 82.6573 353.742C82.493 353.765 82.3359 353.824 82.1965 353.914L81.2367 354.45V356.565L80.3057 357.091ZM81.2655 353.732L82.4365 353.072C82.7363 352.917 83.0009 352.702 83.214 352.44C83.3725 352.234 83.4601 351.982 83.4635 351.723C83.4635 351.455 83.3771 351.311 83.214 351.282C82.9337 351.283 82.6611 351.374 82.4365 351.541L81.2655 352.201V353.732Z" fill="white"/>
<path d="M86.6113 353.502V349.177L84.9316 350.134V349.378L89.222 346.947V347.655L87.552 348.612V352.938L86.6113 353.502Z" fill="white"/>
<path d="M90.0188 351.55V346.478L90.9787 345.952V351.014L90.0188 351.55Z" fill="white"/>
<path d="M92.246 350.287V345.224L95.6149 343.311V344.038L93.1578 345.435V346.822L95.471 345.511V346.248L93.1578 347.559V349.76L92.246 350.287Z" fill="white"/>
<path d="M96.5361 347.837V342.785L97.4959 342.258V347.311L96.5361 347.837Z" fill="white"/>
<path d="M101.086 345.301C100.685 345.559 100.227 345.713 99.7514 345.751C99.5839 345.764 99.416 345.732 99.2644 345.66C99.1128 345.588 98.9829 345.477 98.8876 345.339C98.6668 344.977 98.5629 344.557 98.59 344.134C98.5941 343.609 98.6949 343.09 98.8876 342.603C99.0961 342.096 99.3881 341.627 99.7514 341.215C100.136 340.792 100.587 340.434 101.086 340.153C101.385 339.972 101.708 339.834 102.045 339.742C102.296 339.668 102.563 339.668 102.813 339.742L102.506 340.584C102.278 340.536 102.043 340.536 101.815 340.584C101.557 340.642 101.311 340.742 101.086 340.88C100.604 341.142 100.203 341.529 99.9242 342C99.6508 342.488 99.5117 343.039 99.5211 343.598C99.5211 344.191 99.6554 344.555 99.9242 344.737C100.193 344.918 100.586 344.842 101.086 344.564C101.347 344.408 101.592 344.225 101.815 344.019C102.066 343.773 102.297 343.507 102.506 343.225L102.813 343.722C102.595 344.044 102.337 344.336 102.045 344.593C101.753 344.864 101.431 345.102 101.086 345.301Z" fill="white"/>
<path d="M104.147 343.502L103.188 344.038L105.52 337.684L106.278 337.253L108.601 340.957L107.641 341.483L105.722 338.239L105.981 338.095L104.147 343.502ZM104.234 342.277L104.589 341.368L107.209 339.875L107.555 340.382L104.234 342.277Z" fill="white"/>
<path d="M109.906 340.22V335.942L108.236 336.899V336.172L112.527 333.732V334.478L110.847 335.435V339.703L109.906 340.22Z" fill="white"/>
<path d="M113.333 338.277V333.301L116.779 331.387V332.104L114.245 333.54V334.927L116.625 333.578V334.258L114.245 335.607V337.09L116.779 335.645V336.363L113.333 338.277Z" fill="white"/>
<path d="M65.8411 372.794C65.4534 373.046 65.0071 373.194 64.5453 373.225C64.3791 373.232 64.2139 373.196 64.0659 373.121C63.9178 373.045 63.7919 372.933 63.7006 372.794C63.4772 372.426 63.3732 371.998 63.4031 371.569C63.4005 371.032 63.5015 370.499 63.7006 370C63.8977 369.491 64.1837 369.021 64.5453 368.612C64.914 368.188 65.3521 367.829 65.8411 367.55C66.2362 367.299 66.6884 367.151 67.156 367.119C67.3213 367.111 67.4859 367.145 67.6339 367.219C67.7819 367.293 67.9082 367.404 68.0007 367.54C68.2207 367.91 68.3244 368.337 68.2982 368.765C68.2952 369.302 68.1944 369.834 68.0007 370.335C67.5831 371.376 66.8211 372.244 65.8411 372.794ZM65.8411 372.057C66.3203 371.799 66.7164 371.411 66.9833 370.938C67.2666 370.436 67.4092 369.867 67.396 369.292C67.396 368.679 67.2616 368.335 66.9833 368.124C66.7049 367.914 66.3498 368.019 65.8699 368.287C65.4075 368.55 65.0259 368.934 64.7661 369.397C64.4902 369.894 64.3512 370.455 64.3629 371.024C64.3629 371.646 64.4973 372.038 64.7661 372.21C64.9429 372.281 65.1354 372.304 65.3242 372.277C65.5129 372.251 65.6912 372.175 65.8411 372.057Z" fill="white"/>
<path d="M69.4115 370.689V365.569L72.7805 363.655V364.402L70.3329 365.837V367.244L72.6365 365.923V366.67L70.3329 367.981V370.21L69.4115 370.689Z" fill="white"/>
<path d="M78.1845 365.723C77.7831 365.977 77.3247 366.129 76.8503 366.163C76.6828 366.176 76.5149 366.145 76.3633 366.073C76.2117 366 76.0818 365.89 75.9865 365.752C75.7632 365.387 75.6592 364.962 75.6889 364.536C75.6864 364.005 75.7874 363.479 75.9865 362.986C76.1903 362.473 76.4827 362 76.8503 361.589C77.2324 361.157 77.6832 360.792 78.1845 360.507C78.482 360.325 78.8057 360.19 79.1443 360.105C79.3911 360.027 79.6559 360.027 79.9026 360.105L79.6051 360.947C79.374 360.899 79.1355 360.899 78.9044 360.947C78.646 360.999 78.3989 361.096 78.1749 361.235C77.6953 361.504 77.2974 361.897 77.0231 362.373C76.7489 362.864 76.6098 363.419 76.62 363.981C76.62 364.584 76.7544 364.938 77.0231 365.139C77.2919 365.34 77.6854 365.244 78.1749 364.957C78.4423 364.81 78.6878 364.627 78.9044 364.412C79.1633 364.167 79.3979 363.898 79.6051 363.608L79.9026 364.115C79.6885 364.44 79.4336 364.736 79.1443 364.996C78.8504 365.27 78.5288 365.514 78.1845 365.723Z" fill="white"/>
<path d="M83.1371 362.88C82.7466 363.133 82.2969 363.282 81.8317 363.31C81.6674 363.32 81.5034 363.287 81.3554 363.215C81.2075 363.143 81.0807 363.034 80.9871 362.899C80.7682 362.529 80.6646 362.103 80.6896 361.674C80.6927 361.14 80.7935 360.612 80.9871 360.114C81.1903 359.611 81.4757 359.146 81.8317 358.736C82.2065 358.317 82.6474 357.961 83.1371 357.683C83.5264 357.426 83.9764 357.274 84.4424 357.243C84.6068 357.234 84.7708 357.267 84.9187 357.339C85.0667 357.411 85.1935 357.52 85.2871 357.655C85.5104 358.019 85.6144 358.444 85.5846 358.87C85.5872 359.404 85.4862 359.934 85.2871 360.43C85.0868 360.937 84.8012 361.406 84.4424 361.817C84.0723 362.244 83.6306 362.604 83.1371 362.88ZM83.1371 362.152C83.6067 361.897 83.9956 361.516 84.2601 361.052C84.5334 360.554 84.6723 359.993 84.6632 359.425C84.6632 358.813 84.5288 358.468 84.2601 358.267C83.9913 358.066 83.617 358.162 83.1467 358.43C82.6841 358.688 82.3022 359.069 82.0429 359.53C81.7655 360.027 81.6232 360.588 81.6302 361.157C81.6302 361.77 81.7742 362.114 82.0429 362.325C82.3117 362.535 82.6668 362.42 83.1371 362.152Z" fill="white"/>
<path d="M86.7172 360.775V355.694L87.4658 355.273L89.3855 358.526L89.0303 358.727L90.95 353.254L91.689 352.833V357.904L90.854 358.373V354.632L91.094 354.545L89.5294 359.139L88.9152 359.493L87.2739 356.737L87.533 356.526V360.277L86.7172 360.775Z" fill="white"/>
<path d="M93.0042 357.167V352.105L95.2406 350.822C95.6195 350.554 96.0833 350.431 96.5459 350.478C96.8435 350.564 96.9971 350.842 96.9971 351.291C96.9863 351.775 96.8253 352.243 96.5363 352.631C96.1932 353.101 95.7508 353.489 95.2406 353.77L93.9448 354.516V356.631L93.0042 357.167ZM93.964 353.808L95.1542 353.129C95.4414 352.975 95.6932 352.763 95.8933 352.507C96.0429 352.304 96.1266 352.06 96.1332 351.808C96.1332 351.559 96.0468 351.416 95.8933 351.377C95.6278 351.368 95.3669 351.449 95.1542 351.607L93.964 352.287V353.808Z" fill="white"/>
<path d="M97.9854 354.354V349.301L98.9452 348.765V353.062L101.345 351.693V352.44L97.9854 354.354Z" fill="white"/>
<path d="M102.19 351.904V346.86L105.635 344.889V345.607L103.102 347.052V348.459L105.491 347.09V347.808L103.102 349.176V350.66L105.635 349.215V349.923L102.19 351.904Z" fill="white"/>
<path d="M107.872 348.612V344.325L106.192 345.282V344.526L110.492 342.076V342.87L108.812 343.827V348.105L107.872 348.612Z" fill="white"/>
<path d="M111.289 346.698V341.675L112.249 341.139V346.163L111.289 346.698Z" fill="white"/>
<path d="M115.79 344.162C115.397 344.412 114.949 344.563 114.485 344.603C114.321 344.613 114.158 344.582 114.01 344.511C113.862 344.441 113.735 344.334 113.64 344.201C113.422 343.841 113.318 343.424 113.343 343.005C113.345 342.477 113.446 341.955 113.64 341.464C113.841 340.963 114.127 340.5 114.485 340.096C114.862 339.679 115.303 339.324 115.79 339.043C116.183 338.793 116.631 338.642 117.096 338.603C117.261 338.591 117.426 338.621 117.576 338.692C117.725 338.762 117.854 338.87 117.95 339.005C118.166 339.361 118.266 339.776 118.238 340.191C118.24 340.719 118.139 341.243 117.94 341.732C117.739 342.236 117.453 342.702 117.096 343.11C116.722 343.531 116.281 343.887 115.79 344.162ZM115.79 343.445C116.255 343.182 116.64 342.798 116.904 342.335C117.178 341.844 117.317 341.289 117.307 340.727C117.307 340.124 117.172 339.77 116.904 339.588C116.719 339.519 116.519 339.498 116.324 339.528C116.129 339.558 115.945 339.638 115.79 339.761C115.328 340.019 114.946 340.4 114.686 340.861C114.412 341.349 114.273 341.9 114.283 342.459C114.283 343.065 114.418 343.448 114.686 343.607C114.974 343.77 115.32 343.713 115.79 343.445Z" fill="white"/>
<path d="M119.351 342.067V337.062L120.052 336.67L123.018 338.708L122.816 338.918V335.091L123.699 334.583V339.579L122.989 339.981L120.042 337.942L120.234 337.722V341.55L119.351 342.067Z" fill="white"/>
<path d="M125.982 348.395L60.6848 386.163L61.1665 386.991L126.464 349.223L125.982 348.395Z" fill="white"/>
<path d="M144.151 372.98L149.232 364.472L142.726 365.501L145.767 356.693L139.165 360.314L138.889 352.606L133.581 359.516L130.371 353.949L127.012 361.472L122.344 359.06L121.004 365.621L113.532 369.503L115.632 373.94L108.23 381.473L112.604 383.543L107.537 392.363L113.476 392.405L111.576 400.032L116.877 396.385L117.155 404.729L122.12 398.205L125.395 403.518L129.326 395.732L135.451 398.568L136.485 390.871L144.147 390.1L141.284 383.307L148.02 378.811L144.151 372.98Z" fill="white"/>
<path d="M158.08 400.513C148.345 402.157 139.212 391.653 136.366 388.005C138.904 385.049 140.853 381.498 141.919 377.881C142.986 374.263 143.115 370.774 142.286 367.935C141.457 365.096 139.714 363.058 137.319 362.126C134.924 361.194 132.004 361.419 128.996 362.766C125.987 364.112 123.052 366.509 120.628 369.599C118.204 372.688 116.421 376.304 115.546 379.906C114.671 383.509 114.75 386.905 115.772 389.587C116.793 392.269 118.703 394.093 121.215 394.788C120.96 399.632 119.591 404.827 117.247 409.85C114.902 414.873 111.665 419.549 107.859 423.407L117.402 416.502L117.016 426.928C117.016 426.928 127.621 413.026 126.827 394.609C127.599 394.386 128.38 394.091 129.161 393.727C130.033 393.307 130.902 392.799 131.755 392.21C133.342 403.09 138.77 411.136 146.974 414.77L146.251 405.943L158.08 400.513Z" fill="#4FBEB8"/>
<path d="M125.988 356.961L60.691 394.729L61.1727 395.556L126.47 357.788L125.988 356.961Z" fill="white"/>
</svg>
