<svg width="172" height="170" viewBox="0 0 172 170" fill="none" xmlns="http://www.w3.org/2000/svg">
<circle cx="80" cy="80" r="80" fill="#2E938D"/>
<path d="M112.719 67.9288L112.736 67.9406L112.754 67.9511L169.598 101.184C170.411 102.019 170.866 103.138 170.866 104.303C170.866 105.467 170.411 106.584 169.599 107.419L113.429 139.656L113.424 139.659C112.762 140.048 111.898 140.529 111.017 140.899C110.122 141.276 109.273 141.511 108.622 141.471L108.591 141.47L108.561 141.471C107.91 141.511 107.061 141.276 106.166 140.899C105.285 140.529 104.421 140.048 103.759 139.659L103.754 139.656L47.5268 107.374C46.728 106.541 46.2815 105.433 46.2815 104.279C46.2815 103.125 46.7285 102.016 47.5281 101.184L104.371 67.9511L104.389 67.9406L104.405 67.9288C105.561 67.1187 106.906 66.6204 108.312 66.4824H108.813C110.218 66.6204 111.564 67.1187 112.719 67.9288Z" fill="#EFEFEF" stroke="#EFEFEF"/>
<path d="M120.831 128.923C119.068 128.937 117.324 128.551 115.733 127.793L115.984 127.269C120.592 129.481 125.591 127.851 128.972 126.105C135.436 122.763 140.347 116.79 140.756 114.344C141.433 110.304 145.474 107.987 149.381 105.751C150.117 105.326 150.847 104.913 151.553 104.482C155.74 101.938 152.248 93.9208 152.213 93.8393L152.745 93.6006C152.897 93.9499 156.476 102.176 151.857 104.977C151.145 105.408 150.409 105.833 149.673 106.252C145.883 108.429 141.965 110.671 141.334 114.437C140.832 117.442 135.442 123.415 129.24 126.617C126.659 128.036 123.777 128.826 120.831 128.923Z" fill="white"/>
<path d="M50.9491 88.5303L45.8687 98.0666L30.0201 101.193L40.3386 84.356L50.9491 88.5303Z" fill="#EEBEA3"/>
<path d="M127.687 81.9226L149.638 94.5153C149.638 94.5153 151.431 95.2721 149.983 96.2327C148.535 97.1933 140.733 101.74 140.733 101.74C140.241 102.044 139.669 102.194 139.091 102.169C138.513 102.144 137.956 101.946 137.492 101.601C135.629 100.436 115.617 89.0078 115.617 89.0078C115.617 89.0078 114.099 88.1869 115.477 87.2903C116.855 86.3938 125.276 81.7188 125.276 81.7188C125.276 81.7188 125.825 80.962 127.687 81.9226Z" fill="#6F4E9D"/>
<path d="M67.1071 63.4425C66.3294 63.435 65.5611 63.2722 64.8472 62.9637L65.3377 61.9009C65.3377 61.9009 67.5392 62.8819 68.9699 61.6089L69.7466 62.4848C69.017 63.1221 68.0756 63.4637 67.1071 63.4425Z" fill="#BC3B88"/>
<path d="M62.0442 54.3261V43.1943H33.7572V54.3493H32.49V72.1589H32.5659C32.5238 74.436 32.9373 76.6986 33.7822 78.8145C34.6272 80.9305 35.8866 82.8573 37.4869 84.4825C39.0872 86.1076 40.9963 87.3985 43.1027 88.2798C45.209 89.161 47.4704 89.6149 49.7548 89.6149C52.0391 89.6149 54.3005 89.161 56.4069 88.2798C58.5133 87.3985 60.4224 86.1076 62.0227 84.4825C63.623 82.8573 64.8824 80.9305 65.7273 78.8145C66.5722 76.6986 66.9857 74.436 66.9436 72.1589V54.3261H62.0442Z" fill="#EEBEA3"/>
<path d="M160.733 104.401L109.345 74.6331C108.119 73.952 107.038 73.0554 107.038 71.792V31.6841C107.038 30.4207 106.705 28.1152 109.345 29.3553L160.733 59.001C162.082 59.787 163.04 60.8932 163.04 62.1565V102.072C163.022 103.365 163.133 105.804 160.733 104.401Z" fill="#C3C3C3"/>
<path d="M142.099 98.3572L122.355 86.9113C121.882 86.6493 121.468 86.3291 121.468 85.8168V70.4121C121.468 69.9289 121.339 69.0439 122.355 69.533L142.099 80.9206C142.339 81.0295 142.547 81.1989 142.702 81.4123C142.857 81.6257 142.953 81.8756 142.981 82.1374V97.4722C142.981 97.9613 143.028 98.8986 142.099 98.3572Z" fill="#A3A3A3"/>
<path d="M109.759 73.666L109.759 73.6658L109.747 73.6591C108.583 73.0266 107.842 72.3147 107.842 71.4378V33.886C107.842 33.7489 107.839 33.62 107.835 33.4918C107.831 33.3021 107.826 33.1141 107.832 32.9042C107.841 32.5683 107.879 32.3022 107.956 32.1215C108.022 31.9687 108.095 31.9139 108.21 31.894C108.374 31.8657 108.699 31.8991 109.275 32.1745L157.404 59.9346C157.404 59.9348 157.404 59.935 157.405 59.9352C158.618 60.6432 159.316 61.5187 159.316 62.4603V99.8723C159.316 99.9276 159.317 99.9839 159.317 100.041C159.318 100.306 159.319 100.588 159.299 100.868C159.275 101.213 159.223 101.498 159.134 101.692C159.052 101.869 158.97 101.919 158.875 101.934C158.734 101.956 158.439 101.92 157.906 101.611L109.759 73.666Z" fill="#EFEFEF" stroke="#EFEFEF"/>
<path d="M153.375 96.6927L113.216 73.4045C112.253 72.8806 111.412 72.1761 111.412 71.1864V39.8405C111.412 38.8508 111.149 37.0518 113.216 38.0415L153.375 61.2423C154.432 61.8595 155.18 62.7211 155.18 63.7109V94.917C155.18 95.8834 155.267 97.793 153.375 96.6927Z" fill="white"/>
<path d="M98.5882 86.8585L138.093 109.564C138.093 109.564 141.322 110.927 138.712 112.662C136.102 114.397 122.063 122.559 122.063 122.559C122.063 122.559 119.582 124.416 116.224 122.315C112.866 120.213 76.8474 99.667 76.8474 99.667C76.8474 99.667 74.1145 98.1766 76.6021 96.5697C79.0898 94.9628 94.2377 86.5383 94.2377 86.5383C94.2377 86.5383 95.2363 85.1469 98.5882 86.8585Z" fill="#16332F"/>
<path d="M112.908 137.484C117.502 135.77 120.159 131.534 118.841 128.023C117.524 124.512 112.731 123.054 108.137 124.768C103.542 126.481 100.886 130.717 102.203 134.228C103.521 137.74 108.313 139.197 112.908 137.484Z" fill="#16332F"/>
<path d="M112.539 135.079C116.397 133.64 118.627 130.083 117.521 127.135C116.414 124.187 112.39 122.963 108.533 124.401C104.676 125.84 102.445 129.397 103.552 132.345C104.658 135.293 108.682 136.517 112.539 135.079Z" fill="white"/>
<path d="M96.6785 136.515C96.6785 136.515 99.7735 133.714 101.035 130.693C102.296 127.671 105.199 123.159 108.492 123.45L109.946 123.84C109.946 123.84 106.653 124.516 105.105 127.334C105.105 127.334 111.885 122.892 115.178 124.335C115.178 124.335 116.732 125.593 114.308 126.175C111.885 126.757 111.692 126.944 108.977 128.3C108.977 128.3 111.71 127.788 111.108 129.464L110.524 130.431C110.524 130.431 112.463 129.948 112.656 130.716C112.848 131.485 111.686 132.463 111.686 132.463C111.686 132.463 113.333 132.148 113.526 133.214C113.719 134.279 111.879 137.173 109.438 136.305L111.476 134.273C110.169 134.941 108.962 135.787 107.891 136.788C106.139 138.43 101.111 139.874 101.111 139.874L96.6785 136.515Z" fill="#EEBEA3"/>
<path d="M59.282 114.683C59.277 108.879 57.0605 103.294 53.0812 99.0576C49.1018 94.8216 43.6568 92.251 37.8483 91.8663C32.0398 91.4816 26.3016 93.3113 21.7951 96.9853C17.2887 100.659 14.3506 105.903 13.5755 111.655L3 169.351L56.3798 169.322L59.0368 118.048C59.2014 116.934 59.2834 115.809 59.282 114.683Z" fill="#9B82BE"/>
<path d="M45.4596 125.569C45.3931 125.57 45.3285 125.547 45.2765 125.506C45.2244 125.465 45.1881 125.407 45.1735 125.342C41.8157 110.403 48.5955 104.442 48.8875 104.191C48.9463 104.141 49.0227 104.116 49.1 104.122C49.1772 104.128 49.2488 104.165 49.2992 104.223C49.3495 104.282 49.3744 104.358 49.3684 104.435C49.3623 104.512 49.3259 104.584 49.267 104.634C49.197 104.692 42.4697 110.642 45.7633 125.214C45.7719 125.252 45.773 125.291 45.7664 125.328C45.7599 125.366 45.746 125.403 45.7253 125.435C45.7047 125.468 45.6778 125.496 45.6462 125.518C45.6147 125.54 45.579 125.555 45.5414 125.564L45.4596 125.569Z" fill="#6F4E9D"/>
<path d="M44.4261 121.448H44.3677L13.3652 115.003C13.3269 114.995 13.2905 114.979 13.2582 114.957C13.2258 114.935 13.1982 114.907 13.1767 114.874C13.1553 114.841 13.1406 114.805 13.1333 114.766C13.1261 114.728 13.1265 114.689 13.1346 114.65C13.1426 114.612 13.1582 114.576 13.1803 114.544C13.2024 114.511 13.2306 114.484 13.2635 114.462C13.2963 114.441 13.333 114.426 13.3715 114.419C13.41 114.412 13.4495 114.412 13.4879 114.42L44.4845 120.86C44.5619 120.867 44.6331 120.905 44.6824 120.965C44.7317 121.025 44.755 121.103 44.7473 121.18C44.7395 121.257 44.7014 121.328 44.6411 121.377C44.5809 121.426 44.5036 121.45 44.4261 121.442V121.448Z" fill="#2E938D"/>
<path d="M33.8331 142.854C33.7557 142.854 33.6815 142.824 33.6267 142.769C33.572 142.715 33.5412 142.641 33.5412 142.563V119.13C33.5412 119.053 33.572 118.979 33.6267 118.924C33.6815 118.87 33.7557 118.839 33.8331 118.839C33.9106 118.839 33.9848 118.87 34.0396 118.924C34.0943 118.979 34.1251 119.053 34.1251 119.13V142.563C34.1251 142.641 34.0943 142.715 34.0396 142.769C33.9848 142.824 33.9106 142.854 33.8331 142.854Z" fill="#2E938D"/>
<path d="M15.2342 138.96H15.1583C15.0842 138.94 15.0211 138.891 14.9829 138.825C14.9446 138.758 14.9342 138.679 14.9539 138.605L20.6358 116.709C20.6552 116.632 20.7045 116.565 20.7729 116.524C20.8414 116.483 20.9234 116.471 21.0008 116.49C21.0782 116.51 21.1448 116.559 21.1859 116.627C21.2269 116.695 21.2391 116.777 21.2198 116.854L15.532 138.751C15.5146 138.815 15.4753 138.871 15.4209 138.909C15.3666 138.947 15.3005 138.965 15.2342 138.96Z" fill="#2E938D"/>
<path d="M97.619 84.3675L137.124 107.033C137.124 107.033 140.353 108.395 137.743 110.13C135.133 111.865 121.1 120.027 121.1 120.027C121.1 120.027 118.612 121.884 115.26 119.777C111.909 117.669 75.8782 97.1118 75.8782 97.1118C75.8782 97.1118 73.1453 95.6272 75.633 94.0145C78.1206 92.4018 93.2685 83.9832 93.2685 83.9832C93.2685 83.9832 94.2671 82.6325 97.619 84.3675Z" fill="white"/>
<path d="M118.063 110.869L124.609 114.619C124.609 114.619 125.006 114.782 124.685 114.991C124.364 115.201 122.665 116.196 122.665 116.196C122.557 116.262 122.433 116.294 122.307 116.288C122.181 116.283 122.06 116.241 121.958 116.167C121.549 115.911 115.424 112.418 115.424 112.418C115.424 112.418 115.091 112.237 115.389 112.039C115.686 111.842 117.532 110.823 117.532 110.823C117.532 110.823 117.654 110.654 118.063 110.869Z" fill="#C3C3C3"/>
<path d="M108.311 105.07L110.32 106.236C110.32 106.236 110.717 106.399 110.396 106.615C110.075 106.83 108.375 107.815 108.375 107.815C108.271 107.887 108.148 107.925 108.022 107.925C107.896 107.925 107.773 107.887 107.669 107.815C107.26 107.559 105.672 106.65 105.672 106.65C105.672 106.65 105.339 106.469 105.637 106.277C105.934 106.084 107.78 105.053 107.78 105.053C107.78 105.053 107.902 104.86 108.311 105.07Z" fill="#C3C3C3"/>
<path d="M111.505 106.957L113.52 108.122C113.52 108.122 113.911 108.285 113.596 108.495C113.281 108.705 111.576 109.701 111.576 109.701C111.467 109.766 111.342 109.798 111.215 109.793C111.088 109.788 110.966 109.745 110.863 109.672C110.46 109.415 108.866 108.506 108.866 108.506C108.866 108.506 108.533 108.326 108.837 108.128C109.14 107.93 110.98 106.91 110.98 106.91C110.98 106.91 111.097 106.747 111.505 106.957Z" fill="#C3C3C3"/>
<path d="M114.752 108.89L116.767 110.055C116.767 110.055 117.158 110.224 116.837 110.433C116.516 110.643 114.816 111.633 114.816 111.633C114.712 111.704 114.589 111.742 114.463 111.742C114.337 111.742 114.214 111.704 114.11 111.633C113.701 111.377 112.113 110.468 112.113 110.468C112.113 110.468 111.78 110.288 112.084 110.09C112.387 109.892 114.221 108.873 114.221 108.873C114.221 108.873 114.343 108.675 114.752 108.89Z" fill="#C3C3C3"/>
<path d="M98.5882 99.3708L100.603 100.536C100.603 100.536 100.994 100.705 100.679 100.915C100.363 101.125 98.6583 102.116 98.6583 102.116C98.5502 102.182 98.4245 102.215 98.2976 102.21C98.1706 102.205 98.0481 102.162 97.9458 102.087C97.5429 101.83 95.9487 100.921 95.9487 100.921C95.9487 100.921 95.6158 100.74 95.9195 100.548C96.2232 100.356 98.0626 99.33 98.0626 99.33C98.0626 99.33 98.1794 99.161 98.5882 99.3708Z" fill="#C3C3C3"/>
<path d="M101.782 101.257L103.797 102.423C103.797 102.423 104.188 102.586 103.873 102.796C103.558 103.006 101.853 104.003 101.853 104.003C101.746 104.07 101.621 104.103 101.495 104.098C101.369 104.093 101.247 104.05 101.146 103.974C100.737 103.718 99.1488 102.808 99.1488 102.808C99.1488 102.808 98.816 102.627 99.1138 102.429C99.4116 102.23 101.257 101.21 101.257 101.21C101.257 101.21 101.38 101.047 101.782 101.257Z" fill="#C3C3C3"/>
<path d="M105.029 103.19L107.044 104.356C107.044 104.356 107.435 104.519 107.12 104.729C106.805 104.939 105.099 105.936 105.099 105.936C104.992 106.002 104.868 106.034 104.742 106.028C104.616 106.023 104.495 105.981 104.393 105.907C103.984 105.65 102.39 104.741 102.39 104.741C102.39 104.741 102.063 104.56 102.361 104.362C102.659 104.164 104.504 103.143 104.504 103.143C104.504 103.143 104.626 102.98 105.029 103.19Z" fill="#C3C3C3"/>
<path d="M91.9835 95.656L93.9981 96.8224C93.9981 96.8224 94.3894 96.9857 94.074 97.1956C93.7587 97.4056 92.0536 98.4028 92.0536 98.4028C91.9449 98.4681 91.8196 98.5001 91.693 98.4949C91.5663 98.4897 91.444 98.4476 91.3411 98.3737C90.9382 98.1171 89.344 97.2073 89.344 97.2073C89.344 97.2073 89.0111 97.0265 89.3148 96.8282C89.6185 96.6299 91.4579 95.6093 91.4579 95.6093C91.4579 95.6093 91.5747 95.446 91.9835 95.656Z" fill="#C3C3C3"/>
<path d="M95.2306 97.5891L97.2453 98.7551C97.2453 98.7551 97.6365 98.9242 97.3212 99.1341C97.0059 99.344 95.3007 100.335 95.3007 100.335C95.1926 100.402 95.067 100.435 94.94 100.429C94.8131 100.424 94.6906 100.381 94.5883 100.306C94.1854 100.049 92.5912 99.1399 92.5912 99.1399C92.5912 99.1399 92.2583 98.9592 92.562 98.761C92.8656 98.5628 94.7051 97.5425 94.7051 97.5425C94.7051 97.5425 94.8219 97.3734 95.2306 97.5891Z" fill="#C3C3C3"/>
<path d="M106.705 96.1743L108.685 97.341C108.685 97.341 109.07 97.5044 108.761 97.7086C108.451 97.9128 106.77 98.8753 106.77 98.8753C106.667 98.9448 106.546 98.982 106.422 98.982C106.298 98.982 106.177 98.9448 106.075 98.8753C105.672 98.6187 104.107 97.7086 104.107 97.7086C104.107 97.7086 103.78 97.5277 104.078 97.3352C104.375 97.1427 106.186 96.1684 106.186 96.1684C106.186 96.1684 106.303 95.9526 106.705 96.1743Z" fill="#C3C3C3"/>
<path d="M109.847 98.0144L111.826 99.1792C111.826 99.1792 112.218 99.3423 111.902 99.552C111.587 99.7617 109.917 100.717 109.917 100.717C109.811 100.782 109.687 100.815 109.562 100.81C109.437 100.804 109.317 100.762 109.216 100.688C108.819 100.437 107.254 99.5229 107.254 99.5229C107.254 99.5229 106.927 99.3481 107.254 99.1559C107.581 98.9638 109.356 97.9562 109.356 97.9562C109.356 97.9562 109.45 97.8048 109.847 98.0144Z" fill="#C3C3C3"/>
<path d="M113.041 99.9118L115.021 101.078C115.021 101.078 115.406 101.235 115.097 101.445C114.787 101.655 113.111 102.611 113.111 102.611C113.008 102.681 112.886 102.718 112.761 102.718C112.636 102.718 112.514 102.681 112.41 102.611C112.008 102.36 110.443 101.445 110.443 101.445C110.443 101.445 110.116 101.264 110.443 101.072C110.77 100.88 112.551 99.871 112.551 99.871C112.551 99.871 112.638 99.7019 113.041 99.9118Z" fill="#C3C3C3"/>
<path d="M97.14 90.5503L99.1196 91.7158C99.1196 91.7158 99.505 91.879 99.1955 92.0829C98.886 92.2869 97.21 93.2485 97.21 93.2485C97.1037 93.3141 96.9801 93.3465 96.8552 93.3413C96.7302 93.3361 96.6098 93.2936 96.5093 93.2193C96.1122 92.9629 94.5413 92.0538 94.5413 92.0538C94.5413 92.0538 94.2143 91.8732 94.5121 91.6808C94.81 91.4885 96.6202 90.5153 96.6202 90.5153C96.6202 90.5153 96.737 90.3521 97.14 90.5503Z" fill="#C3C3C3"/>
<path d="M100.288 92.4079L102.267 93.5434C102.267 93.5434 102.653 93.7064 102.343 93.916C102.034 94.1256 100.352 95.0806 100.352 95.0806C100.246 95.1457 100.124 95.1777 99.9998 95.1725C99.8759 95.1673 99.7564 95.1252 99.6569 95.0515C99.2539 94.8011 97.6889 93.8869 97.6889 93.8869C97.6889 93.8869 97.3619 93.7122 97.6889 93.5201C98.0159 93.3279 99.797 92.3206 99.797 92.3206C99.797 92.3206 99.8846 92.1983 100.288 92.4079Z" fill="#C3C3C3"/>
<path d="M103.505 94.3053L105.491 95.4704C105.491 95.4704 105.876 95.6335 105.561 95.8374C105.245 96.0413 103.575 97.0025 103.575 97.0025C103.472 97.0723 103.35 97.1097 103.225 97.1097C103.1 97.1097 102.978 97.0723 102.874 97.0025C102.477 96.752 100.912 95.8374 100.912 95.8374C100.912 95.8374 100.585 95.6568 100.912 95.4645C101.239 95.2723 103.015 94.2645 103.015 94.2645C103.015 94.2645 103.079 94.0956 103.505 94.3053Z" fill="#C3C3C3"/>
<path d="M90.658 86.8942L92.6435 88.031C92.6435 88.031 93.029 88.1942 92.7136 88.4041C92.3983 88.6139 90.7281 89.57 90.7281 89.57C90.6227 89.6352 90.5001 89.6673 90.3762 89.6621C90.2523 89.6569 90.1328 89.6147 90.0332 89.5409C89.6303 89.2902 88.0652 88.4041 88.0652 88.4041C88.0652 88.4041 87.7382 88.2233 88.036 88.031C88.3338 87.8386 90.1383 86.83 90.1383 86.83C90.1383 86.83 90.2434 86.6843 90.658 86.8942Z" fill="#C3C3C3"/>
<path d="M93.8348 88.7918L95.8144 89.9582C95.8144 89.9582 96.1998 90.1215 95.8903 90.3256C95.5808 90.5297 93.9049 91.4919 93.9049 91.4919C93.8014 91.5619 93.6794 91.5993 93.5545 91.5993C93.4296 91.5993 93.3075 91.5619 93.2041 91.4919C92.807 91.2353 91.242 90.3256 91.242 90.3256C91.242 90.3256 90.915 90.1506 91.207 89.9523C91.499 89.7541 93.3151 88.7568 93.3151 88.7568C93.3151 88.7568 93.4377 88.6052 93.8348 88.7918Z" fill="#C3C3C3"/>
<path d="M123.173 109.804L127.967 112.558C127.967 112.558 128.364 112.721 128.043 112.931C127.722 113.141 126.023 114.136 126.023 114.136C125.916 114.203 125.791 114.236 125.665 114.231C125.539 114.226 125.417 114.183 125.316 114.107C124.907 113.851 120.533 111.353 120.533 111.353C120.533 111.353 120.206 111.172 120.533 110.98C120.86 110.788 122.677 109.757 122.677 109.757C122.677 109.757 122.776 109.594 123.173 109.804Z" fill="#C3C3C3"/>
<path d="M106.752 108.307L111.546 111.061C111.546 111.061 111.943 111.224 111.622 111.433C111.301 111.643 109.602 112.639 109.602 112.639C109.497 112.708 109.374 112.745 109.248 112.745C109.123 112.745 109 112.708 108.895 112.639C108.486 112.382 104.113 109.885 104.113 109.885C104.113 109.885 103.786 109.704 104.113 109.506C104.44 109.308 106.256 108.289 106.256 108.289C106.256 108.289 106.349 108.097 106.752 108.307Z" fill="#C3C3C3"/>
<path d="M86.8917 96.9083L91.6919 99.6621C91.6919 99.6621 92.0832 99.8251 91.762 100.04C91.4408 100.256 89.7415 101.24 89.7415 101.24C89.6375 101.311 89.5143 101.349 89.3882 101.349C89.2621 101.349 89.1389 101.311 89.0349 101.24C88.6261 100.984 84.2522 98.486 84.2522 98.486C84.2522 98.486 83.9252 98.3056 84.223 98.1134C84.5209 97.9213 86.3662 96.8966 86.3662 96.8966C86.3662 96.8966 86.4888 96.6987 86.8917 96.9083Z" fill="#C3C3C3"/>
<path d="M112.924 111.835L114.939 113.001C114.939 113.001 115.33 113.17 115.015 113.38C114.7 113.59 112.994 114.581 112.994 114.581C112.89 114.652 112.767 114.69 112.641 114.69C112.515 114.69 112.392 114.652 112.288 114.581C111.879 114.324 110.285 113.415 110.285 113.415C110.285 113.415 109.958 113.234 110.256 113.036C110.553 112.838 112.399 111.818 112.399 111.818C112.399 111.818 112.521 111.62 112.924 111.835Z" fill="#C3C3C3"/>
<path d="M116.125 113.716L118.139 114.882C118.139 114.882 118.531 115.045 118.215 115.255C117.9 115.465 116.189 116.462 116.189 116.462C116.082 116.529 115.957 116.562 115.831 116.557C115.705 116.551 115.583 116.508 115.482 116.433C115.074 116.176 113.485 115.267 113.485 115.267C113.485 115.267 113.152 115.086 113.456 114.888C113.76 114.69 115.593 113.669 115.593 113.669C115.593 113.669 115.716 113.506 116.125 113.716Z" fill="#C3C3C3"/>
<path d="M119.372 115.649L121.38 116.814C121.38 116.814 121.777 116.977 121.456 117.187C121.135 117.397 119.436 118.393 119.436 118.393C119.332 118.464 119.209 118.502 119.082 118.502C118.956 118.502 118.833 118.464 118.729 118.393C118.32 118.137 116.732 117.228 116.732 117.228C116.732 117.228 116.399 117.047 116.697 116.849C116.995 116.651 118.84 115.631 118.84 115.631C118.84 115.631 118.963 115.439 119.372 115.649Z" fill="#C3C3C3"/>
<path d="M113.491 104.104L115.505 105.269C115.505 105.269 115.897 105.438 115.581 105.648C115.266 105.858 113.561 106.849 113.561 106.849C113.456 106.92 113.332 106.958 113.205 106.958C113.078 106.958 112.954 106.92 112.848 106.849C112.445 106.592 110.851 105.683 110.851 105.683C110.851 105.683 110.518 105.502 110.822 105.31C111.126 105.118 112.965 104.092 112.965 104.092C112.965 104.092 113.082 103.894 113.491 104.104Z" fill="#C3C3C3"/>
<path d="M116.691 105.99L118.7 107.155C118.7 107.155 119.097 107.318 118.776 107.528C118.455 107.738 116.756 108.734 116.756 108.734C116.649 108.801 116.524 108.834 116.398 108.829C116.272 108.824 116.15 108.78 116.049 108.705C115.64 108.449 114.052 107.54 114.052 107.54C114.052 107.54 113.719 107.359 114.017 107.161C114.315 106.963 116.16 105.943 116.16 105.943C116.16 105.943 116.283 105.78 116.691 105.99Z" fill="#C3C3C3"/>
<path d="M119.932 107.923L121.947 109.089C121.947 109.089 122.338 109.258 122.023 109.467C121.707 109.677 120.002 110.674 120.002 110.674C119.894 110.739 119.769 110.771 119.643 110.765C119.518 110.758 119.396 110.715 119.296 110.639C118.887 110.388 117.293 109.473 117.293 109.473C117.293 109.473 116.966 109.293 117.263 109.094C117.561 108.896 119.406 107.876 119.406 107.876C119.406 107.876 119.529 107.707 119.932 107.923Z" fill="#C3C3C3"/>
<path d="M103.774 98.4104L105.783 99.5764C105.783 99.5764 106.18 99.7455 105.858 99.9553C105.537 100.165 103.838 101.162 103.838 101.162C103.73 101.227 103.605 101.259 103.479 101.253C103.353 101.247 103.232 101.203 103.131 101.127C102.723 100.871 101.134 99.9612 101.134 99.9612C101.134 99.9612 100.801 99.7804 101.099 99.5822C101.397 99.384 103.242 98.3638 103.242 98.3638C103.242 98.3638 103.365 98.1947 103.774 98.4104Z" fill="#C3C3C3"/>
<path d="M106.968 100.291L108.983 101.457C108.983 101.457 109.374 101.62 109.059 101.83C108.743 102.04 107.038 103.037 107.038 103.037C106.93 103.103 106.804 103.136 106.677 103.131C106.55 103.126 106.428 103.083 106.326 103.008C105.923 102.751 104.328 101.842 104.328 101.842C104.328 101.842 103.996 101.661 104.328 101.463C104.661 101.264 106.425 100.25 106.425 100.25C106.425 100.25 106.559 100.081 106.968 100.291Z" fill="#C3C3C3"/>
<path d="M110.215 102.223L112.23 103.389C112.23 103.389 112.621 103.552 112.305 103.762C111.99 103.972 110.279 104.969 110.279 104.969C110.172 105.036 110.047 105.069 109.921 105.064C109.795 105.059 109.674 105.016 109.573 104.94C109.164 104.683 107.575 103.774 107.575 103.774C107.575 103.774 107.243 103.593 107.546 103.395C107.85 103.197 109.683 102.177 109.683 102.177C109.683 102.177 109.806 101.996 110.215 102.223Z" fill="#C3C3C3"/>
<path d="M97.1693 94.6901L99.1839 95.8558C99.1839 95.8558 99.5752 96.019 99.254 96.2288C98.9328 96.4386 97.2335 97.4352 97.2335 97.4352C97.1266 97.5022 97.0018 97.5352 96.8757 97.53C96.7496 97.5248 96.628 97.4816 96.5269 97.4061C96.1182 97.1496 94.5298 96.2404 94.5298 96.2404C94.5298 96.2404 94.1969 96.0598 94.5298 95.8616C94.8627 95.6634 96.6671 94.6435 96.6671 94.6435C96.6671 94.6435 96.7605 94.4803 97.1693 94.6901Z" fill="#C3C3C3"/>
<path d="M100.41 96.6232L102.425 97.7873C102.425 97.7873 102.816 97.9561 102.501 98.1656C102.185 98.3751 100.48 99.3705 100.48 99.3705C100.373 99.4357 100.248 99.4673 100.122 99.461C99.9957 99.4548 99.8745 99.4111 99.7738 99.3355C99.365 99.0852 97.7767 98.1714 97.7767 98.1714C97.7767 98.1714 97.4438 97.991 97.7416 97.7931C98.0394 97.5952 99.8847 96.5766 99.8847 96.5766C99.8847 96.5766 100.002 96.4078 100.41 96.6232Z" fill="#C3C3C3"/>
<path d="M122.875 105.49L124.855 106.654C124.855 106.654 125.24 106.818 124.931 107.021C124.621 107.225 122.939 108.186 122.939 108.186C122.835 108.256 122.711 108.29 122.586 108.283C122.461 108.277 122.341 108.231 122.245 108.151C121.842 107.901 120.277 106.986 120.277 106.986C120.277 106.986 119.95 106.806 120.247 106.614C120.545 106.421 122.356 105.42 122.356 105.42C122.356 105.42 122.472 105.297 122.875 105.49Z" fill="#C3C3C3"/>
<path d="M126.017 107.352L128.003 108.518C128.003 108.518 128.388 108.682 128.073 108.891C127.757 109.101 126.087 110.057 126.087 110.057C125.982 110.123 125.859 110.155 125.735 110.149C125.611 110.144 125.492 110.102 125.392 110.028C124.989 109.778 123.424 108.862 123.424 108.862C123.424 108.862 123.097 108.687 123.395 108.495C123.693 108.303 125.503 107.294 125.503 107.294C125.503 107.294 125.62 107.148 126.017 107.352Z" fill="#C3C3C3"/>
<path d="M129.199 109.256L131.179 110.394C131.179 110.394 131.57 110.557 131.255 110.767C130.94 110.977 129.269 111.934 129.269 111.934C129.166 112.004 129.044 112.041 128.919 112.041C128.794 112.041 128.672 112.004 128.569 111.934C128.172 111.683 126.607 110.767 126.607 110.767C126.607 110.767 126.28 110.586 126.577 110.394C126.875 110.201 128.68 109.192 128.68 109.192C128.68 109.192 128.814 109.046 129.199 109.256Z" fill="#C3C3C3"/>
<path d="M116.352 101.845L118.338 102.981C118.338 102.981 118.723 103.145 118.408 103.354C118.093 103.564 116.422 104.52 116.422 104.52C116.316 104.586 116.193 104.618 116.068 104.613C115.943 104.608 115.822 104.565 115.722 104.491C115.325 104.24 113.76 103.325 113.76 103.325C113.76 103.325 113.433 103.15 113.76 102.958C114.087 102.766 115.862 101.758 115.862 101.758C115.862 101.758 115.979 101.635 116.352 101.845Z" fill="#C3C3C3"/>
<path d="M119.57 103.743L121.55 104.908C121.55 104.908 121.935 105.071 121.625 105.275C121.316 105.479 119.64 106.44 119.64 106.44C119.537 106.51 119.415 106.547 119.29 106.547C119.165 106.547 119.043 106.51 118.939 106.44C118.542 106.184 116.971 105.275 116.971 105.275C116.971 105.275 116.65 105.095 116.942 104.902C117.234 104.71 119.05 103.738 119.05 103.738C119.05 103.738 119.167 103.54 119.57 103.743Z" fill="#C3C3C3"/>
<path d="M127.395 102.928L129.374 104.094C129.374 104.094 129.76 104.257 129.45 104.467C129.141 104.677 127.465 105.633 127.465 105.633C127.359 105.699 127.235 105.731 127.11 105.726C126.985 105.721 126.865 105.678 126.764 105.604C126.367 105.353 124.796 104.438 124.796 104.438C124.796 104.438 124.475 104.263 124.767 104.071C125.059 103.878 126.875 102.87 126.875 102.87C126.875 102.87 126.992 102.718 127.395 102.928Z" fill="#C3C3C3"/>
<path d="M130.543 104.779L132.522 105.945C132.522 105.945 132.908 106.108 132.598 106.312C132.289 106.516 130.607 107.478 130.607 107.478C130.503 107.548 130.38 107.583 130.255 107.578C130.129 107.573 130.009 107.527 129.912 107.449C129.509 107.198 127.944 106.312 127.944 106.312C127.944 106.312 127.617 106.132 127.944 105.939C128.271 105.747 130.052 104.739 130.052 104.739C130.052 104.739 130.14 104.57 130.543 104.779Z" fill="#C3C3C3"/>
<path d="M133.731 106.654L135.717 107.821C135.717 107.821 136.102 107.984 135.787 108.194C135.471 108.404 133.801 109.361 133.801 109.361C133.696 109.426 133.573 109.458 133.449 109.453C133.325 109.448 133.206 109.406 133.106 109.332C132.703 109.081 131.138 108.165 131.138 108.165C131.138 108.165 130.811 107.99 131.138 107.798C131.465 107.605 133.241 106.596 133.241 106.596C133.241 106.596 133.334 106.473 133.731 106.654Z" fill="#C3C3C3"/>
<path d="M120.895 99.2658L122.881 100.432C122.881 100.432 123.266 100.595 122.951 100.805C122.636 101.015 120.965 101.971 120.965 101.971C120.86 102.036 120.737 102.068 120.613 102.063C120.49 102.058 120.37 102.015 120.271 101.942C119.868 101.691 118.303 100.776 118.303 100.776C118.303 100.776 117.976 100.601 118.273 100.408C118.571 100.216 120.381 99.2075 120.381 99.2075C120.381 99.2075 120.498 99.0851 120.895 99.2658Z" fill="#C3C3C3"/>
<path d="M124.09 101.17L126.069 102.306C126.069 102.306 126.461 102.47 126.145 102.68C125.83 102.889 124.16 103.846 124.16 103.846C124.056 103.915 123.934 103.953 123.809 103.953C123.684 103.953 123.562 103.915 123.459 103.846C123.062 103.595 121.497 102.68 121.497 102.68C121.497 102.68 121.17 102.499 121.468 102.306C121.765 102.114 123.57 101.105 123.57 101.105C123.57 101.105 123.693 100.96 124.09 101.17Z" fill="#C3C3C3"/>
<path d="M111.149 93.497L113.135 94.6324C113.135 94.6324 113.52 94.7954 113.205 95.005C112.889 95.2146 111.219 96.1694 111.219 96.1694C111.116 96.2422 110.993 96.2817 110.867 96.2827C110.741 96.2838 110.617 96.2463 110.513 96.1752C110.11 95.9249 108.545 95.0108 108.545 95.0108C108.545 95.0108 108.218 94.8361 108.515 94.644C108.813 94.4519 110.624 93.4446 110.624 93.4446C110.624 93.4446 110.752 93.2641 111.149 93.497Z" fill="#C3C3C3"/>
<path d="M114.297 95.348L116.277 96.484C116.277 96.484 116.662 96.6471 116.352 96.8568C116.043 97.0666 114.367 98.022 114.367 98.022C114.264 98.0919 114.142 98.1292 114.017 98.1292C113.892 98.1292 113.77 98.0919 113.666 98.022C113.269 97.7715 111.698 96.8568 111.698 96.8568C111.698 96.8568 111.377 96.6821 111.669 96.4898C111.961 96.2976 113.777 95.2897 113.777 95.2897C113.777 95.2897 113.894 95.1382 114.297 95.348Z" fill="#C3C3C3"/>
<path d="M117.52 97.2452L119.5 98.4108C119.5 98.4108 119.885 98.574 119.576 98.778C119.266 98.9819 117.585 99.9435 117.585 99.9435C117.479 100.009 117.356 100.041 117.233 100.036C117.109 100.03 116.989 99.9882 116.89 99.9144C116.487 99.658 114.922 98.7488 114.922 98.7488C114.922 98.7488 114.595 98.5682 114.892 98.3758C115.19 98.1835 117.001 97.2103 117.001 97.2103C117.001 97.2103 117.088 97.0413 117.52 97.2452Z" fill="#C3C3C3"/>
<path d="M104.673 89.8343L106.653 90.9998C106.653 90.9998 107.038 91.163 106.729 91.367C106.419 91.5709 104.737 92.5325 104.737 92.5325C104.633 92.6018 104.509 92.6358 104.384 92.6295C104.259 92.6232 104.139 92.5769 104.042 92.4975C103.639 92.2469 102.074 91.332 102.074 91.332C102.074 91.332 101.747 91.1514 102.045 90.959C102.343 90.7667 104.153 89.7644 104.153 89.7644C104.153 89.7644 104.253 89.6304 104.673 89.8343Z" fill="#C3C3C3"/>
<path d="M107.85 91.7384L109.83 92.9051C109.83 92.9051 110.215 93.0684 109.905 93.2784C109.596 93.4884 107.914 94.4451 107.914 94.4451C107.809 94.5103 107.686 94.5424 107.562 94.5372C107.438 94.532 107.319 94.4898 107.219 94.4159C106.816 94.1651 105.251 93.2492 105.251 93.2492C105.251 93.2492 104.924 93.0742 105.222 92.8817C105.52 92.6892 107.33 91.68 107.33 91.68C107.33 91.68 107.447 91.5167 107.85 91.7384Z" fill="#C3C3C3"/>
<path d="M94.9387 84.1579L96.9242 85.2955C96.9242 85.2955 97.3096 85.4589 96.9943 85.6689C96.6789 85.8789 95.0088 86.8356 95.0088 86.8356C94.9063 86.9051 94.7852 86.9423 94.6614 86.9423C94.5375 86.9423 94.4164 86.9051 94.3139 86.8356C93.911 86.5848 92.346 85.6689 92.346 85.6689C92.346 85.6689 92.0189 85.488 92.346 85.2955C92.673 85.103 94.4541 84.0937 94.4541 84.0937C94.4541 84.0937 94.5417 83.9479 94.9387 84.1579Z" fill="#C3C3C3"/>
<path d="M98.0863 86.0098L100.066 87.1746C100.066 87.1746 100.451 87.3377 100.142 87.5416C99.8324 87.7454 98.1564 88.7064 98.1564 88.7064C98.0536 88.7778 97.9313 88.8161 97.806 88.8161C97.6807 88.8161 97.5585 88.7778 97.4556 88.7064C97.0586 88.456 95.4877 87.5416 95.4877 87.5416C95.4877 87.5416 95.1665 87.361 95.4585 87.1688C95.7505 86.9766 97.5666 85.969 97.5666 85.969C97.5666 85.969 97.6659 85.8059 98.0863 86.0098Z" fill="#C3C3C3"/>
<path d="M101.281 87.9133L103.26 89.0487C103.26 89.0487 103.646 89.2118 103.336 89.4214C103.027 89.631 101.345 90.5859 101.345 90.5859C101.239 90.651 101.117 90.6831 100.993 90.6779C100.869 90.6727 100.749 90.6305 100.65 90.5568C100.247 90.3064 98.6819 89.3923 98.6819 89.3923C98.6819 89.3923 98.3549 89.2176 98.6527 89.0255C98.9505 88.8333 100.761 87.826 100.761 87.826C100.761 87.826 100.878 87.7037 101.281 87.9133Z" fill="#C3C3C3"/>
<path d="M87.3821 88.943L89.3967 90.1086C89.3967 90.1086 89.788 90.2718 89.4727 90.4816C89.1573 90.6915 87.4521 91.6881 87.4521 91.6881C87.3435 91.7532 87.2182 91.7852 87.0915 91.78C86.9649 91.7749 86.8426 91.7328 86.7397 91.6589C86.3368 91.4025 84.7425 90.4933 84.7425 90.4933C84.7425 90.4933 84.4097 90.3126 84.7133 90.1145C85.017 89.9163 86.8565 88.8964 86.8565 88.8964C86.8565 88.8964 86.9733 88.7332 87.3821 88.943Z" fill="#C3C3C3"/>
<path d="M90.5821 90.8241L92.5909 91.9905C92.5909 91.9905 92.988 92.1538 92.6668 92.3696C92.3456 92.5854 90.6463 93.5709 90.6463 93.5709C90.5423 93.6421 90.4191 93.6802 90.293 93.6802C90.1669 93.6802 90.0437 93.6421 89.9397 93.5709C89.5309 93.3143 87.9426 92.4046 87.9426 92.4046C87.9426 92.4046 87.6097 92.2238 87.9426 92.0313C88.2754 91.8389 90.0799 90.8067 90.0799 90.8067C90.0799 90.8067 90.1733 90.6142 90.5821 90.8241Z" fill="#C3C3C3"/>
<path d="M93.8232 92.7569L95.8379 93.9217C95.8379 93.9217 96.2291 94.0848 95.9138 94.2945C95.5985 94.5041 93.8933 95.5001 93.8933 95.5001C93.7864 95.567 93.6616 95.6 93.5355 95.5948C93.4094 95.5896 93.2878 95.5464 93.1867 95.4709C92.778 95.2147 91.1838 94.3061 91.1838 94.3061C91.1838 94.3061 90.8568 94.1256 91.1546 93.9276C91.4524 93.7295 93.2977 92.7103 93.2977 92.7103C93.2977 92.7103 93.4203 92.5472 93.8232 92.7569Z" fill="#C3C3C3"/>
<path d="M80.328 93.095L82.3426 94.26C82.3426 94.26 82.7339 94.4231 82.4185 94.6328C82.1032 94.8425 80.398 95.8386 80.398 95.8386C80.2928 95.9095 80.1688 95.9474 80.0418 95.9474C79.9149 95.9474 79.7908 95.9095 79.6856 95.8386C79.2768 95.5823 77.6885 94.6736 77.6885 94.6736C77.6885 94.6736 77.3556 94.493 77.6885 94.3008C78.0213 94.1086 79.8258 93.0775 79.8258 93.0775C79.8258 93.0775 79.9192 92.8853 80.328 93.095Z" fill="#C3C3C3"/>
<path d="M83.5747 95.0098L85.5835 96.1758C85.5835 96.1758 85.9806 96.339 85.6595 96.5489C85.3383 96.7587 83.639 97.7556 83.639 97.7556C83.535 97.8268 83.4118 97.8649 83.2857 97.8649C83.1596 97.8649 83.0364 97.8268 82.9324 97.7556C82.5236 97.4991 80.9353 96.5897 80.9353 96.5897C80.9353 96.5897 80.6024 96.4089 80.9353 96.2107C81.2681 96.0125 83.0667 95.0098 83.0667 95.0098C83.0667 95.0098 83.166 94.8174 83.5747 95.0098Z" fill="#C3C3C3"/>
<path d="M83.8142 91.0162L90.3662 94.7656C90.3662 94.7656 90.7575 94.9345 90.4421 95.1441C90.1268 95.3537 88.4216 96.3492 88.4216 96.3492C88.3127 96.4143 88.1869 96.4456 88.0601 96.4394C87.9333 96.4332 87.8112 96.3897 87.7092 96.3143C87.3063 96.0581 81.1746 92.5649 81.1746 92.5649C81.1746 92.5649 80.8418 92.3844 81.1746 92.1922C81.5075 92.0001 83.3178 90.9754 83.3178 90.9754C83.3178 90.9754 83.4054 90.8066 83.8142 91.0162Z" fill="#C3C3C3"/>
<path d="M98.8334 103.743L105.385 107.492C105.385 107.492 105.777 107.661 105.461 107.871C105.146 108.08 103.441 109.07 103.441 109.07C103.334 109.137 103.209 109.17 103.083 109.165C102.957 109.16 102.835 109.116 102.734 109.041C102.325 108.785 96.1997 105.292 96.1997 105.292C96.1997 105.292 95.8669 105.111 96.1647 104.919C96.4625 104.727 98.3078 103.703 98.3078 103.703C98.3078 103.703 98.4246 103.557 98.8334 103.743Z" fill="#C3C3C3"/>
<path d="M92.9472 100.413L99.4935 104.162C99.4935 104.162 99.8905 104.325 99.5694 104.535C99.2482 104.744 97.5489 105.74 97.5489 105.74C97.4419 105.807 97.3172 105.84 97.191 105.835C97.0649 105.829 96.9433 105.786 96.8423 105.711C96.4335 105.455 90.3077 101.961 90.3077 101.961C90.3077 101.961 89.9749 101.781 90.2785 101.583C90.5822 101.385 92.41 100.366 92.41 100.366C92.41 100.366 92.5385 100.203 92.9472 100.413Z" fill="#C3C3C3"/>
<path d="M55.0369 101.839C55.0369 101.839 59.1713 103.9 64.3393 111.114C69.5074 118.327 78.2843 148.718 78.2843 148.718L96.1125 135.578C96.1125 135.578 102.337 134.018 103.505 140.09L85.7881 159.535C85.7881 159.535 78.8157 169.322 74.6929 165.713C70.5702 162.103 53.5069 136.87 53.5069 136.87L55.0369 101.839Z" fill="#9B82BE"/>
<path d="M56.053 140.218L46.7505 128.114L55.0194 157.218L56.053 140.218Z" fill="#6F4E9D"/>
<path d="M55.0371 101.839L24.7939 94.6253L33.0628 89.4785L47.7844 93.3386C47.7844 93.3386 53.986 96.174 55.0371 101.839Z" fill="#6F4E9D"/>
<path d="M45.0394 123.282L37.2903 124.923L34.0142 147.333L32.3675 120.964L22.8723 119.031L13.2662 143.082L18.1072 117.972L12.7815 116.324C12.7815 116.324 12.6822 113.722 14.2355 115.072L43.4919 120.964C43.4919 120.964 45.1387 120.481 45.0394 123.282Z" fill="#6F4E9D"/>
<path d="M52.9521 106.735C52.9521 106.735 60.4444 116.778 67.4168 135.577C74.3893 154.377 77.753 157.474 77.753 157.474L78.2668 148.741L66.646 115.515C66.646 115.515 62.7685 106.24 55.0194 101.862C55.0369 101.839 49.0746 104.156 52.9521 106.735Z" fill="#6F4E9D"/>
<path d="M47.6553 88.1884L40.2916 86.2593L38.6156 89.2201L47.6553 88.1884Z" fill="#CEA086"/>
<path d="M152.558 69.3931C152.506 69.3941 152.455 69.3799 152.412 69.3523L143.325 64.1533C143.258 64.1143 143.208 64.0503 143.187 63.9751C143.167 63.9 143.176 63.8197 143.214 63.7516C143.233 63.7183 143.258 63.6891 143.289 63.6657C143.319 63.6423 143.354 63.6252 143.391 63.6155C143.428 63.6057 143.466 63.6034 143.504 63.6088C143.542 63.6142 143.579 63.6271 143.611 63.6468L152.721 68.8866C152.776 68.919 152.819 68.9684 152.843 69.0273C152.867 69.0861 152.871 69.1512 152.854 69.2125C152.838 69.2739 152.801 69.3281 152.751 69.3671C152.701 69.406 152.639 69.4274 152.575 69.428L152.558 69.3931Z" fill="#4FBEB8"/>
<path d="M152.558 71.8963C152.507 71.8965 152.457 71.8845 152.412 71.8613L143.308 66.6215C143.272 66.604 143.241 66.5795 143.215 66.5494C143.189 66.5193 143.17 66.4842 143.158 66.4464C143.146 66.4086 143.143 66.3688 143.147 66.3295C143.151 66.2901 143.163 66.2521 143.183 66.2176C143.202 66.1831 143.228 66.153 143.26 66.129C143.292 66.105 143.328 66.0876 143.366 66.078C143.405 66.0684 143.445 66.0668 143.484 66.0731C143.523 66.0795 143.561 66.0937 143.594 66.115L152.704 71.3548C152.759 71.3872 152.801 71.4366 152.825 71.4955C152.849 71.5543 152.853 71.6194 152.837 71.6807C152.82 71.7421 152.784 71.7964 152.734 71.8353C152.683 71.8742 152.622 71.8956 152.558 71.8963Z" fill="#4FBEB8"/>
<path d="M152.558 74.6325C152.506 74.6335 152.455 74.6193 152.412 74.5917L143.308 69.3524C143.275 69.3337 143.246 69.3086 143.223 69.2788C143.199 69.2489 143.182 69.2147 143.172 69.1782C143.162 69.1417 143.159 69.1036 143.164 69.0661C143.169 69.0286 143.181 68.9923 143.2 68.9594C143.218 68.9266 143.244 68.8977 143.274 68.8745C143.304 68.8513 143.338 68.8342 143.374 68.8242C143.411 68.8142 143.449 68.8115 143.487 68.8162C143.525 68.8209 143.561 68.833 143.594 68.8518L152.704 74.0911C152.758 74.1235 152.801 74.1729 152.825 74.2317C152.849 74.2906 152.853 74.3556 152.837 74.417C152.82 74.4783 152.784 74.5326 152.734 74.5715C152.683 74.6104 152.621 74.6318 152.558 74.6325Z" fill="#4FBEB8"/>
<path d="M152.558 77.1132C152.507 77.1134 152.457 77.1014 152.412 77.0783L143.308 71.8384C143.241 71.8005 143.191 71.7375 143.17 71.6633C143.149 71.5891 143.159 71.5097 143.197 71.4425C143.215 71.4087 143.24 71.379 143.27 71.355C143.3 71.331 143.335 71.3133 143.372 71.303C143.409 71.2927 143.448 71.2899 143.486 71.2949C143.524 71.2998 143.561 71.3124 143.594 71.3319L152.704 76.5717C152.759 76.6042 152.801 76.6536 152.825 76.7124C152.849 76.7713 152.853 76.8363 152.837 76.8977C152.82 76.959 152.784 77.0133 152.734 77.0522C152.683 77.0911 152.621 77.1125 152.558 77.1132Z" fill="#4FBEB8"/>
<path d="M152.558 81.1708C152.506 81.1719 152.456 81.1577 152.412 81.1301L143.308 75.9194C143.241 75.8804 143.191 75.8164 143.17 75.7412C143.149 75.6661 143.159 75.5858 143.197 75.5177C143.216 75.4844 143.241 75.4552 143.272 75.4318C143.302 75.4084 143.337 75.3913 143.374 75.3816C143.411 75.3718 143.449 75.3695 143.487 75.3749C143.525 75.3803 143.562 75.3932 143.594 75.4129L152.704 80.6527C152.759 80.6851 152.802 80.7345 152.826 80.7934C152.85 80.8522 152.854 80.9173 152.837 80.9786C152.821 81.04 152.784 81.0943 152.734 81.1332C152.684 81.1721 152.622 81.1935 152.558 81.1941V81.1708Z" fill="#4FBEB8"/>
<path d="M152.558 83.6799C152.507 83.6802 152.457 83.6682 152.412 83.645L143.308 78.4056C143.245 78.3656 143.2 78.3031 143.182 78.2308C143.164 78.1586 143.174 78.0822 143.211 78.0174C143.247 77.9525 143.307 77.9041 143.379 77.8821C143.45 77.8601 143.527 77.8662 143.594 77.8992L152.704 83.1385C152.759 83.171 152.801 83.2203 152.825 83.2792C152.85 83.338 152.854 83.4031 152.837 83.4644C152.82 83.5258 152.784 83.5801 152.734 83.619C152.683 83.6579 152.622 83.6793 152.558 83.6799Z" fill="#4FBEB8"/>
<path d="M152.558 86.3879C152.506 86.3889 152.455 86.3747 152.412 86.3471L143.308 81.1069C143.275 81.0881 143.246 81.0631 143.223 81.0332C143.199 81.0033 143.182 80.9692 143.172 80.9327C143.162 80.8962 143.159 80.8581 143.164 80.8205C143.169 80.783 143.181 80.7467 143.2 80.7139C143.218 80.681 143.244 80.6521 143.274 80.6289C143.304 80.6057 143.338 80.5886 143.374 80.5786C143.411 80.5686 143.449 80.5659 143.487 80.5706C143.525 80.5753 143.561 80.5874 143.594 80.6061L152.704 85.8464C152.758 85.8788 152.801 85.9282 152.825 85.987C152.849 86.0459 152.853 86.111 152.837 86.1723C152.82 86.2337 152.784 86.288 152.734 86.3269C152.683 86.3658 152.621 86.3872 152.558 86.3879Z" fill="#4FBEB8"/>
<path d="M152.558 88.8966C152.507 88.8968 152.457 88.8848 152.412 88.8617L143.308 83.6221C143.241 83.583 143.191 83.519 143.17 83.4439C143.149 83.3687 143.159 83.2884 143.197 83.2204C143.216 83.1871 143.241 83.1578 143.272 83.1345C143.302 83.1111 143.337 83.094 143.374 83.0842C143.411 83.0744 143.449 83.0722 143.487 83.0776C143.525 83.0829 143.562 83.0959 143.594 83.1156L152.704 88.3552C152.759 88.3876 152.802 88.437 152.826 88.4958C152.85 88.5547 152.854 88.6197 152.837 88.6811C152.821 88.7424 152.784 88.7967 152.734 88.8356C152.684 88.8745 152.622 88.8959 152.558 88.8966Z" fill="#4FBEB8"/>
<path d="M139.839 82.3994L115.412 68.2287C114.828 67.9085 114.314 67.4835 114.314 66.878V47.8518C114.314 47.2696 114.157 46.1576 115.412 46.7573L139.839 60.8581C140.136 60.9911 140.393 61.1991 140.585 61.4615C140.776 61.724 140.896 62.0317 140.931 62.3544V81.3398C140.931 81.9104 140.99 83.069 139.839 82.3994Z" fill="#4FBEB8"/>
<path d="M137.212 79.8262L116.598 67.8679C116.101 67.5943 115.669 67.2333 115.669 66.7036V50.6408C115.669 50.1285 115.535 49.2028 116.598 49.7152L137.212 61.6152C137.463 61.7274 137.681 61.9029 137.843 62.1244C138.006 62.3459 138.108 62.6058 138.14 62.8785V78.9005C138.14 79.4128 138.187 80.3909 137.212 79.8262Z" fill="#2E938D"/>
<path d="M127.033 65.8579C128.483 65.6389 129.453 64.1117 129.2 62.4467C128.947 60.7818 127.566 59.6096 126.117 59.8286C124.667 60.0476 123.697 61.5748 123.95 63.2398C124.203 64.9047 125.584 66.0769 127.033 65.8579Z" fill="white"/>
<path d="M130.367 74.0506L121.38 68.8107C121.38 68.8107 121.725 64.4558 124.207 65.1428C126.688 65.8298 129.596 67.2737 130.046 70.2604C130.277 71.5103 130.385 72.7797 130.367 74.0506Z" fill="white"/>
<path d="M133.428 48.4326C133.75 48.4326 134.012 48.043 134.012 47.5625C134.012 47.0819 133.75 46.6924 133.428 46.6924C133.105 46.6924 132.844 47.0819 132.844 47.5625C132.844 48.043 133.105 48.4326 133.428 48.4326Z" fill="#16332F"/>
<path d="M68.1934 53.547C68.1934 53.547 69.9453 58.3793 64.3218 58.7869C58.6982 59.1944 59.0661 72.1135 63.3524 71.7292C63.3524 71.7292 61.4137 75.2225 57.9274 72.5036C57.9274 72.5036 61.2209 81.5801 50.7564 81.388C40.2918 81.1959 34.4814 82.5524 30.2185 78.2965C25.9556 74.0406 26.925 67.8634 26.925 67.8634C26.2451 69.1324 25.8573 70.5364 25.7896 71.9734C25.7219 73.4105 25.9761 74.8446 26.5337 76.1714C26.5337 76.1714 21.5 74.6286 22.0781 68.0614C22.6563 61.4941 25.9556 58.0125 24.6008 52.994C23.2461 47.9754 23.8242 39.4694 28.8637 38.1187C33.9033 36.768 40.4845 28.8442 48.4322 33.4611C56.3799 38.0779 61.2209 33.2689 64.1232 40.2262C67.0255 47.1836 73.8111 47.7541 68.1934 53.547Z" fill="#16332F"/>
<path d="M66.5463 62.1445L70.0501 69.8702C70.0501 69.8702 71.3114 72.5716 66.3711 72.4785C61.4309 72.3853 66.5463 62.1445 66.5463 62.1445Z" fill="#EEBEA3"/>
<path opacity="0.3" d="M146.583 100.384L103.224 75.2387C102.191 74.6565 101.28 73.9113 101.28 72.84V39.0085C101.28 37.9431 100.999 35.9927 103.224 37.0698L146.583 62.1043C147.751 62.768 148.534 63.7054 148.534 64.7708V98.4451C148.534 99.5105 148.604 101.572 146.583 100.384Z" fill="#DF4C97"/>
</svg>
