<svg width="91" height="32" viewBox="0 0 91 32" fill="none" xmlns="http://www.w3.org/2000/svg">
<g clip-path="url(#clip0)">
<path d="M15.7569 0H10.7282C7.87156 0 5.18016 1.15975 3.1498 3.26318C1.11945 5.36662 0 8.1549 0 11.1144V16.638C0 19.5975 1.11945 22.3857 3.1498 24.4892C5.18016 26.5926 7.87156 27.7524 10.7282 27.7524H13.6773C14.3345 27.7524 14.8657 27.2 14.8657 26.5213V24.1794C14.8657 23.4986 14.3325 22.9483 13.6773 22.9483H10.7282C7.36397 22.9483 4.63716 20.1233 4.63716 16.638V11.1144C4.63716 7.62904 7.36397 4.80408 10.7282 4.80408H15.7569C16.414 4.80408 16.9452 4.25172 16.9452 3.57299V1.23108C16.9452 0.552357 16.414 0 15.7569 0Z" fill="#DF4C97"/>
<path d="M11.5994 15.9144C12.6858 14.7889 12.6858 12.9641 11.5994 11.8386C10.513 10.7131 8.75159 10.7131 7.6652 11.8386C6.57881 12.9641 6.57881 14.7889 7.6652 15.9144C8.75159 17.0399 10.513 17.0399 11.5994 15.9144Z" fill="#DF4C97"/>
<path d="M38.1635 12.2681H35.903C35.2459 12.2681 34.7147 12.8204 34.7147 13.4991V16.638C34.7147 20.1234 31.9879 22.9483 28.6236 22.9483H19.3395C18.6824 22.9483 18.1512 23.5007 18.1512 24.1794V26.5213C18.1512 27.2021 18.6843 27.7524 19.3395 27.7524H27.1736L32.4364 32L32.9598 26.8067C34.152 26.2584 35.2518 25.4777 36.204 24.4912C38.2343 22.3878 39.3538 19.5995 39.3538 16.64V13.5012C39.3538 12.8204 38.8206 12.2681 38.1635 12.2681Z" fill="#6F4E9D"/>
<path d="M30.0991 20.317C31.2461 19.2633 31.3543 17.4391 30.3372 16.2487C29.32 15.0605 27.5592 14.9484 26.4103 16.0021C25.2633 17.0559 25.1551 18.8801 26.1722 20.0704C27.1893 21.2607 28.9502 21.3708 30.0991 20.317Z" fill="#6F4E9D"/>
<path d="M24.2088 7.31532C23.0618 8.36908 22.9536 10.1933 23.9708 11.3836C24.9879 12.5719 26.7488 12.684 27.8977 11.6302C29.0447 10.5765 29.1529 8.75227 28.1358 7.56195C27.1186 6.37163 25.3578 6.26157 24.2088 7.31532Z" fill="#4FBEB8"/>
<path d="M38.7047 7.31924C37.9669 5.23006 36.4835 3.34675 34.5259 2.01376C32.6195 0.715414 30.355 0 28.1476 0H21.4211C20.764 0 20.2328 0.552357 20.2328 1.23108V3.57299C20.2328 4.25376 20.7659 4.80408 21.4211 4.80408H28.1476C30.5931 4.80408 33.011 6.27363 34.0675 8.31796C34.2741 8.71745 34.6774 8.96815 35.1142 8.96815H37.5872C38.4115 8.96815 38.986 8.12025 38.7047 7.31924Z" fill="#4FBEB8"/>
</g>
<defs>
<clipPath id="clip0">
<rect width="91" height="32" fill="white"/>
</clipPath>
</defs>
</svg>
