<svg width="92" height="32" viewBox="0 0 92 32" fill="none" xmlns="http://www.w3.org/2000/svg">
<g clip-path="url(#clip0)">
<path d="M47.0164 9.35296C47.4759 9.60774 48.0209 9.73411 48.6554 9.73411C48.9298 9.73411 49.2003 9.71576 49.4689 9.68111C49.7374 9.64647 49.99 9.59551 50.2307 9.53233C50.4693 9.4671 50.6842 9.38557 50.8731 9.28774V6.28952H48.5639V7.10481H49.8726V8.68035C49.7334 8.72112 49.5902 8.75576 49.441 8.7843C49.1984 8.8271 48.9517 8.84952 48.7011 8.84952C48.0447 8.84952 47.5515 8.65589 47.2213 8.26659C46.8911 7.87729 46.726 7.30048 46.726 6.53615C46.726 5.78812 46.8871 5.2215 47.2093 4.83628C47.5316 4.45105 48.003 4.25742 48.6255 4.25742C48.9497 4.25742 49.2501 4.30838 49.5246 4.41029C49.799 4.5122 50.0815 4.67729 50.3719 4.90557L50.7478 4.08214C50.4912 3.84163 50.177 3.66226 49.807 3.53793C49.437 3.41564 49.0372 3.35449 48.6096 3.35449C47.993 3.35449 47.46 3.48086 47.0104 3.73564C46.5589 3.99042 46.2129 4.35526 45.9702 4.8322C45.7275 5.30914 45.6062 5.8778 45.6062 6.53819C45.6062 7.2108 45.7275 7.78354 45.9702 8.26048C46.2069 8.73334 46.557 9.09819 47.0164 9.35296Z" fill="white"/>
<path d="M56.5756 8.736H53.7353V3.42236H52.6313V9.66542H56.5756V8.736Z" fill="white"/>
<path d="M58.7656 9.34946C59.1992 9.60627 59.7124 9.73468 60.3051 9.73468C60.9038 9.73468 61.4189 9.60627 61.8486 9.34946C62.2782 9.09264 62.6124 8.72372 62.849 8.24474C63.0857 7.76576 63.2031 7.19506 63.2031 6.53468C63.2031 5.88041 63.0857 5.31379 62.853 4.83889C62.6183 4.36194 62.2862 3.99507 61.8525 3.73825C61.4189 3.48143 60.9038 3.35303 60.3051 3.35303C59.7124 3.35303 59.1992 3.48143 58.7656 3.73825C58.332 3.99507 57.9978 4.36194 57.7651 4.83889C57.5304 5.31583 57.415 5.88449 57.415 6.54487C57.415 7.19914 57.5324 7.76576 57.7651 8.24474C57.9998 8.72372 58.332 9.09264 58.7656 9.34946ZM58.9963 4.83073C59.3165 4.44143 59.7521 4.2478 60.3051 4.2478C60.864 4.2478 61.3036 4.44143 61.6218 4.83073C61.9421 5.22003 62.1012 5.78869 62.1012 6.53672C62.1012 7.28474 61.9421 7.85544 61.6218 8.25086C61.3016 8.64627 60.864 8.84194 60.3051 8.84194C59.7521 8.84194 59.3146 8.64423 58.9963 8.25086C58.6761 7.85544 58.517 7.28474 58.517 6.53672C58.5189 5.78666 58.6781 5.21799 58.9963 4.83073Z" fill="white"/>
<path d="M68.5875 6.443C68.8719 6.33905 69.0986 6.17803 69.2637 5.95587C69.4527 5.70517 69.5462 5.40351 69.5462 5.05294C69.5462 4.53931 69.3652 4.13778 69.0032 3.85243C68.6412 3.56708 68.1499 3.42236 67.5273 3.42236H64.8501V9.66338H67.6049C68.2672 9.66338 68.7804 9.51255 69.1484 9.21294C69.5163 8.91128 69.6993 8.49548 69.6993 7.96351C69.6993 7.55383 69.5919 7.21548 69.3791 6.94644C69.1862 6.70593 68.9216 6.5388 68.5875 6.443ZM65.9262 4.30899H67.3384C67.7322 4.30899 68.0226 4.37829 68.2115 4.51892C68.4005 4.65956 68.494 4.87765 68.494 5.17727C68.494 5.46873 68.4005 5.68886 68.2115 5.83561C68.0226 5.98236 67.7322 6.05574 67.3384 6.05574H65.9262V4.30899ZM68.3766 8.56478C68.1916 8.70746 67.8953 8.7788 67.4915 8.7788H65.9262V6.93829H67.4915C67.8913 6.93829 68.1837 7.0137 68.3726 7.16657C68.5616 7.31943 68.6551 7.55179 68.6551 7.86771C68.6551 8.18975 68.5616 8.42211 68.3766 8.56478Z" fill="white"/>
<path d="M76.987 9.66534L74.2322 3.42432H73.3332L70.5784 9.66534H71.6902L72.3068 8.2019H75.2784L75.8891 9.66534H76.987ZM72.6768 7.32343L73.8006 4.6554L74.9145 7.32343H72.6768Z" fill="white"/>
<path d="M82.1027 8.736H79.2623V3.42236H78.1584V9.66542H82.1027V8.736Z" fill="white"/>
<path d="M45.7893 12.8799V19.1209H49.7315V18.1915H46.8912V12.8799H45.7893Z" fill="white"/>
<path d="M55.1656 18.2343H52.1701V16.3938H54.9945V15.501H52.1701V13.7645H55.1656V12.8799H51.092V19.1209H55.1656V18.2343Z" fill="white"/>
<path d="M58.6901 12.8799L55.9353 19.1209H57.0472L57.6638 17.6575H60.6354L61.246 19.1209H62.3419L59.5871 12.8799H58.6901ZM58.0317 16.779L59.1555 14.111L60.2694 16.779H58.0317Z" fill="white"/>
<path d="M66.2563 16.6298C66.4015 16.6991 66.5148 16.8377 66.5944 17.0415L67.3642 19.1185H68.5277L67.7739 17.121C67.6764 16.852 67.5452 16.6543 67.3801 16.5258C67.2667 16.4382 67.1434 16.3811 67.0081 16.3526C67.2687 16.2711 67.4915 16.1488 67.6784 15.9857C68.0484 15.6616 68.2353 15.2255 68.2353 14.6751C68.2353 14.0963 68.0563 13.652 67.6963 13.3422C67.3363 13.0323 66.8132 12.8774 66.123 12.8774H63.5134V19.1185H64.5994V16.5258H65.7113C65.9281 16.5258 66.1111 16.5605 66.2563 16.6298ZM64.5915 15.6494V13.7641H65.9679C66.3895 13.7641 66.6978 13.8395 66.8928 13.9923C67.0857 14.1452 67.1832 14.3816 67.1832 14.7016C67.1832 15.0176 67.0857 15.254 66.8928 15.4109C66.6978 15.5679 66.3915 15.6474 65.9679 15.6474H64.5915V15.6494Z" fill="white"/>
<path d="M74.1306 17.2437L70.8527 12.8799H70.0332V19.1209H71.0675V14.7632L74.3354 19.1209H75.1649V12.8799H74.1306V17.2437Z" fill="white"/>
<path d="M78.1088 12.8799H77.0049V19.1209H78.1088V12.8799Z" fill="white"/>
<path d="M84.0442 17.2437L80.7682 12.8799H79.9468V19.1209H80.9831V14.7632L84.251 19.1209H85.0804V12.8799H84.0442V17.2437Z" fill="white"/>
<path d="M89.6908 15.7456V16.5609H90.9996V18.1364C90.8604 18.1772 90.7172 18.2118 90.568 18.2404C90.3253 18.2832 90.0787 18.3056 89.8281 18.3056C89.1717 18.3056 88.6784 18.112 88.3482 17.7227C88.0181 17.3334 87.853 16.7565 87.853 15.9922C87.853 15.2442 88.0141 14.6776 88.3363 14.2923C88.6585 13.9071 89.1299 13.7135 89.7525 13.7135C90.0767 13.7135 90.377 13.7644 90.6515 13.8663C90.926 13.9683 91.2084 14.1334 91.4988 14.3616L91.8748 13.5382C91.6182 13.2977 91.3039 13.1183 90.934 12.994C90.564 12.8717 90.1642 12.8105 89.7366 12.8105C89.12 12.8105 88.5869 12.9369 88.1374 13.1917C87.6859 13.4465 87.3398 13.8113 87.0971 14.2883C86.8545 14.7652 86.7332 15.3339 86.7332 15.9942C86.7332 16.6669 86.8545 17.2396 87.0971 17.7165C87.3398 18.1935 87.6899 18.5583 88.1493 18.8131C88.6088 19.0679 89.1538 19.1942 89.7883 19.1942C90.0628 19.1942 90.3333 19.1759 90.6018 19.1413C90.8703 19.1066 91.1229 19.0556 91.3636 18.9925C91.6023 18.9272 91.8171 18.8457 92.0061 18.7479V15.7456H89.6908Z" fill="white"/>
<path d="M47.8837 22.335L45.1309 28.576H46.2427L46.8593 27.1125H49.8309L50.4415 28.576H51.5375L48.7827 22.335H47.8837ZM47.2273 26.2361L48.3511 23.5681L49.4649 26.2361H47.2273Z" fill="white"/>
<path d="M55.3006 23.1767C55.6089 23.1767 55.8973 23.2277 56.1639 23.3296C56.4324 23.4315 56.7049 23.5966 56.9853 23.8249L57.3453 23.0014C57.1066 22.7609 56.8043 22.5795 56.4423 22.4531C56.0803 22.3268 55.6945 22.2656 55.2827 22.2656C54.6781 22.2656 54.153 22.3961 53.7094 22.6549C53.2639 22.9158 52.9238 23.2827 52.6871 23.7596C52.4504 24.2366 52.3311 24.7991 52.3311 25.4473C52.3311 26.1015 52.4484 26.6682 52.6871 27.1471C52.9238 27.6261 53.2639 27.9971 53.7094 28.2559C54.155 28.5168 54.6781 28.6452 55.2827 28.6452C55.6925 28.6452 56.0803 28.582 56.4423 28.4577C56.8043 28.3313 57.1047 28.1499 57.3453 27.9094L56.9853 27.086C56.7049 27.3143 56.4324 27.4794 56.1639 27.5813C55.8953 27.6832 55.6069 27.7342 55.3006 27.7342C54.7139 27.7342 54.2584 27.5364 53.9362 27.1431C53.614 26.7497 53.4528 26.1831 53.4528 25.4473C53.4528 24.7115 53.614 24.1489 53.9362 23.7596C54.2584 23.3703 54.7139 23.1767 55.3006 23.1767Z" fill="white"/>
<path d="M61.5463 23.1767C61.8546 23.1767 62.143 23.2277 62.4095 23.3296C62.678 23.4315 62.9505 23.5966 63.231 23.8249L63.591 23.0014C63.3523 22.7609 63.05 22.5795 62.688 22.4531C62.326 22.3268 61.9401 22.2656 61.5284 22.2656C60.9237 22.2656 60.3986 22.3961 59.955 22.6549C59.5095 22.9158 59.1694 23.2827 58.9327 23.7596C58.696 24.2366 58.5767 24.7991 58.5767 25.4473C58.5767 26.1015 58.694 26.6682 58.9327 27.1471C59.1694 27.6261 59.5095 27.9971 59.955 28.2559C60.4006 28.5168 60.9237 28.6452 61.5284 28.6452C61.9381 28.6452 62.326 28.582 62.688 28.4577C63.05 28.3313 63.3503 28.1499 63.591 27.9094L63.231 27.086C62.9505 27.3143 62.678 27.4794 62.4095 27.5813C62.141 27.6832 61.8526 27.7342 61.5463 27.7342C60.9595 27.7342 60.504 27.5364 60.1818 27.1431C59.8596 26.7497 59.6985 26.1831 59.6985 25.4473C59.6985 24.7115 59.8596 24.1489 60.1818 23.7596C60.504 23.3703 60.9595 23.1767 61.5463 23.1767Z" fill="white"/>
<path d="M65.1304 28.576H69.2019V27.6914H66.2084V25.8509H69.0308V24.9561H66.2084V23.2195H69.2019V22.335H65.1304V28.576Z" fill="white"/>
<path d="M74.5405 25.6349C74.3456 25.4983 74.1109 25.3801 73.8344 25.2802C73.5579 25.1804 73.2437 25.0927 72.8896 25.0173C72.5813 24.9419 72.3287 24.8644 72.1318 24.789C71.9349 24.7136 71.7897 24.6199 71.6962 24.5077C71.6027 24.3977 71.555 24.257 71.555 24.0879C71.555 23.7964 71.6684 23.5681 71.8971 23.403C72.1259 23.24 72.4361 23.1584 72.83 23.1584C73.1542 23.1584 73.4665 23.2135 73.7628 23.3215C74.0592 23.4295 74.3436 23.5967 74.6181 23.8249L74.994 23.0015C74.8289 22.8446 74.632 22.71 74.4033 22.602C74.1745 22.494 73.9259 22.4104 73.6554 22.3513C73.3849 22.2922 73.1064 22.2637 72.822 22.2637C72.3486 22.2637 71.9369 22.3432 71.5868 22.5042C71.2368 22.6652 70.9643 22.8894 70.7694 23.1748C70.5744 23.4601 70.479 23.7883 70.479 24.1572C70.479 24.4262 70.5267 24.6586 70.6202 24.8542C70.7137 25.0499 70.8529 25.217 71.0359 25.3577C71.2189 25.4983 71.4456 25.6186 71.7201 25.7205C71.9946 25.8224 72.3108 25.908 72.6689 25.9793C72.9712 26.0486 73.2258 26.122 73.4306 26.1995C73.6355 26.2749 73.7907 26.3666 73.8921 26.4746C73.9955 26.5827 74.0453 26.7192 74.0453 26.8823C74.0453 27.1574 73.9299 27.3694 73.6992 27.5223C73.4684 27.6751 73.1422 27.7506 72.7206 27.7506C72.3387 27.7506 71.9886 27.6976 71.6684 27.5936C71.3482 27.4876 71.0359 27.3185 70.7276 27.0861L70.3596 27.9095C70.5486 28.0665 70.7654 28.201 71.014 28.3131C71.2626 28.4232 71.5292 28.5067 71.8136 28.5638C72.098 28.6188 72.3984 28.6474 72.7126 28.6474C73.2139 28.6474 73.6455 28.572 74.0095 28.4232C74.3715 28.2744 74.6499 28.0604 74.8428 27.7832C75.0358 27.506 75.1332 27.1799 75.1332 26.8048C75.1332 26.5419 75.0835 26.3156 74.9841 26.1261C74.8806 25.9365 74.7354 25.7735 74.5405 25.6349Z" fill="white"/>
<path d="M80.5711 25.6349C80.3761 25.4983 80.1414 25.3801 79.865 25.2802C79.5885 25.1804 79.2742 25.0927 78.9202 25.0173C78.6119 24.9419 78.3593 24.8644 78.1624 24.789C77.9654 24.7136 77.8202 24.6199 77.7268 24.5077C77.6333 24.3977 77.5855 24.257 77.5855 24.0879C77.5855 23.7964 77.6989 23.5681 77.9277 23.403C78.1564 23.24 78.4667 23.1584 78.8605 23.1584C79.1847 23.1584 79.497 23.2135 79.7934 23.3215C80.0897 23.4295 80.3741 23.5967 80.6486 23.8249L81.0246 23.0015C80.8595 22.8446 80.6626 22.71 80.4338 22.602C80.2051 22.494 79.9565 22.4104 79.6859 22.3513C79.4154 22.2922 79.137 22.2637 78.8525 22.2637C78.3792 22.2637 77.9674 22.3432 77.6174 22.5042C77.2673 22.6652 76.9948 22.8894 76.7999 23.1748C76.605 23.4601 76.5095 23.7883 76.5095 24.1572C76.5095 24.4262 76.5572 24.6586 76.6507 24.8542C76.7442 25.0499 76.8834 25.217 77.0664 25.3577C77.2494 25.4983 77.4761 25.6186 77.7506 25.7205C78.0251 25.8224 78.3414 25.908 78.6994 25.9793C79.0017 26.0486 79.2563 26.122 79.4612 26.1995C79.6661 26.2749 79.8212 26.3666 79.9226 26.4746C80.0261 26.5827 80.0758 26.7192 80.0758 26.8823C80.0758 27.1574 79.9604 27.3694 79.7297 27.5223C79.499 27.6751 79.1728 27.7506 78.7511 27.7506C78.3692 27.7506 78.0191 27.6976 77.6989 27.5936C77.3787 27.4876 77.0664 27.3185 76.7581 27.0861L76.3901 27.9095C76.5791 28.0665 76.7959 28.201 77.0445 28.3131C77.2932 28.4232 77.5597 28.5067 77.8441 28.5638C78.1285 28.6188 78.4289 28.6474 78.7432 28.6474C79.2444 28.6474 79.676 28.572 80.04 28.4232C80.402 28.2744 80.6805 28.0604 80.8734 27.7832C81.0663 27.506 81.1638 27.1799 81.1638 26.8048C81.1638 26.5419 81.1141 26.3156 81.0146 26.1261C80.9132 25.9365 80.766 25.7735 80.5711 25.6349Z" fill="white"/>
<path d="M15.93 0H10.8461C7.95806 0 5.23708 1.15975 3.18442 3.26318C1.13175 5.36662 0 8.1549 0 11.1144V16.638C0 19.5974 1.13175 22.3857 3.18442 24.4892C5.23708 26.5926 7.95806 27.7524 10.8461 27.7524H13.8276C14.492 27.7524 15.029 27.2 15.029 26.5213V24.1794C15.029 23.4986 14.49 22.9483 13.8276 22.9483H10.8461C7.44489 22.9483 4.68811 20.1233 4.68811 16.638V11.1144C4.68811 7.62904 7.44489 4.80408 10.8461 4.80408H15.93C16.5944 4.80408 17.1314 4.25172 17.1314 3.57299V1.23108C17.1314 0.552357 16.5944 0 15.93 0Z" fill="white"/>
<path d="M11.7268 15.9144C12.8252 14.7889 12.8252 12.9641 11.7268 11.8386C10.6285 10.7131 8.84777 10.7131 7.74944 11.8386C6.65111 12.9641 6.65111 14.7889 7.74944 15.9144C8.84777 17.0398 10.6285 17.0398 11.7268 15.9144Z" fill="white"/>
<path d="M38.5829 12.2681H36.2975C35.6332 12.2681 35.0961 12.8204 35.0961 13.4991V16.638C35.0961 20.1234 32.3393 22.9483 28.9381 22.9483H19.552C18.8876 22.9483 18.3506 23.5007 18.3506 24.1794V26.5213C18.3506 27.2021 18.8896 27.7524 19.552 27.7524H27.4722L32.7928 32L33.3219 26.8067C34.5273 26.2584 35.6391 25.4777 36.6018 24.4913C38.6545 22.3878 39.7862 19.5995 39.7862 16.64V13.5012C39.7862 12.8204 39.2472 12.2681 38.5829 12.2681Z" fill="white"/>
<path d="M30.4299 20.317C31.5895 19.2633 31.6989 17.4391 30.6705 16.2487C29.6422 15.0605 27.862 14.9484 26.7004 16.0021C25.5408 17.0559 25.4315 18.8801 26.4598 20.0704C27.4881 21.2607 29.2683 21.3708 30.4299 20.317Z" fill="white"/>
<path d="M24.4749 7.31532C23.3153 8.36908 23.2059 10.1933 24.2342 11.3836C25.2625 12.5719 27.0427 12.684 28.2043 11.6302C29.3639 10.5765 29.4733 8.75226 28.4449 7.56195C27.4166 6.37163 25.6364 6.26157 24.4749 7.31532Z" fill="white"/>
<path d="M39.13 7.31924C38.3841 5.23006 36.8844 3.34675 34.9053 2.01376C32.9779 0.715414 30.6886 0 28.4569 0H21.6564C20.9921 0 20.4551 0.552357 20.4551 1.23108V3.57299C20.4551 4.25376 20.9941 4.80408 21.6564 4.80408H28.4569C30.9292 4.80408 33.3737 6.27363 34.4418 8.31796C34.6507 8.71745 35.0584 8.96815 35.5 8.96815H38.0002C38.8336 8.96815 39.4144 8.12025 39.13 7.31924Z" fill="white"/>
</g>
<defs>
<clipPath id="clip0">
<rect width="92" height="32" fill="white"/>
</clipPath>
</defs>
</svg>
