<?xml version="1.0" standalone="no"?>
<!DOCTYPE svg PUBLIC "-//W3C//DTD SVG 20010904//EN"
 "http://www.w3.org/TR/2001/REC-SVG-20010904/DTD/svg10.dtd">
<svg version="1.0" xmlns="http://www.w3.org/2000/svg"
 width="98.000000pt" height="98.000000pt" viewBox="0 0 98.000000 98.000000"
 preserveAspectRatio="xMidYMid meet">
<metadata>
Created by potrace 1.11, written by Peter Selinger 2001-2013
</metadata>
<g transform="translate(0.000000,98.000000) scale(0.100000,-0.100000)"
fill="#000000" stroke="none">
<path d="M159 864 c-66 -33 -115 -86 -139 -152 -19 -50 -21 -72 -18 -187 3
-109 8 -137 26 -171 27 -53 73 -99 126 -126 50 -26 178 -37 201 -18 18 15 20
83 3 98 -7 5 -43 12 -80 14 -76 4 -110 23 -143 78 -26 46 -28 238 -2 287 31
59 71 78 177 82 57 2 98 8 102 15 9 14 10 69 2 91 -6 13 -22 16 -108 14 -84
-1 -109 -5 -147 -25z"/>
<path d="M516 874 c-10 -26 -7 -79 6 -92 8 -8 48 -12 115 -12 119 0 153 -11
201 -64 27 -29 39 -36 71 -36 78 0 76 55 -6 136 -66 64 -128 84 -267 84 -95 0
-115 -3 -120 -16z"/>
<path d="M605 695 c-26 -25 -29 -35 -19 -71 6 -22 42 -44 73 -44 10 0 28 11
41 25 18 19 21 31 16 56 -12 60 -69 77 -111 34z"/>
<path d="M196 589 c-31 -25 -33 -57 -5 -93 42 -54 129 -13 115 55 -11 58 -62
76 -110 38z"/>
<path d="M874 568 c-4 -7 -9 -40 -10 -74 -2 -66 -18 -106 -56 -140 -35 -32
-61 -37 -203 -39 -72 -1 -136 -5 -143 -9 -16 -9 -16 -93 0 -102 7 -4 58 -8
114 -9 99 -1 102 -2 145 -35 24 -19 53 -43 64 -53 20 -18 20 -18 28 45 6 48
13 67 29 78 88 60 128 130 136 232 2 36 2 78 -2 92 -6 23 -11 26 -51 26 -24 0
-47 -5 -51 -12z"/>
<path d="M678 503 c-22 -6 -41 -54 -33 -85 6 -24 41 -48 69 -48 7 0 25 9 40
21 63 49 6 134 -76 112z"/>
</g>
</svg>
