<svg width="120" height="118" viewBox="0 0 120 118" fill="none" xmlns="http://www.w3.org/2000/svg">
<path d="M118.623 77.9008L64.2442 45.5012C63.0673 44.6575 61.6935 44.1414 60.2595 44.0042C60.174 43.9986 60.0883 43.9986 60.0028 44.0042C59.9154 43.9986 59.8278 43.9986 59.7405 44.0042C58.3067 44.1424 56.9332 44.6584 55.7558 45.5012L1.37673 77.9008C0.494729 78.8064 0 80.0289 0 81.3029C0 82.5769 0.494729 83.7995 1.37673 84.7051L55.1364 116.163C56.4199 116.935 58.5295 118.086 60.0028 117.995C61.4761 118.086 63.5856 116.935 64.8636 116.163L118.623 84.7051C119.505 83.7995 120 82.5769 120 81.3029C120 80.0289 119.505 78.8064 118.623 77.9008Z" fill="#C3C3C3"/>
<path d="M78.1309 51.1268V88.0492C78.768 88.0696 79.3952 87.8877 79.922 87.5297C81.0618 86.8804 103.715 73.7958 103.715 73.7958C103.715 73.7958 104.268 73.5296 104.366 72.1789L104.32 35.25L78.1309 51.1268Z" fill="#EFEFEF"/>
<path d="M78.3875 88.2144V51.2919L71.6398 41.8892L61.2903 36.3047L52.2109 35.5449V73.2886L57.3889 76.487L78.3875 88.2144Z" fill="#EFEFEF"/>
<path d="M103.734 33.9514L80.0067 20.0746C79.4952 19.7079 78.8949 19.4838 78.2677 19.4253H78.0397C77.4124 19.4838 76.8122 19.7079 76.3007 20.0746L52.5731 33.9514C52.1857 34.3396 51.9683 34.8649 51.9683 35.4124C51.9683 35.96 52.1857 36.4853 52.5731 36.8735L76.0206 50.3412C76.611 50.8459 77.363 51.1234 78.1407 51.1234C78.9184 51.1234 79.6704 50.8459 80.2607 50.3412L103.708 36.8735C104.099 36.4888 104.321 35.9654 104.326 35.4178C104.331 34.8702 104.118 34.343 103.734 33.9514Z" fill="#4FBEB8"/>
<path d="M80.9517 60.4452V64.5362L83.8566 62.9713V58.7114L80.9517 60.4452Z" fill="#16332F"/>
<path d="M84.1753 58.5751V62.8025L87.0802 61.2635V56.8413L84.1753 58.5751Z" fill="#16332F"/>
<path d="M80.9517 55.9779V60.0689L83.8566 58.3481V54.2441L80.9517 55.9779Z" fill="#16332F"/>
<path d="M84.1753 54.1078V58.1987L87.0802 56.4779V52.374L84.1753 54.1078Z" fill="#16332F"/>
<path d="M89.21 56.0103V60.1013L92.1083 58.5363V54.27L89.21 56.0103Z" fill="#16332F"/>
<path d="M92.4341 54.1402V58.3675L95.3325 56.8285V52.3999L92.4341 54.1402Z" fill="#16332F"/>
<path d="M89.21 51.5424V55.6334L92.1083 53.9126V49.8086L89.21 51.5424Z" fill="#16332F"/>
<path d="M92.4341 49.6724V53.7633L95.3325 52.0425V47.9321L92.4341 49.6724Z" fill="#16332F"/>
<path d="M96.6226 51.9579V56.0489L99.5274 54.4904V50.2241L96.6226 51.9579Z" fill="#16332F"/>
<path d="M99.8462 50.0882V54.322L102.751 52.7765V48.3545L99.8462 50.0882Z" fill="#16332F"/>
<path d="M96.6226 47.4906V51.5816L99.5274 49.8608V45.7568L96.6226 47.4906Z" fill="#16332F"/>
<path d="M99.8462 45.6205V49.7114L102.751 47.9906V43.8867L99.8462 45.6205Z" fill="#16332F"/>
<path d="M80.9515 66.0819L102.653 54.4842V53.4258L80.9385 64.9974L80.9515 66.0819Z" fill="#16332F"/>
<path d="M80.9517 74.4584V78.5493L83.8566 76.9908V72.7246L80.9517 74.4584Z" fill="#16332F"/>
<path d="M84.1753 72.5883V76.8221L87.0802 75.2766V70.8545L84.1753 72.5883Z" fill="#16332F"/>
<path d="M80.9517 69.9906V74.0881L83.8566 72.3608V68.2568L80.9517 69.9906Z" fill="#16332F"/>
<path d="M84.1753 68.1205V72.2179L87.0802 70.4906V66.3867L84.1753 68.1205Z" fill="#16332F"/>
<path d="M89.21 70.0234V74.1143L92.1083 72.5559V68.2896L89.21 70.0234Z" fill="#16332F"/>
<path d="M92.4341 68.1532V72.387L95.3325 70.8416V66.4194L92.4341 68.1532Z" fill="#16332F"/>
<path d="M89.21 65.5556V69.6465L92.1083 67.9257V63.8218L89.21 65.5556Z" fill="#16332F"/>
<path d="M92.4341 63.6855V67.7764L95.3325 66.0556V61.9517L92.4341 63.6855Z" fill="#16332F"/>
<path d="M96.6226 65.9711V70.0686L99.5274 68.5036V64.2373L96.6226 65.9711Z" fill="#16332F"/>
<path d="M99.8462 64.101V68.3348L102.751 66.7893V62.3672L99.8462 64.101Z" fill="#16332F"/>
<path d="M96.6226 61.5038V65.6013L99.5274 63.874V59.77L96.6226 61.5038Z" fill="#16332F"/>
<path d="M99.8462 59.6337V63.7311L102.751 62.0038V57.8999L99.8462 59.6337Z" fill="#16332F"/>
<path d="M80.9515 80.0948L102.653 68.4974V67.439L80.9385 79.0169L80.9515 80.0948Z" fill="#16332F"/>
<path d="M64.0433 62.6856C61.9069 61.9323 60.1744 63.0687 60.2396 64.9323V78.1142L66.362 81.5883V67.3804C66.362 67.3804 66.7853 63.6466 64.0433 62.6856Z" fill="#16332F"/>
<path d="M74.7441 75.1986V79.2896L71.8457 77.5688V73.4648L74.7441 75.1986Z" fill="#16332F"/>
<path d="M71.52 73.3285V77.4195L68.6216 75.6987V71.5947L71.52 73.3285Z" fill="#16332F"/>
<path d="M74.7441 70.7309V74.8219L71.8457 73.1011V68.9971L74.7441 70.7309Z" fill="#16332F"/>
<path d="M71.52 68.8607V72.9517L68.6216 71.2309V67.127L71.52 68.8607Z" fill="#16332F"/>
<path d="M59.1709 67.1923V71.2897L56.2725 69.5624V65.4585L59.1709 67.1923Z" fill="#16332F"/>
<path d="M55.9467 65.3221V69.4195L53.0483 67.6923V63.5884L55.9467 65.3221Z" fill="#16332F"/>
<path d="M59.1709 62.7245V66.8221L56.2725 65.1012V60.9907L59.1709 62.7245Z" fill="#16332F"/>
<path d="M55.9467 60.8544V64.9518L53.0483 63.2245V59.1206L55.9467 60.8544Z" fill="#16332F"/>
<path d="M63.5156 74.2896V80.0429L65.5152 81.1728V75.5039L63.5156 74.2896Z" fill="#16332F"/>
<path d="M61.0728 72.8677V78.6209L63.0723 79.7508V74.082L61.0728 72.8677Z" fill="#16332F"/>
<path d="M74.7441 60.056V64.1534L71.8457 62.5885V58.3223L74.7441 60.056Z" fill="#16332F"/>
<path d="M71.52 58.1855V62.4193L68.6216 60.8738V56.4517L71.52 58.1855Z" fill="#16332F"/>
<path d="M74.7441 55.5883V59.6858L71.8457 57.965V53.8545L74.7441 55.5883Z" fill="#16332F"/>
<path d="M71.52 53.7181V57.8156L68.6216 56.0948V51.9844L71.52 53.7181Z" fill="#16332F"/>
<path d="M66.4918 55.6205V59.718L63.5869 58.153V53.8867L66.4918 55.6205Z" fill="#16332F"/>
<path d="M63.268 53.7504V57.9843L60.3696 56.4388V52.0166L63.268 53.7504Z" fill="#16332F"/>
<path d="M66.4918 51.1532V55.2506L63.5869 53.5233V49.4194L66.4918 51.1532Z" fill="#16332F"/>
<path d="M63.268 49.2826V53.38L60.3696 51.6528V47.5488L63.268 49.2826Z" fill="#16332F"/>
<path d="M59.0732 51.5687V55.6662L56.1748 54.1012V49.835L59.0732 51.5687Z" fill="#16332F"/>
<path d="M55.8491 49.6986V53.9324L52.9507 52.387V47.9648L55.8491 49.6986Z" fill="#16332F"/>
<path d="M59.0732 47.1074V51.1984L56.1748 49.4776V45.3672L59.0732 47.1074Z" fill="#16332F"/>
<path d="M55.849 45.2374V49.3283L52.9507 47.6075V43.4971L55.849 45.2374Z" fill="#16332F"/>
<path d="M74.7438 65.6919L53.0483 54.0945V53.0425L74.7633 64.614L74.7438 65.6919Z" fill="#16332F"/>
<path d="M26.7218 69.3124L26.2905 69.9971L77.7278 98.418L78.1591 97.7334L26.7218 69.3124Z" fill="white"/>
<path d="M13.5773 78.1054L13.146 78.79L64.5833 107.211L65.0146 106.526L13.5773 78.1054Z" fill="white"/>
<path d="M108.39 81.0132V88.7759C108.515 88.7794 108.638 88.741 108.741 88.6664C108.973 88.5312 113.535 85.7768 113.535 85.7768C113.535 85.7768 113.647 85.722 113.665 85.4371V77.6743L108.39 81.0132Z" fill="#EFEFEF"/>
<path d="M106.538 79.4253L107.869 81.1715V87.9128L103.959 85.8577L103.051 85.2294V78.2388L104.418 78.3471L106.538 79.4253Z" fill="#EFEFEF" stroke="#EFEFEF" stroke-width="1.04304"/>
<path d="M113.542 77.1155L108.496 74.3C108.387 74.2256 108.259 74.1806 108.125 74.1698C108.117 74.168 108.108 74.168 108.099 74.1698C108.091 74.168 108.082 74.168 108.073 74.1698C107.94 74.1806 107.812 74.2256 107.703 74.3L102.657 77.1155C102.575 77.1945 102.53 77.3006 102.53 77.4112C102.53 77.5217 102.575 77.6278 102.657 77.7068L107.644 80.4343C107.769 80.5385 107.929 80.5959 108.096 80.5959C108.262 80.5959 108.423 80.5385 108.548 80.4343L113.534 77.7068C113.617 77.6288 113.664 77.5231 113.665 77.4126C113.667 77.302 113.622 77.1954 113.542 77.1155Z" fill="#A7D9D6"/>
<path d="M99.0127 86.2684V94.0348C99.1379 94.0372 99.2607 93.9989 99.3639 93.9252C99.5921 93.7937 104.157 91.0393 104.157 91.0393C104.157 91.0393 104.27 90.9808 104.287 90.6995V82.9331L99.0127 86.2684Z" fill="#EFEFEF"/>
<path d="M97.2921 84.6646L98.4915 86.4132V93.1262L95.073 91.1289L94.2598 90.5036V83.5014L95.4101 83.6005L97.2921 84.6646Z" fill="#EFEFEF" stroke="#EFEFEF" stroke-width="1.04304"/>
<path d="M104.167 82.3734L99.3887 79.5575C99.2847 79.4847 99.1638 79.4398 99.0376 79.4272H98.9919C98.8655 79.4392 98.7445 79.4841 98.6408 79.5575L93.8587 82.3734C93.7815 82.4524 93.7383 82.5586 93.7383 82.6691C93.7383 82.7797 93.7815 82.8858 93.8587 82.9648L98.5846 85.6963C98.7125 85.7832 98.8595 85.8375 99.013 85.8547C99.1666 85.8381 99.3138 85.7837 99.4413 85.6963L104.167 82.9648C104.244 82.8858 104.288 82.7797 104.288 82.6691C104.288 82.5586 104.244 82.4524 104.167 82.3734Z" fill="#A7D9D6"/>
<path d="M40.1212 0.359695C40.1752 0.251637 40.2584 0.160732 40.3614 0.0971916C40.4644 0.0336516 40.5831 0 40.7042 0C40.8253 0 40.944 0.0336516 41.047 0.0971916C41.1499 0.160732 41.2331 0.251637 41.2871 0.359695V37.7497C41.2838 37.8148 41.2642 37.878 41.2301 37.9336C41.196 37.9892 41.1484 38.0354 41.0917 38.0679C41.1401 38.0967 41.1819 38.1353 41.2144 38.1811C41.2469 38.227 41.2695 38.2791 41.2806 38.3341V63.3604C41.2806 63.6007 41.0201 63.789 40.6944 63.789C40.3687 63.789 40.1017 63.6007 40.1017 63.3604V38.3212C40.1128 38.2661 40.1353 38.214 40.1679 38.1681C40.2004 38.1223 40.2422 38.0837 40.2906 38.0549C40.2339 38.0224 40.1863 37.9762 40.1522 37.9207C40.118 37.8651 40.0984 37.8018 40.0952 37.7367V0.359695H40.1212Z" fill="#16332F"/>
<path d="M41.0752 0.359952L48.0183 7.28209H62.1063V0.269043L41.0752 0.359952Z" fill="#4FBEB8"/>
<circle cx="44" cy="7" r="2" fill="#FCBB15"/>
<path d="M41.0752 14.2302L48.0183 7.30811H62.1063V14.3146L41.0752 14.2302Z" fill="#DF4C97"/>
</svg>
