<svg width="100" height="110" viewBox="0 0 100 110" fill="none" xmlns="http://www.w3.org/2000/svg">
<path d="M98.0799 77.6658L53.4632 51.5811C52.4963 50.9008 51.3673 50.4852 50.189 50.376H49.7631C48.5861 50.4852 47.4585 50.9008 46.4934 51.5811L1.91338 77.6658C1.18965 78.3949 0.783691 79.3792 0.783691 80.4048C0.783691 81.4305 1.18965 82.4148 1.91338 83.1439L46.0034 108.471C47.0567 109.092 48.7877 110.018 49.9966 109.95C51.2056 110.018 52.9366 109.092 53.9852 108.471L98.0799 83.153C98.8075 82.4241 99.216 81.4377 99.216 80.4094C99.216 79.3811 98.8075 78.3947 98.0799 77.6658Z" fill="#EFEFEF"/>
<path d="M53.5 101.5L44.5 107.5L41 57.5L64 55.5L77 34.5H78L80 36L70.5 60.5L53.5 64V101.5Z" fill="#2E938D"/>
<path d="M70.8267 57.935H88.2808V17.9199H84.853V53.2248H72.9436L70.8267 57.935Z" fill="#6F4E9D"/>
<path d="M12.2676 12.7109V55.2978H60.7535L63.6695 51.2017L73.9527 34.427C77.787 32.4981 79.5324 35.8285 79.5324 35.8285L71.7376 55.2978H85.778V12.7109H12.2676Z" fill="#9B82BE"/>
<path d="M74.4713 23.5557H51.8511V24.0614H74.4713V23.5557Z" fill="#6F4E9D"/>
<path d="M74.4713 27.0293H49.3486V27.535H74.4713V27.0293Z" fill="#6F4E9D"/>
<path d="M74.4713 30.7285H49.3486V31.2342H74.4713V30.7285Z" fill="#6F4E9D"/>
<path d="M38.2592 39.9469L34.5581 47.1205L23.0342 49.4756L30.5345 36.8115L38.2592 39.9469Z" fill="#CEA086"/>
<path d="M46.3418 14.2291V5.8418H25.7474V14.2291H24.8291V27.6229H24.8852C24.8852 34.7388 30.4859 40.5109 37.3904 40.5109C44.295 40.5109 49.8957 34.7388 49.8957 27.6229V14.2291H46.3418Z" fill="#EEBEA3"/>
<path d="M44.4001 107.507V59.6183L66.9082 57.097L77.8362 33.7266C77.8362 33.7266 76.4273 32.7802 73.9529 34.4274L63.2912 50.234L41.9748 45.4949C41.9748 45.4949 22.6351 37.3749 16.8311 60.4563V91.5119L44.4001 107.507Z" fill="#4FBEB8"/>
<path d="M31.3132 6.72218C31.3132 6.72218 32.1263 11.7502 36.0307 12.9278C39.9351 14.1054 49.6996 13.5997 49.8608 19.6391V26.5094C49.8608 26.5094 54.2558 25.6136 53.8212 23.6052C53.3866 21.5897 52.7347 20.0292 54.6904 18.8011C56.6461 17.573 60.6557 12.8772 58.5948 9.8575C56.534 6.83777 53.6039 -2.43816 47.2041 1.47016C40.8043 5.38569 38.9607 2.14202 37.9864 0.913897C37.0121 -0.314224 33.2128 -0.98608 31.2571 3.48572C31.2571 3.48572 28.0046 0.0180851 24.1002 4.93779C20.1958 9.8575 24.3175 13.2095 21.2823 15.3335C18.2472 17.4574 14.7704 19.8053 16.0742 21.9292C17.378 24.0531 20.7356 24.725 19.8734 27.8531C19.0112 30.9812 25.2989 31.3207 25.2989 31.3207C25.2989 31.3207 24.647 28.9728 24.9764 24.3854C25.2989 19.7981 25.8456 17.1179 27.9065 14.0981C29.9673 11.0784 31.3693 9.95864 31.3132 6.72218Z" fill="#16332F"/>
<path d="M25.3896 29.9702C26.911 29.9702 28.1444 28.6991 28.1444 27.1311C28.1444 25.5631 26.911 24.292 25.3896 24.292C23.8681 24.292 22.6348 25.5631 22.6348 27.1311C22.6348 28.6991 23.8681 29.9702 25.3896 29.9702Z" fill="#EEBEA3"/>
<path d="M48.5147 21.2866C48.5147 21.2866 44.8907 18.0863 40.6148 21.2866V29.8257C40.6148 29.8257 39.9699 30.8298 38.2175 29.6234V32.7659C36.423 32.7298 34.1729 32.4697 31.9438 31.6534C31.9438 31.6534 34.3271 35.3739 38.2175 35.7785V38.2347C38.2175 38.2347 44.6314 39.1016 47.996 30.9599C47.996 30.9599 48.9703 27.8896 48.5147 21.2866Z" fill="#CEA086"/>
<path d="M83.8577 27.4988C83.7665 26.7692 83.1707 26.7403 83.1707 26.7403C83.409 25.411 82.6941 24.992 82.6941 24.992C82.6941 25.3821 82.4347 25.8878 82.4347 25.8878C82.4978 23.7205 80.3248 23.5183 80.3248 23.5183C81.0678 24.3346 81.0748 25.3532 81.0748 25.3532C79.8621 22.2468 78.2219 23.4532 78.2219 23.4532C80.6332 25.2954 79.5117 28.6113 78.0326 27.9973C76.5466 27.3832 78.5093 26.119 78.3621 25.057C78.2149 23.9951 77.4648 25.0137 76.0699 26.6825C74.675 28.3585 75.3689 30.3668 75.7545 31.6527C75.9157 32.2018 75.7264 32.8592 75.4601 33.4444C76.7218 33.3432 78.1378 33.6033 79.2803 34.7808L79.6589 33.2999C83.346 31.5949 83.9488 28.2285 83.8577 27.4988Z" fill="#EEBEA3"/>
<path d="M80.3498 35.3237C77.4057 31.8994 74.4997 32.8815 73.3921 33.8062L73.336 33.8495L63.2912 50.2269L42.2481 44.6931C40.0191 43.7829 37.6638 43.3277 35.2455 43.3277C24.745 43.3277 16.2002 52.1341 16.2002 62.956V91.9222H17.0203V62.956C17.0203 52.5964 25.1936 44.173 35.2455 44.173C37.5657 44.173 39.8298 44.6137 41.9678 45.495L63.6627 51.2022L73.9459 34.4275C74.3244 34.153 76.6586 32.6648 79.5256 35.829L69.2144 60.5937L53.5688 63.9313V83.5379H54.3889V64.6248L70.0377 61.5723L75.4282 48.8581L80.4929 35.6773L80.3498 35.3237Z" fill="white"/>
<path d="M48.6266 25.2087C47.7855 24.3418 46.9022 23.9155 45.991 23.9372C44.5119 23.9733 43.4254 25.1798 43.4184 25.1942L42.8086 24.6235C42.8647 24.5657 44.1334 23.1353 45.9629 23.092C47.1055 23.0631 48.199 23.576 49.2014 24.6091L48.6266 25.2087Z" fill="#DF4C97"/>
<path d="M36.5563 25.2087C35.7151 24.3418 34.8319 23.9155 33.9207 23.9372C32.4416 23.9733 31.3551 25.1798 31.3481 25.1942L30.7383 24.6235C30.7944 24.5657 32.0631 23.1353 33.8926 23.092C35.0352 23.0631 36.1287 23.576 37.1311 24.6091L36.5563 25.2087Z" fill="#DF4C97"/>
<path d="M46.0893 27.1741C46.9913 27.1741 47.7226 26.4205 47.7226 25.4909C47.7226 24.5612 46.9913 23.8076 46.0893 23.8076C45.1873 23.8076 44.4561 24.5612 44.4561 25.4909C44.4561 26.4205 45.1873 27.1741 46.0893 27.1741Z" fill="#16332F"/>
<path d="M33.8017 27.1741C34.7037 27.1741 35.435 26.4205 35.435 25.4909C35.435 24.5612 34.7037 23.8076 33.8017 23.8076C32.8997 23.8076 32.1685 24.5612 32.1685 25.4909C32.1685 26.4205 32.8997 27.1741 33.8017 27.1741Z" fill="#16332F"/>
<path d="M77.4082 23.2437L74.359 20.1084L73.2725 21.1198L76.3147 24.1467L77.4082 23.2437Z" fill="#6F4E9D"/>
<path d="M31.1797 21.5175L30.7661 20.7879C32.869 19.5164 34.6284 19.5887 35.736 19.8704C36.9486 20.1811 37.6636 20.8023 37.6917 20.8312L37.1589 21.4742C37.0608 21.3875 34.7055 19.3936 31.1797 21.5175Z" fill="#CEA086"/>
</svg>
