<svg width="123" height="119" viewBox="0 0 123 119" fill="none" xmlns="http://www.w3.org/2000/svg">
<path d="M77.6658 3.69515L121.159 28.7034C121.159 28.7034 124.717 30.202 121.849 32.113C118.98 34.0241 103.522 43.0293 103.522 43.0293C102.546 43.6289 101.412 43.9231 100.267 43.8741C99.1211 43.8251 98.0167 43.4351 97.0957 42.7543C93.4001 40.3758 53.7403 17.7047 53.7403 17.7047C53.7403 17.7047 50.7203 16.0687 53.4645 14.2952C56.2087 12.5216 72.8807 3.29646 72.8807 3.29646C72.8807 3.29646 73.9701 1.78413 77.6658 3.69515Z" fill="#BC3B88"/>
<path d="M76.6046 0.931256L120.098 25.9534C120.098 25.9534 123.656 27.452 120.774 29.363C117.892 31.2741 102.447 40.2793 102.447 40.2793C101.471 40.8807 100.337 41.1761 99.1914 41.1271C98.0456 41.078 96.9409 40.6869 96.0208 40.0043C92.3251 37.6809 52.6654 15.0509 52.6654 15.0509C52.6654 15.0509 49.6592 13.4148 52.3896 11.6413C55.12 9.86774 71.8195 0.642529 71.8195 0.642529C71.8195 0.642529 72.9089 -0.979779 76.6046 0.931256Z" fill="#DF4C97"/>
<path d="M52.6513 40.1973L96.1584 65.1507C96.1584 65.1507 99.7162 66.6492 96.8479 68.5603C93.9796 70.4713 78.5211 79.4628 78.5211 79.4628C77.5469 80.0679 76.4121 80.3654 75.2654 80.3163C74.1187 80.2672 73.0136 79.8739 72.095 79.1878C68.3993 76.8781 28.7396 54.2345 28.7396 54.2345C28.7396 54.2345 25.7334 52.5984 28.4638 50.8248C31.1942 49.0513 47.88 39.8261 47.88 39.8261C47.88 39.8261 48.9694 38.3275 52.6513 40.1973Z" fill="#45286D"/>
<path d="M51.5896 37.4335L95.083 62.3869C95.083 62.3869 98.6407 63.8855 95.7724 65.7827C92.9041 67.68 77.4457 76.699 77.4457 76.699C76.4688 77.3034 75.3319 77.6005 74.1832 77.5514C73.0345 77.5024 71.9273 77.1095 71.0058 76.424C67.3239 74.1005 27.6504 51.4706 27.6504 51.4706C27.6504 51.4706 24.6442 49.8346 27.3884 48.061C30.1326 46.2875 46.8045 37.0623 46.8045 37.0623C46.8045 37.0623 47.8939 35.5775 51.5896 37.4335Z" fill="#6F4E9D"/>
<path d="M26.4228 77.8953L69.9575 102.848C69.9575 102.848 73.5153 104.361 70.647 106.258C67.7787 108.155 52.3202 117.174 52.3202 117.174C51.3433 117.778 50.2064 118.075 49.0577 118.026C47.909 117.977 46.8018 117.584 45.8803 116.899C42.1984 114.575 2.5249 91.9459 2.5249 91.9459C2.5249 91.9459 -0.4813 90.3099 2.26289 88.5364C5.00708 86.7629 21.6791 77.5378 21.6791 77.5378C21.6791 77.5378 22.7271 75.998 26.4228 77.8953Z" fill="#2E938D"/>
<path d="M25.361 75.132L68.8543 100.085C68.8543 100.085 72.4121 101.584 69.53 103.495C66.6479 105.406 51.2032 114.411 51.2032 114.411C50.229 115.016 49.0942 115.313 47.9475 115.264C46.8008 115.215 45.6957 114.822 44.7771 114.136C41.0815 111.812 1.42171 89.1965 1.42171 89.1965C1.42171 89.1965 -1.58448 87.5605 1.14592 85.7869C3.87632 84.0134 20.5759 74.7883 20.5759 74.7883C20.5759 74.7883 21.6929 73.2348 25.361 75.132Z" fill="#4FBEB8"/>
</svg>
