<svg width="422" height="200" viewBox="0 0 422 200" fill="none" xmlns="http://www.w3.org/2000/svg">
<path d="M41.3715 158.564C45.4426 158.564 48.743 155.304 48.743 151.282C48.743 147.26 45.4426 144 41.3715 144C37.3003 144 34 147.26 34 151.282C34 155.304 37.3003 158.564 41.3715 158.564Z" fill="#EFEFEF"/>
<path d="M14.4665 199.036C22.3034 199.036 28.6566 192.76 28.6566 185.018C28.6566 177.276 22.3034 171 14.4665 171C6.62949 171 0.276367 177.276 0.276367 185.018C0.276367 192.76 6.62949 199.036 14.4665 199.036Z" fill="#6F4E9D"/>
<path d="M414.375 83.0798C418.447 83.0798 421.747 79.8195 421.747 75.7977C421.747 71.7759 418.447 68.5156 414.375 68.5156C410.304 68.5156 407.004 71.7759 407.004 75.7977C407.004 79.8195 410.304 83.0798 414.375 83.0798Z" fill="#DF4C97"/>
<path d="M334.19 28.036C342.027 28.036 348.38 21.76 348.38 14.018C348.38 6.27608 342.027 0 334.19 0C326.353 0 320 6.27608 320 14.018C320 21.76 326.353 28.036 334.19 28.036Z" fill="#4FBEB8"/>
</svg>
