<svg width="25" height="25" viewBox="0 0 25 25" fill="none" xmlns="http://www.w3.org/2000/svg">
<path d="M10.4241 9.49219L15.7366 12.5112L10.4241 15.5301V9.49219ZM25 2.67857V22.3214C25 23.8002 23.8002 25 22.3214 25H2.67857C1.19978 25 0 23.8002 0 22.3214V2.67857C0 1.19978 1.19978 0 2.67857 0H22.3214C23.8002 0 25 1.19978 25 2.67857ZM22.6562 12.5167C22.6562 12.5167 22.6562 9.19085 22.2321 7.59487C21.9978 6.71317 21.3114 6.0212 20.4353 5.78683C18.856 5.35714 12.5 5.35714 12.5 5.35714C12.5 5.35714 6.14397 5.35714 4.56473 5.78683C3.68862 6.0212 3.00223 6.71317 2.76786 7.59487C2.34375 9.18527 2.34375 12.5167 2.34375 12.5167C2.34375 12.5167 2.34375 15.8426 2.76786 17.4386C3.00223 18.3203 3.68862 18.9844 4.56473 19.2188C6.14397 19.6429 12.5 19.6429 12.5 19.6429C12.5 19.6429 18.856 19.6429 20.4353 19.2132C21.3114 18.9788 21.9978 18.3147 22.2321 17.433C22.6562 15.8426 22.6562 12.5167 22.6562 12.5167Z" fill="white"/>
</svg>
